SplineFontDB: 3.0
FontName: Pelagiad
FullName: Pelagiad
FamilyName: Pelagiad
Weight: Regular
Copyright: Copyright Isak Larborn. Licensed under the SIL Open Font License.
UComments: "2015-2-24: Created with FontForge (http://fontforge.org)"
Version: 1.0
ItalicAngle: 0
UnderlinePosition: -50
UnderlineWidth: 25
Ascent: 849
Descent: 175
InvalidEm: 0
LayerCount: 2
Layer: 0 1 "Back" 1
Layer: 1 1 "Fore" 0
XUID: [1021 550 254111602 2708]
FSType: 0
OS2Version: 0
OS2_WeightWidthSlopeOnly: 0
OS2_UseTypoMetrics: 1
CreationTime: 1424795239
ModificationTime: 1426702164
PfmFamily: 17
TTFWeight: 400
TTFWidth: 5
LineGap: 92
VLineGap: 0
OS2TypoAscent: 849
OS2TypoAOffset: 0
OS2TypoDescent: -175
OS2TypoDOffset: 0
OS2TypoLinegap: 92
OS2WinAscent: 849
OS2WinAOffset: 0
OS2WinDescent: 175
OS2WinDOffset: 0
HheadAscent: 849
HheadAOffset: 0
HheadDescent: -175
HheadDOffset: 0
OS2CapHeight: 0
OS2XHeight: 0
OS2Vendor: 'PfEd'
Lookup: 258 0 0 "'kern' Horizontal Kerning in Latin lookup 0" { "'kern' Horizontal Kerning in Latin lookup 0-1" [153,15,0] "'kern' Horizontal Kerning in Latin lookup 0-2" [153,15,0] "'kern' Horizontal Kerning in Latin lookup 0-3" [153,15,0] "'kern' Horizontal Kerning in Latin lookup 0-4" [153,15,0] "'kern' Horizontal Kerning in Latin lookup 0-5" [153,15,0] "'kern' Horizontal Kerning in Latin lookup 0-6" [153,15,0] } ['kern' ('DFLT' <'dflt' > 'latn' <'dflt' > ) ]
MarkAttachClasses: 1
DEI: 91125
KernClass2: 1+ 2 "'kern' Horizontal Kerning in Latin lookup 0-6"
 94 a h m n u agrave aacute acircumflex atilde adieresis aring ugrave uacute ucircumflex udieresis
 9 m n p v w
 0 {} -13 {}
KernClass2: 1+ 2 "'kern' Horizontal Kerning in Latin lookup 0-5"
 3 A R
 7 m n p r
 0 {} -67 {}
KernClass2: 2 2 "'kern' Horizontal Kerning in Latin lookup 0-4"
 1 T
 27 agrave egrave ograve ugrave
 0 {} 0 {} 0 {} -65 {}
KernClass2: 2 2 "'kern' Horizontal Kerning in Latin lookup 0-3"
 1 T
 55 a g m n p r x aacute acircumflex atilde adieresis aring
 0 {} 0 {} 0 {} -77 {}

StartChar: o
Encoding: 111 111 0
Width: 448
VWidth: -3
Flags: W
HStem: -19 69<223.622 321.374> 316 69<135.763 247.101>
VStem: 30 95<166.085 293.159> 328 94<86.0215 241>
LayerCount: 2
Back
Fore
SplineSet
328 114 m 0,0,1
 328 183 328 183 284.5 249.5 c 128,-1,2
 241 316 241 316 194 316 c 0,3,4
 152 316 152 316 138.5 304 c 128,-1,5
 125 292 125 292 125 254 c 0,6,7
 125 182 125 182 180 116 c 128,-1,8
 235 50 235 50 272 50 c 0,9,10
 311 50 311 50 319.5 61 c 128,-1,11
 328 72 328 72 328 114 c 0,0,1
254 -19 m 0,12,13
 165 -19 165 -19 97.5 44.5 c 128,-1,14
 30 108 30 108 30 188 c 0,15,16
 30 285 30 285 84 335 c 128,-1,17
 138 385 138 385 234 385 c 0,18,19
 304 385 304 385 363 325.5 c 128,-1,20
 422 266 422 266 422 216 c 0,21,22
 422 113 422 113 380 47 c 128,-1,23
 338 -19 338 -19 254 -19 c 0,12,13
EndSplineSet
Validated: 1
EndChar

StartChar: n
Encoding: 110 110 1
Width: 535
VWidth: -3
Flags: W
HStem: -14 21G<110 139 351 367.5> 304 78<243.93 360> 314 69<56.3159 81.6831>
VStem: 110 98<27.6191 283.901> 373 89<74.7972 260.747>
LayerCount: 2
Back
Fore
SplineSet
351 -14 m 5,0,1
 373 70 373 70 373 145 c 0,2,3
 373 230 373 230 346.5 267 c 128,-1,4
 320 304 320 304 267 304 c 0,5,6
 256 304 256 304 249.5 302 c 128,-1,7
 243 300 243 300 239.5 298 c 128,-1,8
 236 296 236 296 226 287.5 c 128,-1,9
 216 279 216 279 208 273 c 1,10,-1
 208 103 l 2,11,12
 208 67 208 67 184.5 25 c 128,-1,13
 161 -17 161 -17 117 -17 c 2,14,-1
 110 -17 l 1,15,-1
 110 153 l 2,16,17
 110 202 110 202 103.5 236 c 128,-1,18
 97 270 97 270 87.5 284 c 128,-1,19
 78 298 78 298 66.5 306 c 128,-1,20
 55 314 55 314 45.5 314 c 128,-1,21
 36 314 36 314 29.5 317 c 128,-1,22
 23 320 23 320 23 327 c 0,23,24
 23 341 23 341 58.5 362 c 128,-1,25
 94 383 94 383 110 383 c 0,26,27
 127 383 127 383 157.5 368.5 c 128,-1,28
 188 354 188 354 202 326 c 1,29,30
 233 356 233 356 261 369 c 128,-1,31
 289 382 289 382 336 382 c 0,32,33
 384 382 384 382 413.5 350 c 128,-1,34
 443 318 443 318 452.5 276.5 c 128,-1,35
 462 235 462 235 462 183 c 0,36,37
 462 118 462 118 447 73 c 1,38,39
 495 101 495 101 507 101 c 0,40,41
 527 101 527 101 527 69 c 0,42,43
 527 55 527 55 450.5 20.5 c 128,-1,44
 374 -14 374 -14 361 -14 c 2,45,-1
 351 -14 l 5,0,1
EndSplineSet
Validated: 1
EndChar

StartChar: c
Encoding: 99 99 2
Width: 410
VWidth: -3
Flags: W
HStem: -19 67<195.289 310.938> 311 72<160.744 273.836>
VStem: 30 101<109.62 278.064>
DStem2: 302 57.5 315 6 0.78041 0.625268<-28.1809 73.3664> 322.5 78.5 335 21 0.611261 0.791429<-54.089 8.6201>
LayerCount: 2
Back
Fore
SplineSet
384 97 m 1,0,1
 382 93 382 93 374.5 78.5 c 128,-1,2
 367 64 367 64 363.5 58 c 128,-1,3
 360 52 360 52 351 39.5 c 128,-1,4
 342 27 342 27 335 21 c 128,-1,5
 328 15 328 15 315 6 c 128,-1,6
 302 -3 302 -3 289 -7.5 c 128,-1,7
 276 -12 276 -12 257 -15.5 c 128,-1,8
 238 -19 238 -19 216 -19 c 0,9,10
 131 -19 131 -19 80.5 41.5 c 128,-1,11
 30 102 30 102 30 185 c 0,12,13
 30 283 30 283 83 333 c 128,-1,14
 136 383 136 383 231 383 c 0,15,16
 295 383 295 383 334.5 362.5 c 128,-1,17
 374 342 374 342 374 317 c 0,18,19
 374 303 374 303 364 290 c 128,-1,20
 354 277 354 277 345 271 c 128,-1,21
 336 265 336 265 316 253 c 1,22,23
 310 258 310 258 297.5 269.5 c 128,-1,24
 285 281 285 281 280.5 284.5 c 128,-1,25
 276 288 276 288 265 295 c 128,-1,26
 254 302 254 302 246 304.5 c 128,-1,27
 238 307 238 307 225 309 c 128,-1,28
 212 311 212 311 197 311 c 0,29,30
 172 311 172 311 151.5 275 c 128,-1,31
 131 239 131 239 131 179 c 0,32,33
 131 127 131 127 172.5 87.5 c 128,-1,34
 214 48 214 48 273 48 c 0,35,36
 289 48 289 48 302 57.5 c 128,-1,37
 315 67 315 67 322.5 78.5 c 128,-1,38
 330 90 330 90 338.5 99.5 c 128,-1,39
 347 109 347 109 355 109 c 0,40,41
 362 109 362 109 370.5 103.5 c 128,-1,42
 379 98 379 98 384 97 c 1,0,1
EndSplineSet
Validated: 1
EndChar

StartChar: E
Encoding: 69 69 3
Width: 641
VWidth: -12
Flags: W
HStem: -26 108<293.609 461.239> 261 104<171 278.946> 285 102<405.054 523> 566 90<213.397 358.606>
VStem: 44 117<365 435.514> 572 67<167.908 285> 590 37<-86.8055 58.6333>
LayerCount: 2
Back
Fore
SplineSet
430 82 m 4,0,1
 474 82 474 82 515 95 c 128,-1,2
 556 108 556 108 573 119 c 1,3,-1
 572 285 l 1,4,5
 189 262 189 262 171 261 c 1,6,7
 175 228 175 228 189.5 199 c 128,-1,8
 204 170 204 170 232.5 142 c 128,-1,9
 261 114 261 114 311.5 98 c 128,-1,10
 362 82 362 82 430 82 c 4,0,1
275 566 m 4,11,12
 242 566 242 566 219 548.5 c 128,-1,13
 196 531 196 531 184.5 499.5 c 128,-1,14
 173 468 173 468 168 436.5 c 128,-1,15
 163 405 163 405 161 365 c 1,16,-1
 523 387 l 1,17,18
 474 455 474 455 408 510.5 c 128,-1,19
 342 566 342 566 275 566 c 4,11,12
583 64 m 5,20,21
 531 30 531 30 504 15 c 128,-1,22
 477 0 477 0 433 -13 c 128,-1,23
 389 -26 389 -26 339 -26 c 0,24,25
 239 -26 239 -26 171 24.5 c 128,-1,26
 103 75 103 75 73.5 153 c 128,-1,27
 44 231 44 231 44 329 c 0,28,29
 44 404 44 404 77 479 c 128,-1,30
 110 554 110 554 169.5 605 c 128,-1,31
 229 656 229 656 297 656 c 0,32,33
 360 656 360 656 426.5 628 c 128,-1,34
 493 600 493 600 539 552 c 1,35,36
 544 566 544 566 551.5 598 c 128,-1,37
 559 630 559 630 566.5 642.5 c 128,-1,38
 574 655 574 655 588 655 c 0,39,40
 605 655 605 655 605 626 c 0,41,42
 605 603 605 603 585 520.5 c 128,-1,43
 565 438 565 438 559 398 c 1,44,-1
 639 405 l 1,45,46
 627 257 627 257 627 -65 c 2,47,-1
 627 -69 l 2,48,49
 624 -71 624 -71 620 -75.5 c 128,-1,50
 616 -80 616 -80 613 -83 c 128,-1,51
 610 -86 610 -86 606 -88.5 c 128,-1,52
 602 -91 602 -91 598 -91 c 2,53,-1
 590 -91 l 1,54,55
 589 -47 589 -47 583 64 c 5,20,21
EndSplineSet
Validated: 1
EndChar

StartChar: I
Encoding: 73 73 4
Width: 411
VWidth: -15
Flags: W
HStem: -10 21G<349.5 403> -9 62.5<32.543 141.624> 5 51.5<116.715 142 236 289.586> 567 51<35.8025 146.604 235.438 290> 572 57<29.8877 144.333>
VStem: 148 87<62.399 562.547> 291 54<56 567>
LayerCount: 2
Back
Fore
SplineSet
403 -10 m 5,0,1
 296 5 296 5 211 5 c 0,2,3
 170 5 170 5 115 -2 c 128,-1,4
 60 -9 60 -9 26 -9 c 2,5,-1
 20 -9 l 1,6,-1
 20 -2 l 2,7,8
 20 23 20 23 39 37 c 128,-1,9
 58 51 58 51 81 53.5 c 128,-1,10
 104 56 104 56 123 61.5 c 128,-1,11
 142 67 142 67 142 79 c 0,12,13
 142 166 142 166 145 309 c 128,-1,14
 148 452 148 452 148 539 c 0,15,16
 148 555 148 555 128 562.5 c 128,-1,17
 108 570 108 570 84 572 c 128,-1,18
 60 574 60 574 40 586 c 128,-1,19
 20 598 20 598 20 621 c 2,20,-1
 20 629 l 1,21,-1
 27 629 l 2,22,23
 84 627 84 627 124 618 c 128,-1,24
 164 609 164 609 191 609 c 0,25,26
 217 609 217 609 291 618 c 1,27,28
 294 654 294 654 310 654 c 0,29,30
 328 654 328 654 338 625 c 1,31,32
 359 627 359 627 393 629 c 2,33,-1
 401 629 l 1,34,-1
 401 621 l 2,35,36
 401 581 401 581 345 569 c 1,37,-1
 345 50 l 1,38,39
 363 45 363 45 373.5 40.5 c 128,-1,40
 384 36 384 36 393.5 25 c 128,-1,41
 403 14 403 14 403 -2 c 2,42,-1
 403 -10 l 5,0,1
236 73 m 7,43,44
 236 69 236 69 237.5 66.5 c 128,-1,45
 239 64 239 64 243 62 c 128,-1,46
 247 60 247 60 250 59 c 128,-1,47
 253 58 253 58 259.5 57.5 c 128,-1,48
 266 57 266 57 269.5 56.5 c 128,-1,49
 273 56 273 56 280.5 56 c 128,-1,50
 288 56 288 56 291 56 c 2,51,-1
 290 567 l 1,52,53
 235 565 235 565 235 542 c 0,54,55
 235 453 235 453 235.5 307.5 c 128,-1,56
 236 162 236 162 236 73 c 7,43,44
EndSplineSet
Validated: 1
EndChar

StartChar: e
Encoding: 101 101 5
Width: 432
VWidth: -3
Flags: W
HStem: -18 71<190.416 324.887> 327 53<176.104 235.8>
VStem: 38 107<212 288.305>
DStem2: 145 212 150 152 0.899357 0.437214<0 129.321 235.672 274.614> 340.5 81.5 377 59 0.500153 0.865937<-41.2653 38.3066>
LayerCount: 2
Back
Fore
SplineSet
398 98 m 5,0,1
 396 94 396 94 388 79.5 c 128,-1,2
 380 65 380 65 377 59 c 128,-1,3
 374 53 374 53 364.5 40 c 128,-1,4
 355 27 355 27 348 21.5 c 128,-1,5
 341 16 341 16 328 6.5 c 128,-1,6
 315 -3 315 -3 301 -7 c 128,-1,7
 287 -11 287 -11 268 -14.5 c 128,-1,8
 249 -18 249 -18 226 -18 c 0,9,10
 141 -18 141 -18 89.5 43 c 128,-1,11
 38 104 38 104 38 186 c 0,12,13
 38 380 38 380 225 380 c 0,14,15
 237 380 237 380 247.5 378.5 c 128,-1,16
 258 377 258 377 268 374 c 128,-1,17
 278 371 278 371 286 368.5 c 128,-1,18
 294 366 294 366 302.5 360.5 c 128,-1,19
 311 355 311 355 316 352 c 128,-1,20
 321 349 321 349 328.5 342 c 128,-1,21
 336 335 336 335 339 333 c 128,-1,22
 342 331 342 331 348.5 324.5 c 128,-1,23
 355 318 355 318 356 317 c 0,24,25
 377 329 377 329 394 329 c 0,26,27
 418 329 418 329 418 296 c 0,28,29
 418 289 418 289 410 282 c 128,-1,30
 402 275 402 275 384.5 266 c 128,-1,31
 367 257 367 257 350 249.5 c 128,-1,32
 333 242 333 242 304 229.5 c 128,-1,33
 275 217 275 217 255 208 c 0,34,35
 212 189 212 189 150 152 c 1,36,37
 159 97 159 97 189 75 c 128,-1,38
 219 53 219 53 274 53 c 0,39,40
 301 53 301 53 318 62 c 128,-1,41
 335 71 335 71 340.5 81.5 c 128,-1,42
 346 92 346 92 353 101 c 128,-1,43
 360 110 360 110 368 110 c 0,44,45
 375 110 375 110 384.5 104.5 c 128,-1,46
 394 99 394 99 398 98 c 5,0,1
196 327 m 4,47,48
 183 327 183 327 165.5 287.5 c 128,-1,49
 148 248 148 248 145 212 c 1,50,51
 195 233 195 233 217 241 c 0,52,53
 223 244 223 244 233 248 c 128,-1,54
 243 252 243 252 250.5 255.5 c 128,-1,55
 258 259 258 259 264 263 c 1,56,57
 231 327 231 327 196 327 c 4,47,48
EndSplineSet
Validated: 1
EndChar

StartChar: p
Encoding: 112 112 6
Width: 499
VWidth: 8
Flags: W
HStem: -160 56<195.703 317.719> -11 67<219.496 354.048> 313 82<228.959 318.058> 314 61<16.9141 89>
VStem: 89 105<-104 19 81.4092 292.996> 365 108<87.9424 254.4>
LayerCount: 2
Back
Fore
SplineSet
290 395 m 0,0,1
 361 395 361 395 417 334.5 c 128,-1,2
 473 274 473 274 473 225 c 0,3,4
 473 119 473 119 434.5 54 c 128,-1,5
 396 -11 396 -11 312 -11 c 0,6,7
 264 -11 264 -11 241 -4 c 128,-1,8
 218 3 218 3 194 19 c 1,9,-1
 194 -104 l 2,10,11
 197 -104 197 -104 208 -104.5 c 128,-1,12
 219 -105 219 -105 229 -105 c 128,-1,13
 239 -105 239 -105 253.5 -106 c 128,-1,14
 268 -107 268 -107 279 -109 c 128,-1,15
 290 -111 290 -111 300.5 -113.5 c 128,-1,16
 311 -116 311 -116 316.5 -120 c 128,-1,17
 322 -124 322 -124 322 -129 c 0,18,19
 322 -149 322 -149 253.5 -160.5 c 0,20,21
 184 -172 184 -172 116 -174 c 2,22,-1
 48 -175 l 1,23,-1
 39 -175 l 1,24,-1
 39 -167 l 2,25,26
 39 -153 39 -153 50.5 -140.5 c 128,-1,27
 62 -128 62 -128 71.5 -122.5 c 128,-1,28
 81 -117 81 -117 89 -114 c 1,29,-1
 89 314 l 1,30,-1
 74 316 l 2,31,32
 59 318 59 318 43 322 c 128,-1,33
 27 326 27 326 13.5 339.5 c 128,-1,34
 0 353 0 353 0 375 c 2,35,-1
 0 383 l 1,36,-1
 9 382 l 2,37,38
 51 375 51 375 75 375 c 0,39,40
 92 375 92 375 119.5 378 c 0,41,42
 148 381 148 381 166 384 c 2,43,-1
 184 387 l 1,44,-1
 194 389 l 1,45,-1
 191 329 l 1,46,47
 196 334 196 334 209 350 c 128,-1,48
 222 366 222 366 230 373.5 c 128,-1,49
 238 381 238 381 254 388 c 128,-1,50
 270 395 270 395 290 395 c 0,0,1
268 313 m 0,51,52
 240 313 240 313 223.5 299.5 c 128,-1,53
 207 286 207 286 191 260 c 1,54,-1
 194 115 l 1,55,56
 210 56 210 56 313 56 c 0,57,58
 345 56 345 56 355 79 c 128,-1,59
 365 102 365 102 365 151 c 0,60,61
 365 216 365 216 337.5 264.5 c 128,-1,62
 310 313 310 313 268 313 c 0,51,52
EndSplineSet
Validated: 1
EndChar

StartChar: q
Encoding: 113 113 7
Width: 503
VWidth: 8
Flags: W
HStem: -6 74<164.746 253.265> 330 64<154.247 249.035>
VStem: 40 83<114.184 292.093> 300 105<-70 39 85.7971 280.175>
LayerCount: 2
Back
Fore
SplineSet
212 330 m 0,0,1
 171 330 171 330 147 299.5 c 128,-1,2
 123 269 123 269 123 216 c 0,3,4
 123 143 123 143 150.5 105.5 c 128,-1,5
 178 68 178 68 224 68 c 0,6,7
 259 68 259 68 300 101 c 1,8,-1
 300 255 l 1,9,10
 287 272 287 272 256.5 301 c 128,-1,11
 226 330 226 330 212 330 c 0,0,1
300 -175 m 5,12,-1
 300 39 l 1,13,14
 213 -6 213 -6 180 -6 c 0,15,16
 119 -6 119 -6 79.5 50 c 128,-1,17
 40 106 40 106 40 172 c 0,18,19
 40 266 40 266 82.5 330 c 128,-1,20
 125 394 125 394 196 394 c 0,21,22
 260 394 260 394 308 357 c 1,23,24
 326 374 326 374 352.5 390.5 c 128,-1,25
 379 407 379 407 398 407 c 2,26,-1
 405 407 l 1,27,-1
 405 -70 l 1,28,29
 431 -58 431 -58 482 -58 c 2,30,-1
 495 -58 l 1,31,32
 493 -62 493 -62 488 -68 c 128,-1,33
 483 -74 483 -74 465 -90.5 c 128,-1,34
 447 -107 447 -107 426.5 -121 c 128,-1,35
 406 -135 406 -135 372 -151 c 128,-1,36
 338 -167 338 -167 300 -175 c 5,12,-1
EndSplineSet
Validated: 1
EndChar

StartChar: a
Encoding: 97 97 8
Width: 458
VWidth: -3
Flags: W
HStem: -9 74<383.711 446.977> 41 10<181 262> 244 46<128.002 158.622> 311 69<128.711 261.797>
VStem: 30 104<54.0059 115.151 279.724 305> 275 107<222.219 296.219>
DStem2: 152.5 181.5 181 132 0.946128 0.323792<-41.3762 110.619>
LayerCount: 2
Back
Fore
SplineSet
181 51 m 4,0,1
 246 51 246 51 274 171 c 1,2,3
 228 158 228 158 181 132 c 128,-1,4
 134 106 134 106 134 76 c 0,5,6
 134 51 134 51 181 51 c 4,0,1
123 -13 m 4,7,8
 30 -13 30 -13 30 59 c 0,9,10
 30 103 30 103 68.5 135 c 128,-1,11
 107 167 107 167 152.5 181.5 c 128,-1,12
 198 196 198 196 236.5 213.5 c 128,-1,13
 275 231 275 231 275 248 c 0,14,15
 275 311 275 311 195 311 c 0,16,17
 173 311 173 311 152.5 304 c 128,-1,18
 132 297 132 297 128 292 c 0,19,20
 128 291 128 291 136 290 c 128,-1,21
 144 289 144 289 151.5 284.5 c 128,-1,22
 159 280 159 280 159 270 c 0,23,24
 159 244 159 244 97 244 c 0,25,26
 74 244 74 244 52 257 c 128,-1,27
 30 270 30 270 30 291 c 0,28,29
 30 320 30 320 62.5 341 c 128,-1,30
 95 362 95 362 133.5 371 c 128,-1,31
 172 380 172 380 207 380 c 0,32,33
 230 380 230 380 257.5 375.5 c 128,-1,34
 285 371 285 371 314 362 c 128,-1,35
 343 353 343 353 362.5 336 c 128,-1,36
 382 319 382 319 382 297 c 2,37,-1
 383 90 l 2,38,39
 383 75 383 75 421 65 c 128,-1,40
 459 55 459 55 459 38 c 0,41,42
 459 20 459 20 437.5 5.5 c 128,-1,43
 416 -9 416 -9 387 -9 c 0,44,45
 370 -9 370 -9 341.5 3 c 128,-1,46
 313 15 313 15 289 27.5 c 128,-1,47
 265 40 265 40 262 41 c 0,48,49
 261 41 261 41 246.5 27 c 128,-1,50
 232 13 232 13 200 0 c 128,-1,51
 168 -13 168 -13 123 -13 c 4,7,8
EndSplineSet
Validated: 1
EndChar

StartChar: b
Encoding: 98 98 9
Width: 516
VWidth: -15
Flags: W
HStem: -36 64<251.17 365.491> 319 73<241.142 333.469>
VStem: 93 102<76.6912 284.393 337 534> 390 100<76.2334 248.435>
LayerCount: 2
Back
Fore
SplineSet
22 582 m 4,0,1
 22 593 22 593 52.5 597 c 128,-1,2
 83 601 83 601 123.5 610 c 128,-1,3
 164 619 164 619 181 641 c 2,4,-1
 195 658 l 1,5,-1
 195 337 l 1,6,7
 256 392 256 392 323 392 c 0,8,9
 407 392 407 392 448.5 322.5 c 128,-1,10
 490 253 490 253 490 144 c 0,11,12
 490 92 490 92 431 28 c 128,-1,13
 372 -36 372 -36 303 -36 c 0,14,15
 206 -36 206 -36 149.5 17.5 c 128,-1,16
 93 71 93 71 93 174 c 2,17,-1
 93 534 l 1,18,-1
 71.5 544.5 l 2,19,20
 50 555 50 555 36 564.5 c 128,-1,21
 22 574 22 574 22 582 c 4,0,1
324 28 m 132,-1,23
 390 28 390 28 390 165 c 0,24,25
 390 216 390 216 357 267.5 c 128,-1,26
 324 319 324 319 285 319 c 0,27,28
 227 319 227 319 195 249 c 1,29,-1
 195 99 l 1,30,22
 258 28 258 28 324 28 c 132,-1,23
EndSplineSet
Validated: 1
EndChar

StartChar: d
Encoding: 100 100 10
Width: 471
VWidth: -13
Flags: W
HStem: -28 76<181.913 263.968> 310 59<164.652 273.357> 602 20G<357 388.5>
VStem: 30 101<104.181 272.309> 302 97<83.1932 287.234 347 550.434>
LayerCount: 2
Back
Fore
SplineSet
230 48 m 0,0,1
 251 48 251 48 265 63.5 c 128,-1,2
 279 79 279 79 302 122 c 1,3,-1
 302 252 l 1,4,5
 283 288 283 288 268 299 c 128,-1,6
 253 310 253 310 215 310 c 0,7,8
 173 310 173 310 152 270.5 c 128,-1,9
 131 231 131 231 131 183 c 0,10,11
 131 128 131 128 165 88 c 128,-1,12
 199 48 199 48 230 48 c 0,0,1
204 -28 m 0,13,14
 132 -28 132 -28 81 32.5 c 128,-1,15
 30 93 30 93 30 167 c 0,16,17
 30 262 30 262 70.5 315.5 c 128,-1,18
 111 369 111 369 183 369 c 0,19,20
 261 369 261 369 302 347 c 1,21,-1
 302 541 l 1,22,23
 246 563 246 563 246 581 c 0,24,25
 246 595 246 595 296 608.5 c 128,-1,26
 346 622 346 622 368 622 c 0,27,28
 409 622 409 622 409 594 c 0,29,30
 409 581 409 581 404 568.5 c 128,-1,31
 399 556 399 556 399 551 c 2,32,-1
 399 77 l 1,33,34
 419 87 419 87 442 87 c 0,35,36
 471 87 471 87 471 53 c 2,37,-1
 471 47 l 1,38,-1
 325 -24 l 1,39,-1
 306 26 l 1,40,41
 243 -28 243 -28 204 -28 c 0,13,14
EndSplineSet
Validated: 1
EndChar

StartChar: f
Encoding: 102 102 12
Width: 303
VWidth: -13
Flags: W
HStem: 291.5 75<175.315 241.169> 569 68<209.629 299.067>
VStem: 73 102<22.0056 290.525 366.86 504.429>
LayerCount: 2
Back
Fore
SplineSet
337 470 m 1,0,1
 336 471 336 471 324.5 488 c 128,-1,2
 313 505 313 505 300.5 520.5 c 128,-1,3
 288 536 288 536 269.5 551.5 c 128,-1,4
 251 567 251 567 234 569 c 0,5,6
 217 569 217 569 196 523 c 128,-1,7
 175 477 175 477 175 448 c 2,8,-1
 175 370 l 1,9,10
 183 367 183 367 207 366.5 c 128,-1,11
 231 366 231 366 241.5 357.5 c 128,-1,12
 252 349 252 349 252 323 c 0,13,14
 252 304 252 304 239.5 298.5 c 128,-1,15
 227 293 227 293 206 291.5 c 128,-1,16
 185 290 185 290 175 283 c 1,17,-1
 175 68 l 2,18,19
 175 50 175 50 152.5 22 c 128,-1,20
 130 -6 130 -6 108 -25 c 2,21,-1
 86 -44 l 1,22,-1
 73 -56 l 1,23,-1
 73 284 l 1,24,25
 67 288 67 288 58.5 291 c 128,-1,26
 50 294 50 294 44 295.5 c 128,-1,27
 38 297 38 297 33.5 300.5 c 128,-1,28
 29 304 29 304 29 311 c 0,29,30
 29 334 29 334 40 346.5 c 128,-1,31
 51 359 51 359 73 371 c 1,32,33
 73 498 73 498 132 567.5 c 128,-1,34
 191 637 191 637 274 637 c 0,35,36
 323 637 323 637 358.5 614.5 c 128,-1,37
 394 592 394 592 394 570 c 0,38,39
 394 558 394 558 381 535 c 128,-1,40
 368 512 368 512 355.5 495 c 2,41,-1
 343 478 l 1,42,-1
 337 470 l 1,0,1
EndSplineSet
Validated: 1
EndChar

StartChar: m
Encoding: 109 109 13
Width: 759
VWidth: -3
Flags: W
HStem: -18 19G<117 146.5 346 377.5 556 573.5> 304 77<244.98 340.564> 316 65<59.7617 86.3594 485.625 587.016>
VStem: 117 95<9.21582 283.105> 346 97<9.68506 269.713> 577 109<68.4111 302.768>
LayerCount: 2
Back
Fore
SplineSet
556 -20 m 1,0,1
 577 72 577 72 577 146 c 0,2,3
 577 185 577 185 576.5 202.5 c 128,-1,4
 576 220 576 220 574.5 244.5 c 128,-1,5
 573 269 573 269 569 278.5 c 128,-1,6
 565 288 565 288 557.5 299 c 128,-1,7
 550 310 550 310 539 313 c 128,-1,8
 528 316 528 316 511 316 c 0,9,10
 491 316 491 316 479 310 c 128,-1,11
 467 304 467 304 443 285 c 1,12,-1
 443 108 l 2,13,14
 443 41 443 41 422 11.5 c 128,-1,15
 401 -18 401 -18 354 -18 c 2,16,-1
 346 -18 l 1,17,-1
 346 151 l 2,18,19
 346 200 346 200 337.5 233.5 c 128,-1,20
 329 267 329 267 315 281 c 128,-1,21
 301 295 301 295 290.5 299.5 c 128,-1,22
 280 304 280 304 269 304 c 0,23,24
 259 304 259 304 252 302 c 128,-1,25
 245 300 245 300 242 298 c 128,-1,26
 239 296 239 296 229.5 287.5 c 128,-1,27
 220 279 220 279 212 273 c 1,28,-1
 212 104 l 2,29,30
 212 40 212 40 191 11 c 128,-1,31
 170 -18 170 -18 123 -18 c 2,32,-1
 117 -18 l 1,33,-1
 117 153 l 2,34,35
 117 202 117 202 110.5 236 c 128,-1,36
 104 270 104 270 94 284 c 128,-1,37
 84 298 84 298 73 306 c 128,-1,38
 62 314 62 314 52 314 c 128,-1,39
 42 314 42 314 35.5 317 c 128,-1,40
 29 320 29 320 29 327 c 0,41,42
 29 341 29 341 64 361 c 128,-1,43
 99 381 99 381 115 381 c 0,44,45
 132 381 132 381 161.5 367.5 c 128,-1,46
 191 354 191 354 205 326 c 1,47,48
 234 355 234 355 262 368 c 128,-1,49
 290 381 290 381 336 381 c 0,50,51
 367 381 367 381 396 367.5 c 128,-1,52
 425 354 425 354 437 324 c 1,53,54
 499 381 499 381 577 381 c 0,55,56
 613 381 613 381 636 363 c 128,-1,57
 659 345 659 345 669 312 c 128,-1,58
 679 279 679 279 682.5 248.5 c 128,-1,59
 686 218 686 218 686 177 c 0,60,61
 686 112 686 112 671 67 c 1,62,63
 719 95 719 95 731 95 c 0,64,65
 751 95 751 95 751 63 c 0,66,67
 751 48 751 48 665.5 14 c 128,-1,68
 580 -20 580 -20 567 -20 c 2,69,-1
 556 -20 l 1,0,1
EndSplineSet
Validated: 1
EndChar

StartChar: l
Encoding: 108 108 14
Width: 248
VWidth: -14
Flags: W
VStem: 66 93<56 561.896>
LayerCount: 2
Back
Fore
SplineSet
232 64 m 4,0,1
 232 47 232 47 167.5 9 c 128,-1,2
 103 -29 103 -29 74 -29 c 2,3,-1
 66 -29 l 1,4,-1
 66 521 l 2,5,6
 66 538 66 538 45 560.5 c 128,-1,7
 24 583 24 583 24 595 c 0,8,9
 25 611 25 611 74.5 626 c 128,-1,10
 124 641 124 641 159 644 c 1,11,-1
 159 56 l 1,12,13
 165 57 165 57 177.5 65.5 c 128,-1,14
 190 74 190 74 199.5 81.5 c 2,15,-1
 209 89 l 1,16,-1
 214 94 l 1,17,-1
 218 88 l 1,18,19
 232 76 232 76 232 64 c 4,0,1
EndSplineSet
Validated: 1
EndChar

StartChar: g
Encoding: 103 103 15
Width: 468
VWidth: 8
Flags: W
HStem: -174 53<136.881 344.82> -22 70<149.076 341.807> 102 47<163.875 253.965> 296 74<345 402> 346 55<134.708 221.423>
VStem: 39 84<-103.581 -61.6465 192.63 334.552> 61 87<34 80.8253> 264 92<158.808 295.079> 354 88<-108.054 -35.4911>
LayerCount: 2
Back
Fore
SplineSet
148 63 m 3,0,1
 148 48 148 48 234 48 c 2,2,-1
 336 48 l 2,3,4
 383 48 383 48 412.5 9.5 c 128,-1,5
 442 -29 442 -29 442 -58 c 0,6,7
 442 -108 442 -108 384 -141 c 128,-1,8
 326 -174 326 -174 238 -174 c 0,9,10
 39 -174 39 -174 39 -99 c 0,11,12
 39 -69 39 -69 117 -19 c 1,13,14
 95 -13 95 -13 78 5 c 128,-1,15
 61 23 61 23 61 45 c 0,16,17
 61 68 61 68 130 122 c 1,18,19
 41 174 41 174 41 280 c 0,20,21
 41 330 41 330 84 365.5 c 128,-1,22
 127 401 127 401 192 401 c 0,23,24
 239 401 239 401 285 370 c 1,25,-1
 429 370 l 1,26,-1
 429 361 l 2,27,28
 429 346 429 346 422.5 330.5 c 128,-1,29
 416 315 416 315 409.5 307 c 2,30,-1
 403 299 l 1,31,-1
 402 296 l 1,32,-1
 345 296 l 1,33,34
 356 258 356 258 356 226 c 0,35,36
 356 175 356 175 315.5 138.5 c 128,-1,37
 275 102 275 102 211 102 c 0,38,39
 148 102 148 102 148 63 c 3,0,1
264 218 m 3,40,41
 264 281 264 281 232.5 313.5 c 128,-1,42
 201 346 201 346 166 346 c 0,43,44
 142 346 142 346 135 329 c 128,-1,45
 128 312 128 312 128 266 c 0,46,47
 128 208 128 208 156 178.5 c 128,-1,48
 184 149 184 149 212 149 c 0,49,50
 264 149 264 149 264 218 c 3,40,41
354 -74 m 0,51,52
 354 -64 354 -64 351 -56.5 c 128,-1,53
 348 -49 348 -49 338.5 -40 c 128,-1,54
 329 -31 329 -31 306.5 -26.5 c 128,-1,55
 284 -22 284 -22 250 -22 c 0,56,57
 123 -22 123 -22 123 -74 c 0,58,59
 123 -121 123 -121 260 -121 c 0,60,61
 354 -121 354 -121 354 -74 c 0,51,52
EndSplineSet
Validated: 1
EndChar

StartChar: i
Encoding: 105 105 16
Width: 238
VWidth: -10
Flags: W
VStem: 66 93<58 314.15>
LayerCount: 2
Back
Fore
SplineSet
85 453 m 0,0,1
 85 473 85 473 110 514 c 128,-1,2
 135 555 135 555 154 555 c 0,3,4
 174 555 174 555 191 544.5 c 128,-1,5
 208 534 208 534 208 513 c 0,6,7
 208 489 208 489 172.5 457.5 c 128,-1,8
 137 426 137 426 111 426 c 0,9,10
 99 426 99 426 92 433.5 c 128,-1,11
 85 441 85 441 85 453 c 0,0,1
230 67 m 0,12,13
 230 50 230 50 166 12.5 c 128,-1,14
 102 -25 102 -25 73 -25 c 2,15,-1
 66 -25 l 1,16,-1
 65 284 l 2,17,18
 65 298 65 298 57.5 305.5 c 128,-1,19
 50 313 50 313 40.5 315 c 128,-1,20
 31 317 31 317 23.5 321.5 c 128,-1,21
 16 326 16 326 16 336 c 0,22,23
 18 351 18 351 71 366 c 128,-1,24
 124 381 124 381 159 384 c 1,25,-1
 159 58 l 1,26,27
 166 60 166 60 178.5 68 c 128,-1,28
 191 76 191 76 199.5 83.5 c 2,29,-1
 208 91 l 1,30,-1
 212 95 l 1,31,-1
 216 90 l 2,32,33
 230 78 230 78 230 67 c 0,12,13
EndSplineSet
Validated: 1
EndChar

StartChar: h
Encoding: 104 104 17
Width: 511
VWidth: -14
Flags: W
HStem: 292 78<210.223 336.5>
VStem: 76 97<4.69751 279.127 318 556.465> 340 89<62.7788 247.258>
LayerCount: 2
Back
Fore
SplineSet
317 -26 m 1,0,1
 340 48 340 48 340 133 c 128,-1,2
 340 218 340 218 313 255 c 128,-1,3
 286 292 286 292 232 292 c 0,4,5
 221 292 221 292 214.5 290 c 128,-1,6
 208 288 208 288 204.5 286 c 128,-1,7
 201 284 201 284 191 275.5 c 128,-1,8
 181 267 181 267 173 261 c 1,9,-1
 173 20 l 2,10,11
 173 -10 173 -10 76 -31 c 1,12,-1
 76 515 l 2,13,14
 76 530 76 530 68 541.5 c 128,-1,15
 60 553 60 553 51 558 c 128,-1,16
 42 563 42 563 34 571 c 128,-1,17
 26 579 26 579 26 588 c 0,18,19
 28 605 28 605 83.5 621.5 c 128,-1,20
 139 638 139 638 173 640 c 1,21,-1
 173 318 l 1,22,23
 201 345 201 345 228.5 357.5 c 128,-1,24
 256 370 256 370 302 370 c 0,25,26
 371 370 371 370 400 311.5 c 128,-1,27
 429 253 429 253 429 170 c 0,28,29
 429 103 429 103 415 61 c 1,30,31
 463 89 463 89 474 89 c 0,32,33
 494 89 494 89 494 56 c 0,34,35
 494 42 494 42 417.5 8 c 128,-1,36
 341 -26 341 -26 328 -26 c 2,37,-1
 317 -26 l 1,0,1
EndSplineSet
Validated: 1
EndChar

StartChar: r
Encoding: 114 114 18
Width: 387
VWidth: -3
Flags: W
HStem: -17 21G<73 93> 298 87<237.158 297.383> 353 20G<155.5 181>
VStem: 73 99<12.8398 267.738>
LayerCount: 2
Back
Fore
SplineSet
370 345 m 0,0,1
 370 329 370 329 353 297.5 c 128,-1,2
 336 266 336 266 323 266 c 0,3,4
 307 266 307 266 290.5 282 c 128,-1,5
 274 298 274 298 257 298 c 0,6,7
 254 298 254 298 250.5 297.5 c 128,-1,8
 247 297 247 297 242.5 295 c 128,-1,9
 238 293 238 293 234.5 291.5 c 128,-1,10
 231 290 231 290 225 287 c 128,-1,11
 219 284 219 284 215.5 282 c 128,-1,12
 212 280 212 280 205.5 275.5 c 128,-1,13
 199 271 199 271 195.5 268.5 c 128,-1,14
 192 266 192 266 184 260.5 c 128,-1,15
 176 255 176 255 172 253 c 1,16,-1
 172 46 l 2,17,18
 172 26 172 26 138 5 c 128,-1,19
 104 -16 104 -16 82 -17 c 2,20,-1
 73 -17 l 1,21,-1
 73 272 l 2,22,23
 73 290 73 290 64.5 300.5 c 128,-1,24
 56 311 56 311 46 314.5 c 128,-1,25
 36 318 36 318 27.5 325.5 c 128,-1,26
 19 333 19 333 19 347 c 128,-1,27
 19 361 19 361 79.5 367 c 128,-1,28
 140 373 140 373 171 373 c 2,29,-1
 181 373 l 1,30,-1
 179 365 l 2,31,32
 178 346 178 346 175 328 c 1,33,34
 194 337 194 337 219 352 c 128,-1,35
 244 367 244 367 260 376 c 128,-1,36
 276 385 276 385 281 385 c 0,37,38
 297 385 297 385 333.5 372 c 128,-1,39
 370 359 370 359 370 345 c 0,0,1
EndSplineSet
Validated: 1
EndChar

StartChar: s
Encoding: 115 115 19
Width: 366
VWidth: -4
Flags: W
HStem: -12 63<145.802 237.923> 173 85<143.047 230.31> 340 45<143.681 285>
VStem: 39 97<244 330.036> 253 87<80.9471 181.5>
LayerCount: 2
Back
Fore
SplineSet
89 135 m 5,0,1
 92 132 92 132 100.5 120.5 c 128,-1,2
 109 109 109 109 112 105.5 c 128,-1,3
 115 102 115 102 122.5 93 c 128,-1,4
 130 84 130 84 134 81 c 128,-1,5
 138 78 138 78 145 71.5 c 128,-1,6
 152 65 152 65 157.5 62.5 c 128,-1,7
 163 60 163 60 170.5 56.5 c 128,-1,8
 178 53 178 53 186 52 c 128,-1,9
 194 51 194 51 203 51 c 0,10,11
 224 51 224 51 238.5 68 c 128,-1,12
 253 85 253 85 253 107 c 0,13,14
 253 138 253 138 231 153.5 c 128,-1,15
 209 169 209 169 177.5 173 c 128,-1,16
 146 177 146 177 114.5 182 c 128,-1,17
 83 187 83 187 61 206 c 128,-1,18
 39 225 39 225 39 263 c 0,19,20
 39 385 39 385 245 385 c 0,21,22
 325 385 325 385 325 335 c 0,23,24
 325 313 325 313 309.5 297 c 128,-1,25
 294 281 294 281 272 281 c 0,26,27
 253 281 253 281 241 290 c 128,-1,28
 229 299 229 299 224 310.5 c 128,-1,29
 219 322 219 322 210.5 331 c 128,-1,30
 202 340 202 340 189 340 c 0,31,32
 168 340 168 340 152 328 c 128,-1,33
 136 316 136 316 136 298 c 128,-1,34
 136 280 136 280 157 271 c 128,-1,35
 178 262 178 262 208 258 c 128,-1,36
 238 254 238 254 268 247 c 128,-1,37
 298 240 298 240 319 219.5 c 128,-1,38
 340 199 340 199 340 164 c 0,39,40
 340 88 340 88 280 38 c 128,-1,41
 220 -12 220 -12 153 -12 c 0,42,43
 36 -12 36 -12 36 65 c 0,44,45
 36 116 36 116 89 135 c 5,0,1
EndSplineSet
Validated: 1
EndChar

StartChar: t
Encoding: 116 116 20
Width: 369
VWidth: -6
Flags: W
HStem: -22 80<181.181 281.238> 311 66<170 324.145>
VStem: 72 98<70.3047 304>
LayerCount: 2
Back
Fore
SplineSet
307 311 m 1,0,-1
 305 311 l 2,1,2
 294 311 294 311 235 307.5 c 128,-1,3
 176 304 176 304 170 304 c 1,4,-1
 170 114 l 2,5,6
 170 58 170 58 249 58 c 0,7,8
 272 58 272 58 291 65.5 c 128,-1,9
 310 73 310 73 318 73 c 0,10,11
 351 73 351 73 351 51 c 0,12,13
 351 35 351 35 294.5 6.5 c 128,-1,14
 238 -22 238 -22 196 -22 c 0,15,16
 157 -22 157 -22 114.5 7 c 128,-1,17
 72 36 72 36 72 68 c 2,18,-1
 72 295 l 2,19,20
 71 296 71 296 60 303 c 128,-1,21
 49 310 49 310 38.5 319.5 c 128,-1,22
 28 329 28 329 28 337 c 0,23,24
 28 350 28 350 86 393 c 128,-1,25
 144 436 144 436 156 436 c 0,26,27
 170 436 170 436 170 374 c 1,28,29
 236 377 236 377 308 377 c 0,30,31
 326 377 326 377 326 353 c 0,32,33
 326 316 326 316 307 311 c 1,0,-1
EndSplineSet
Validated: 1
EndChar

StartChar: j
Encoding: 106 106 21
Width: 288
VWidth: 1
Flags: W
HStem: -176 53<57.1875 119.929>
VStem: -6 42<-113 -61> 132 96<-114.803 321.833>
LayerCount: 2
Back
Fore
SplineSet
153 453 m 0,0,1
 153 472 153 472 178.5 513 c 128,-1,2
 204 554 204 554 223 554 c 0,3,4
 243 554 243 554 259.5 543.5 c 128,-1,5
 276 533 276 533 276 512 c 0,6,7
 276 488 276 488 241 457 c 128,-1,8
 206 426 206 426 180 426 c 0,9,10
 168 426 168 426 160.5 434 c 128,-1,11
 153 442 153 442 153 453 c 0,0,1
36 -61 m 6,12,13
 36 -62 36 -62 39 -68.5 c 128,-1,14
 42 -75 42 -75 45 -81 c 128,-1,15
 48 -87 48 -87 53 -95 c 128,-1,16
 58 -103 58 -103 63 -109 c 128,-1,17
 68 -115 68 -115 74.5 -119 c 128,-1,18
 81 -123 81 -123 88 -123 c 0,19,20
 132 -123 132 -123 132 -30 c 2,21,-1
 131 282 l 2,22,23
 131 299 131 299 111 320.5 c 128,-1,24
 91 342 91 342 91 353 c 0,25,26
 92 369 92 369 141.5 383 c 128,-1,27
 191 397 191 397 227 400 c 1,28,-1
 228 -42 l 2,29,30
 228 -113 228 -113 193 -144.5 c 128,-1,31
 158 -176 158 -176 117 -176 c 0,32,33
 64 -176 64 -176 29 -160.5 c 128,-1,34
 -6 -145 -6 -145 -6 -113 c 0,35,36
 -6 -98 -6 -98 3 -85.5 c 128,-1,37
 12 -73 12 -73 20 -68.5 c 128,-1,38
 28 -64 28 -64 30 -64 c 2,39,-1
 36 -61 l 6,12,13
EndSplineSet
Validated: 1
EndChar

StartChar: k
Encoding: 107 107 22
Width: 510
VWidth: -14
Flags: W
HStem: -26 70<378.078 446.35>
VStem: 68 94<-12.6875 169.897 236 568.344>
DStem2: 354.5 146 280 75.5 0.523517 -0.852015<-58.8244 125.721>
LayerCount: 2
Back
Fore
SplineSet
162 14 m 2,0,1
 162 -3 162 -3 133 -16 c 128,-1,2
 104 -29 104 -29 76 -29 c 2,3,-1
 68 -29 l 1,4,-1
 68 550 l 2,5,6
 68 554 68 554 47 567.5 c 128,-1,7
 26 581 26 581 26 595 c 0,8,9
 28 612 28 612 78.5 627 c 128,-1,10
 129 642 129 642 162 644 c 1,11,-1
 162 236 l 1,12,13
 403 367 403 367 437 367 c 0,14,15
 451 367 451 367 460 356.5 c 128,-1,16
 469 346 469 346 470.5 335 c 2,17,-1
 472 324 l 1,18,-1
 472 319 l 1,19,-1
 290 221 l 1,20,21
 325 191 325 191 354.5 146 c 128,-1,22
 384 101 384 101 401 72.5 c 128,-1,23
 418 44 418 44 429 44 c 0,24,25
 438 44 438 44 444 60.5 c 128,-1,26
 450 77 450 77 467 77 c 0,27,28
 489 77 489 77 489 40 c 0,29,30
 489 16 489 16 449.5 -5 c 128,-1,31
 410 -26 410 -26 376 -26 c 0,32,33
 351 -26 351 -26 324.5 5.5 c 128,-1,34
 298 37 298 37 280 75.5 c 128,-1,35
 262 114 262 114 239 145.5 c 128,-1,36
 216 177 216 177 196 177 c 0,37,38
 180 177 180 177 162 122 c 1,39,-1
 162 14 l 2,0,1
EndSplineSet
Validated: 1
EndChar

StartChar: P
Encoding: 80 80 23
Width: 641
VWidth: -14
Flags: W
HStem: -19 56<36.736 150.516 286.122 530.227> -6.5 49.5<280.715 510.544> 3 50<278 427.547> 148 56<348.54 489.594> 560 44<31.1572 116.069> 571 6<223 362>
VStem: 145.5 132.5<294.254 533.606> 158 120<53 180 252.929 525.962> 531 102<310.407 490.39>
DStem2: 309 247 301 169.5 0.920269 -0.391286<-2.09938 129.973>
LayerCount: 2
Back
Fore
SplineSet
362 571 m 0,0,1
 322 571 322 571 278 527 c 1,2,-1
 278 270 l 1,3,4
 290 260 290 260 309 247 c 128,-1,5
 328 234 328 234 366.5 219 c 128,-1,6
 405 204 405 204 439 204 c 0,7,8
 531 204 531 204 531 409 c 0,9,10
 531 477 531 477 481.5 524 c 128,-1,11
 432 571 432 571 362 571 c 0,0,1
29 3 m 0,12,13
 29 15 29 15 36.5 26 c 128,-1,14
 44 37 44 37 58 37 c 0,15,16
 136 37 136 37 151 55 c 1,17,18
 158 78 158 78 158 293 c 0,19,20
 158 333 158 333 154 389 c 128,-1,21
 150 445 150 445 145.5 481.5 c 2,22,-1
 141 518 l 2,23,24
 140 528 140 528 104.5 544 c 128,-1,25
 69 560 69 560 40 560 c 0,26,27
 26 560 26 560 26 580 c 0,28,29
 26 589 26 589 31 596.5 c 128,-1,30
 36 604 36 604 45 604 c 0,31,32
 94 604 94 604 134 590.5 c 128,-1,33
 174 577 174 577 223 577 c 0,34,35
 240 577 240 577 257 588.5 c 128,-1,36
 274 600 274 600 287 614.5 c 128,-1,37
 300 629 300 629 327 640.5 c 128,-1,38
 354 652 354 652 391 652 c 0,39,40
 490 652 490 652 561.5 578.5 c 128,-1,41
 633 505 633 505 633 404 c 0,42,43
 633 352 633 352 602 292.5 c 128,-1,44
 571 233 571 233 520 190.5 c 128,-1,45
 469 148 469 148 418 148 c 0,46,47
 378 148 378 148 349.5 154 c 128,-1,48
 321 160 321 160 301 169.5 c 128,-1,49
 281 179 281 179 278 180 c 2,50,-1
 278 53 l 1,51,52
 365 52 365 52 436.5 43 c 128,-1,53
 508 34 508 34 511 34 c 0,54,55
 520 34 520 34 525.5 26.5 c 128,-1,56
 531 19 531 19 531 10 c 128,-1,57
 531 1 531 1 525.5 -7.5 c 128,-1,58
 520 -16 520 -16 511 -16 c 0,59,60
 497 -16 497 -16 406 -6.5 c 128,-1,61
 315 3 315 3 207 3 c 0,62,63
 153 3 153 3 115.5 -8 c 128,-1,64
 78 -19 78 -19 50 -19 c 0,65,66
 41 -19 41 -19 35 -12.5 c 128,-1,67
 29 -6 29 -6 29 3 c 0,12,13
EndSplineSet
Validated: 1
EndChar

StartChar: period
Encoding: 46 46 24
Width: 256
VWidth: 9
Flags: W
HStem: -20 149<84.0273 159.688>
VStem: 44 164<23.1549 87.2397>
LayerCount: 2
Back
Fore
SplineSet
127 -20 m 4,0,1
 110 -20 110 -20 77 7.5 c 128,-1,2
 44 35 44 35 44 54 c 0,3,4
 44 70 44 70 73 99.5 c 128,-1,5
 102 129 102 129 119 129 c 0,6,7
 130 129 130 129 169 100.5 c 128,-1,8
 208 72 208 72 208 60 c 0,9,10
 208 45 208 45 175.5 12.5 c 128,-1,11
 143 -20 143 -20 127 -20 c 4,0,1
EndSplineSet
Validated: 1
EndChar

StartChar: comma
Encoding: 44 44 25
Width: 261
VWidth: 13
Flags: W
HStem: -104 64.5<99.8599 160.145> -18 21G<85.5 99>
VStem: 161 58<-37.53 9.71863>
LayerCount: 2
Back
Fore
SplineSet
133 150 m 0,0,1
 142 150 142 150 159 123.5 c 128,-1,2
 176 97 176 97 189 70 c 2,3,-1
 202 43 l 1,4,5
 219 24 219 24 219 -19 c 0,6,7
 219 -53 219 -53 198 -78.5 c 128,-1,8
 177 -104 177 -104 137 -104 c 0,9,10
 119 -104 119 -104 103.5 -94.5 c 128,-1,11
 88 -85 88 -85 88 -73 c 0,12,13
 88 -56 88 -56 99.5 -48 c 128,-1,14
 111 -40 111 -40 124.5 -39.5 c 128,-1,15
 138 -39 138 -39 149.5 -34 c 128,-1,16
 161 -29 161 -29 161 -19 c 0,17,18
 161 -4 161 -4 152 10 c 1,19,20
 139 9 139 9 121 -4.5 c 128,-1,21
 103 -18 103 -18 95 -18 c 0,22,23
 76 -18 76 -18 51.5 27 c 128,-1,24
 27 72 27 72 27 93 c 0,25,26
 27 111 27 111 69.5 130.5 c 128,-1,27
 112 150 112 150 133 150 c 0,0,1
EndSplineSet
Validated: 1
EndChar

StartChar: u
Encoding: 117 117 26
Width: 499
VWidth: -4
Flags: W
HStem: -15 78<169 289.932>
VStem: 61 93<103.139 332.801> 346 87<137.552 333.937>
LayerCount: 2
Back
Fore
SplineSet
191 386 m 1,0,1
 154 302 154 302 154 221 c 0,2,3
 154 134 154 134 179 98.5 c 128,-1,4
 204 63 204 63 263 63 c 0,5,6
 299 63 299 63 322 115 c 128,-1,7
 345 167 345 167 346 265 c 0,8,9
 346 298 346 298 337 316.5 c 128,-1,10
 328 335 328 335 317.5 338.5 c 128,-1,11
 307 342 307 342 298 346.5 c 128,-1,12
 289 351 289 351 289 360 c 0,13,14
 289 384 289 384 421 384 c 0,15,16
 437 384 437 384 437 311 c 0,17,18
 437 288 437 288 436.5 265 c 128,-1,19
 436 242 436 242 435 224.5 c 128,-1,20
 434 207 434 207 433 191.5 c 128,-1,21
 432 176 432 176 431.5 165 c 128,-1,22
 431 154 431 154 430 146 c 128,-1,23
 429 138 429 138 428.5 134 c 2,24,-1
 428 130 l 2,25,26
 428 102 428 102 441 85.5 c 128,-1,27
 454 69 454 69 467.5 59.5 c 128,-1,28
 481 50 481 50 481 39 c 0,29,30
 481 27 481 27 463 5.5 c 128,-1,31
 445 -16 445 -16 429 -16 c 0,32,33
 412 -16 412 -16 382 -2 c 128,-1,34
 352 12 352 12 337 41 c 1,35,36
 302 11 302 11 271 -2 c 128,-1,37
 240 -15 240 -15 187 -15 c 0,38,39
 151 -15 151 -15 125 3 c 128,-1,40
 99 21 99 21 86 51.5 c 128,-1,41
 73 82 73 82 67 114.5 c 128,-1,42
 61 147 61 147 61 185 c 0,43,44
 61 222 61 222 67 274.5 c 128,-1,45
 73 327 73 327 73 333 c 1,46,47
 40 342 40 342 40 359 c 0,48,49
 40 373 40 373 93 379.5 c 128,-1,50
 146 386 146 386 181 386 c 2,51,-1
 191 386 l 1,0,1
EndSplineSet
Validated: 1
EndChar

StartChar: v
Encoding: 118 118 27
Width: 408
VWidth: -3
Flags: W
HStem: 335 55<32.0189 53.8632>
VStem: 348 57<203.377 377.195>
LayerCount: 2
Back
Fore
SplineSet
245 -26 m 1,0,1
 196 19 196 19 158 86.5 c 128,-1,2
 120 154 120 154 102 206.5 c 128,-1,3
 84 259 84 259 63.5 297 c 128,-1,4
 43 335 43 335 22 335 c 2,5,-1
 15 335 l 1,6,-1
 15 342 l 2,7,8
 15 365 15 365 31.5 377.5 c 128,-1,9
 48 390 48 390 78 390 c 0,10,11
 114 390 114 390 143 353.5 c 128,-1,12
 172 317 172 317 188.5 271.5 c 128,-1,13
 205 226 205 226 227.5 174.5 c 128,-1,14
 250 123 250 123 270 102 c 1,15,16
 348 196 348 196 348 310 c 0,17,18
 348 314 348 314 339 333.5 c 128,-1,19
 330 353 330 353 330 365 c 2,20,-1
 330 370 l 1,21,22
 364 386 364 386 384 386 c 0,23,24
 405 386 405 386 405 354 c 0,25,26
 405 247 405 247 365 156 c 128,-1,27
 325 65 325 65 245 -26 c 1,0,1
EndSplineSet
Validated: 1
EndChar

StartChar: w
Encoding: 119 119 28
Width: 639
VWidth: -3
Flags: W
HStem: 335 55<27.6753 58>
VStem: 547 89<323.265 377.483>
DStem2: 428.5 269 335 226 0.447999 -0.894034<-135.892 18.588 70.7957 188.53>
LayerCount: 2
Back
Fore
SplineSet
243 -26 m 5,0,1
 197 19 197 19 160 86.5 c 128,-1,2
 123 154 123 154 105.5 206 c 128,-1,3
 88 258 88 258 68 296.5 c 128,-1,4
 48 335 48 335 28 335 c 2,5,-1
 21 335 l 1,6,-1
 21 342 l 2,7,8
 21 390 21 390 83 390 c 0,9,10
 118 390 118 390 146 353.5 c 128,-1,11
 174 317 174 317 189.5 271.5 c 128,-1,12
 205 226 205 226 226 174.5 c 128,-1,13
 247 123 247 123 266 102 c 1,14,15
 317 162 317 162 335 226 c 1,16,17
 318 262 318 262 308 273 c 0,18,19
 303 280 303 280 279.5 301 c 128,-1,20
 256 322 256 322 256 342 c 0,21,22
 256 388 256 388 317 388 c 0,23,24
 352 388 352 388 382 351.5 c 128,-1,25
 412 315 412 315 428.5 269 c 128,-1,26
 445 223 445 223 467 170.5 c 128,-1,27
 489 118 489 118 508 97 c 1,28,29
 556 183 556 183 576 311 c 1,30,31
 557 340 557 340 547 370 c 1,32,33
 576 383 576 383 614 383 c 0,34,35
 636 383 636 383 636 352 c 2,36,-1
 636 350 l 1,37,38
 612 228 612 228 562.5 102 c 128,-1,39
 513 -24 513 -24 477 -24 c 0,40,41
 471 -24 471 -24 464 -18.5 c 128,-1,42
 457 -13 457 -13 449 -1.5 c 128,-1,43
 441 10 441 10 434 22 c 128,-1,44
 427 34 427 34 418 53.5 c 128,-1,45
 409 73 409 73 403 87 c 128,-1,46
 397 101 397 101 386.5 125 c 128,-1,47
 376 149 376 149 371 161 c 1,48,49
 365 143 365 143 357 126.5 c 128,-1,50
 349 110 349 110 332.5 87.5 c 128,-1,51
 316 65 316 65 309 55.5 c 128,-1,52
 302 46 302 46 275.5 13.5 c 128,-1,53
 249 -19 249 -19 243 -26 c 5,0,1
EndSplineSet
Validated: 1
EndChar

StartChar: y
Encoding: 121 121 29
Width: 408
VWidth: 8
Flags: W
HStem: 345 53<34.0853 60.4782>
VStem: 331 74<258.928 383.04>
DStem2: 142.5 -35 202 -67 0.532423 0.846479<-2.41382 99.4309 215.267 385.66>
LayerCount: 2
Back
Fore
SplineSet
90 -100 m 5,0,1
 105 -80 105 -80 120.5 -61.5 c 128,-1,2
 136 -43 136 -43 142.5 -35 c 128,-1,3
 149 -27 149 -27 161 -11 c 128,-1,4
 173 5 173 5 190 30 c 1,5,6
 119.548899661 223.460958073 119.548899661 223.460958073 95.5967078189 270.185185185 c 0,7,8
 57.553377295 344.397400385 57.553377295 344.397400385 22 345 c 2,9,-1
 15 345 l 1,10,-1
 15 354 l 2,11,12
 15 378 15 378 33.5 388 c 128,-1,13
 52 398 52 398 100 398 c 0,14,15
 186 398 186 398 267 141 c 1,16,17
 331 256 331 256 331 326 c 0,18,19
 331 369 331 369 342 383.5 c 128,-1,20
 353 398 353 398 376 398 c 0,21,22
 388 398 388 398 396.5 387 c 128,-1,23
 405 376 405 376 405 365 c 0,24,25
 405 316 405 316 378.5 246 c 128,-1,26
 352 176 352 176 310.5 105.5 c 128,-1,27
 269 35 269 35 245.5 -1.5 c 128,-1,28
 222 -38 222 -38 202 -67 c 1,29,30
 206 -73 206 -73 214 -81.5 c 128,-1,31
 222 -90 222 -90 228.5 -95.5 c 2,32,-1
 235 -101 l 1,33,-1
 240 -105 l 1,34,-1
 237 -112 l 1,35,36
 201 -176 201 -176 182 -176 c 0,37,38
 165 -176 165 -176 142.5 -158 c 128,-1,39
 120 -140 120 -140 106 -122 c 2,40,-1
 92 -104 l 1,41,-1
 90 -100 l 5,0,1
EndSplineSet
Validated: 1
EndChar

StartChar: x
Encoding: 120 120 30
Width: 498
VWidth: -4
Flags: W
HStem: -15 70<359.129 433.794> -10 114<52.7338 117.513> 288 103<396.352 457.127>
DStem2: 131 56 178 24 0.5547 0.83205<0 108.999 241.572 363.655> 265 257 131.5 264 0.574282 -0.818657<-141.494 0 101.318 220.069>
LayerCount: 2
Back
Fore
SplineSet
453 82 m 1,0,1
 464 79 464 79 472 70 c 128,-1,2
 480 61 480 61 480 52 c 0,3,4
 480 40 480 40 441.5 12.5 c 128,-1,5
 403 -15 403 -15 383 -15 c 0,6,7
 336 -15 336 -15 314 12 c 0,8,9
 266 68 266 68 239 115 c 1,10,11
 237 111 237 111 231.816812058 103.719270381 c 0,12,13
 212 73 212 73 202 58 c 128,-1,14
 192 43 192 43 178 24 c 128,-1,15
 164 5 164 5 153.5 -2.5 c 128,-1,16
 143 -10 143 -10 133 -10 c 0,17,18
 101 -10 101 -10 78.5 -2 c 128,-1,19
 56 6 56 6 47 18.5 c 128,-1,20
 38 31 38 31 34.5 40 c 128,-1,21
 31 49 31 49 31 56 c 128,-1,22
 31 63 31 63 33.5 72 c 128,-1,23
 36 81 36 81 46.5 92.5 c 128,-1,24
 57 104 57 104 75 104 c 0,25,26
 86 104 86 104 94.5 101.5 c 128,-1,27
 103 99 103 99 109 91.5 c 128,-1,28
 115 84 115 84 118 81 c 128,-1,29
 121 78 121 78 126 67 c 2,30,-1
 131 56 l 1,31,32
 141 71 141 71 156 94 c 128,-1,33
 171 117 171 117 182.5 135 c 128,-1,34
 194 153 194 153 204 167 c 1,35,36
 200 173 200 173 188 190.5 c 128,-1,37
 176 208 176 208 172.5 212.5 c 128,-1,38
 169 217 169 217 159 231 c 128,-1,39
 149 245 149 245 145 249 c 128,-1,40
 141 253 141 253 131.5 264 c 128,-1,41
 122 275 122 275 116 279.5 c 128,-1,42
 110 284 110 284 99.5 292.5 c 128,-1,43
 89 301 89 301 80 306 c 128,-1,44
 71 311 71 311 59 317 c 128,-1,45
 47 323 47 323 34 328 c 1,46,-1
 34 334 l 2,47,48
 34 389 34 389 94 389 c 0,49,50
 162 389 162 389 265 257 c 1,51,52
 313 333 313 333 342.5 362 c 128,-1,53
 372 391 372 391 410 391 c 0,54,55
 431 391 431 391 450.5 375 c 128,-1,56
 470 359 470 359 470 337 c 0,57,58
 470 317 470 317 454.5 302.5 c 128,-1,59
 439 288 439 288 419 288 c 0,60,61
 401 288 401 288 393 321 c 1,62,63
 346 269 346 269 300 202 c 1,64,65
 322 161 322 161 346 125.5 c 128,-1,66
 370 90 370 90 386.5 72.5 c 128,-1,67
 403 55 403 55 408 55 c 0,68,69
 417 55 417 55 432 62.5 c 128,-1,70
 447 70 447 70 453 82 c 1,0,1
EndSplineSet
Validated: 1
EndChar

StartChar: z
Encoding: 122 122 31
Width: 452
VWidth: 0
Flags: W
HStem: -10 21G<30 140> 13 60<161.509 389.571> 314 60<60.9665 203.368> 326 35<306 377.166>
VStem: 388 34<-34.3953 -6.00801>
LayerCount: 2
Back
Fore
SplineSet
30 285 m 1,0,1
 30 308 30 308 52.5 341 c 128,-1,2
 75 374 75 374 96 374 c 0,3,4
 144 374 144 374 228.5 350 c 128,-1,5
 313 326 313 326 320 326 c 0,6,7
 339 326 339 326 351 343.5 c 128,-1,8
 363 361 363 361 371 361 c 0,9,10
 380 361 380 361 382.5 359 c 128,-1,11
 385 357 385 357 385 348 c 0,12,13
 385 340 385 340 328.5 271 c 128,-1,14
 272 202 272 202 215.5 137.5 c 2,15,-1
 159 73 l 1,16,17
 232 73 232 73 284 71 c 128,-1,18
 336 69 336 69 362.5 66.5 c 128,-1,19
 389 64 389 64 403 59.5 c 128,-1,20
 417 55 417 55 419.5 52 c 128,-1,21
 422 49 422 49 422 44 c 0,22,23
 422 -39 422 -39 393 -39 c 0,24,25
 388 -39 388 -39 388 -26 c 2,26,-1
 391 -6 l 1,27,28
 230 13 230 13 180 13 c 0,29,30
 152 13 152 13 114.5 7.5 c 128,-1,31
 77 2 77 2 53.5 -4 c 2,32,-1
 30 -10 l 1,33,-1
 285 272 l 1,34,35
 243 280 243 280 206 291.5 c 128,-1,36
 169 303 169 303 142.5 308.5 c 128,-1,37
 116 314 116 314 75 314 c 0,38,39
 64 314 64 314 53 307 c 128,-1,40
 42 300 42 300 36 292.5 c 2,41,-1
 30 285 l 1,0,1
EndSplineSet
Validated: 1
EndChar

StartChar: z
Encoding: 122 122 32
Width: 481
VWidth: -2
Flags: W
HStem: -15 91<207.744 416.852> 4 77<204 377.142> 318 79<81.3049 227.951>
VStem: 417 48<-44.8364 -15>
DStem2: 305 277 204 81 0.667545 0.744569<-213.358 0 86.4594 144.353>
LayerCount: 2
Back
Fore
SplineSet
407 382 m 7,0,1
 416 382 416 382 422 376 c 128,-1,2
 428 370 428 370 428 361 c 0,3,4
 428 349 428 349 372 279 c 128,-1,5
 316 209 316 209 260 145 c 2,6,-1
 204 81 l 1,7,8
 320 81 320 81 379 76 c 128,-1,9
 438 71 438 71 451.5 64 c 128,-1,10
 465 57 465 57 465 44 c 0,11,12
 465 -50 465 -50 428 -50 c 0,13,14
 417 -50 417 -50 417 -29 c 0,15,16
 417 -19 417 -19 418 -15 c 1,17,18
 261 4 261 4 206 4 c 0,19,20
 177 4 177 4 139.5 -2 c 128,-1,21
 102 -8 102 -8 79 -14 c 2,22,-1
 56 -20 l 1,23,-1
 30 -27 l 1,24,-1
 48 -7 l 2,25,26
 161 119 161 119 305 277 c 1,27,28
 265 285 265 285 227 296.5 c 128,-1,29
 189 308 189 308 163.5 313 c 128,-1,30
 138 318 138 318 98 318 c 0,31,32
 90 318 90 318 80 311 c 128,-1,33
 70 304 70 304 64.5 297.5 c 2,34,-1
 59 291 l 1,35,-1
 46 271 l 1,36,-1
 46 296 l 2,37,38
 46 322 46 322 70 359.5 c 128,-1,39
 94 397 94 397 119 397 c 0,40,41
 170 397 170 397 260.5 372 c 128,-1,42
 351 347 351 347 356 347 c 0,43,44
 370 347 370 347 381 364.5 c 128,-1,45
 392 382 392 382 407 382 c 7,0,1
EndSplineSet
Validated: 1
EndChar

StartChar: quotesingle
Encoding: 39 39 33
Width: 172
VWidth: 41
Flags: W
HStem: 380 314<61.5833 85.4974>
VStem: 33 111<480.465 655.255>
LayerCount: 2
Back
Fore
SplineSet
33 394 m 6,0,1
 33 694 33 694 86 694 c 0,2,3
 144 694 144 694 144 645 c 0,4,5
 144 623 144 623 139.5 585.5 c 128,-1,6
 135 548 135 548 125.5 498.5 c 128,-1,7
 116 449 116 449 94.5 414.5 c 128,-1,8
 73 380 73 380 45 380 c 2,9,-1
 33 380 l 1,10,-1
 33 394 l 6,0,1
EndSplineSet
Validated: 1
EndChar

StartChar: quotedbl
Encoding: 34 34 34
Width: 339
VWidth: 41
Flags: W
HStem: 377 316<61.8491 88.8624 225.849 253.18>
VStem: 47 99<477.512 682.668> 211 100<477.512 682.668>
LayerCount: 2
Back
Fore
SplineSet
201 391 m 2,0,1
 201 533 201 533 211 613 c 128,-1,2
 221 693 221 693 253 693 c 0,3,4
 311 693 311 693 311 643 c 0,5,6
 311 621 311 621 306.5 583 c 128,-1,7
 302 545 302 545 292.5 495.5 c 128,-1,8
 283 446 283 446 262 411.5 c 128,-1,9
 241 377 241 377 213 377 c 2,10,-1
 201 377 l 1,11,-1
 201 391 l 2,0,1
37 391 m 2,12,13
 37 533 37 533 47 613 c 128,-1,14
 57 693 57 693 89 693 c 0,15,16
 146 693 146 693 146 643 c 0,17,18
 146 621 146 621 141.5 583 c 128,-1,19
 137 545 137 545 127.5 495.5 c 128,-1,20
 118 446 118 446 97.5 411.5 c 128,-1,21
 77 377 77 377 49 377 c 2,22,-1
 37 377 l 1,23,-1
 37 391 l 2,12,13
EndSplineSet
Validated: 1
EndChar

StartChar: A
Encoding: 65 65 35
Width: 670
VWidth: -15
Flags: W
HStem: -9 41<398.562 470.191> -2 59.5<40.4351 81.6858 158 242.409 569.677 630.56> 287 76<318.88 404> 562 69<260 365> 573 71<76.3228 194 464 530.375>
VStem: 82 76<59 184.49>
DStem2: 99.5 162 191 248 0.223049 0.974807<-84.9273 114.449 205.878 422.798>
LayerCount: 2
Back
Fore
SplineSet
214 347 m 5,0,-1
 404 363 l 1,1,-1
 365 562 l 1,2,-1
 260 559 l 1,3,-1
 214 347 l 5,0,-1
61 644 m 6,4,5
 114 644 114 644 189.5 637.5 c 128,-1,6
 265 631 265 631 320 631 c 0,7,8
 358 631 358 631 397 637.5 c 128,-1,9
 436 644 436 644 476 644 c 0,10,11
 534 644 534 644 534 611 c 0,12,13
 534 600 534 600 529 592.5 c 128,-1,14
 524 585 524 585 515 581.5 c 128,-1,15
 506 578 506 578 498.5 576.5 c 128,-1,16
 491 575 491 575 479 574 c 128,-1,17
 467 573 467 573 464 573 c 1,18,19
 464 539 464 539 517 329.5 c 128,-1,20
 570 120 570 120 570 70 c 0,21,22
 570 52 570 52 625 52 c 0,23,24
 638 52 638 52 644 40 c 128,-1,25
 650 28 650 28 650 16 c 0,26,27
 650 -9 650 -9 631 -9 c 0,28,29
 617 -9 617 -9 593.5 -5 c 128,-1,30
 570 -1 570 -1 519 -1 c 0,31,32
 502 -1 502 -1 471 -5 c 128,-1,33
 440 -9 440 -9 420 -9 c 0,34,35
 411 -9 411 -9 404.5 -0.5 c 128,-1,36
 398 8 398 8 398 16 c 0,37,38
 398 32 398 32 414 32 c 0,39,40
 421 32 421 32 477 55 c 1,41,-1
 424 287 l 1,42,43
 343 282 343 282 191 248 c 1,44,45
 160 138 160 138 158 59 c 1,46,47
 161 59 161 59 183.5 57.5 c 128,-1,48
 206 56 206 56 223 56 c 0,49,50
 243 56 243 56 243 26 c 0,51,52
 243 0 243 0 224 0 c 0,53,54
 208 0 208 0 196.5 -1 c 128,-1,55
 185 -2 185 -2 168 -2 c 0,56,57
 153 -2 153 -2 115.5 -4.5 c 128,-1,58
 78 -7 78 -7 62 -7 c 0,59,60
 40 -7 40 -7 40 29 c 0,61,62
 40 55 40 55 55 55 c 0,63,64
 72 55 72 55 82 60 c 1,65,66
 83 82 83 82 99.5 162 c 128,-1,67
 116 242 116 242 134.5 321.5 c 128,-1,68
 153 401 153 401 172.5 484.5 c 128,-1,69
 192 568 192 568 194 575 c 1,70,71
 190 576 190 576 138 578.5 c 128,-1,72
 86 581 86 581 76 589 c 0,73,74
 65 598 65 598 58.5 616 c 128,-1,75
 52 634 52 634 52 644 c 1,76,-1
 61 644 l 6,4,5
EndSplineSet
Validated: 1
EndChar

StartChar: B
Encoding: 66 66 36
Width: 636
VWidth: -15
Flags: W
HStem: -24 49<73.2822 145.935 283.515 444.599> 558 45<43.1099 132.699> 579 72<282.017 402.493>
VStem: 148 106<54.0055 539.062> 441 110<406.996 539.02> 488 113<65.3979 228.328>
LayerCount: 2
Back
Fore
SplineSet
335 579 m 0,0,1
 302 579 302 579 278 552.5 c 128,-1,2
 254 526 254 526 254 481 c 2,3,-1
 254 126 l 2,4,5
 255 72 255 72 282 48.5 c 128,-1,6
 309 25 309 25 388 25 c 0,7,8
 416 25 416 25 452 52.5 c 128,-1,9
 488 80 488 80 488 122 c 0,10,11
 488 170 488 170 477 203 c 128,-1,12
 466 236 466 236 445 254 c 128,-1,13
 424 272 424 272 404 282.5 c 128,-1,14
 384 293 384 293 355.5 305 c 128,-1,15
 327 317 327 317 311 328 c 2,16,-1
 295 338 l 1,17,-1
 312 343 l 2,18,19
 441 384 441 384 441 469 c 0,20,21
 441 513 441 513 414 546 c 128,-1,22
 387 579 387 579 335 579 c 0,0,1
409 -24 m 0,23,24
 337 -24 337 -24 290.5 -11.5 c 128,-1,25
 244 1 244 1 207 1 c 0,26,27
 204 1 204 1 186 -4.5 c 128,-1,28
 168 -10 168 -10 140 -15 c 128,-1,29
 112 -20 112 -20 84 -20 c 0,30,31
 64 -20 64 -20 64 1 c 0,32,33
 64 14 64 14 73 22 c 128,-1,34
 82 30 82 30 95 30 c 0,35,36
 120 30 120 30 132 33.5 c 128,-1,37
 144 37 144 37 146 40 c 128,-1,38
 148 43 148 43 148 50 c 2,39,-1
 148 519 l 2,40,41
 146 530 146 530 117.5 544 c 128,-1,42
 89 558 89 558 60 558 c 0,43,44
 52 558 52 558 47.5 564.5 c 128,-1,45
 43 571 43 571 43 578 c 0,46,47
 43 587 43 587 48.5 595 c 128,-1,48
 54 603 54 603 63 603 c 0,49,50
 104 603 104 603 131 589.5 c 128,-1,51
 158 576 158 576 197 576 c 0,52,53
 214 576 214 576 231 587.5 c 128,-1,54
 248 599 248 599 261 613.5 c 128,-1,55
 274 628 274 628 301.5 639.5 c 128,-1,56
 329 651 329 651 366 651 c 0,57,58
 446 651 446 651 498.5 602 c 128,-1,59
 551 553 551 553 551 483 c 0,60,61
 551 431 551 431 524.5 389.5 c 128,-1,62
 498 348 498 348 449 331 c 1,63,64
 455 328 455 328 480.5 316.5 c 128,-1,65
 506 305 506 305 516.5 299 c 128,-1,66
 527 293 527 293 547 278.5 c 128,-1,67
 567 264 567 264 576 249 c 128,-1,68
 585 234 585 234 593 209.5 c 128,-1,69
 601 185 601 185 601 155 c 0,70,71
 601 106 601 106 581.5 69 c 128,-1,72
 562 32 562 32 531.5 13 c 128,-1,73
 501 -6 501 -6 470 -15 c 128,-1,74
 439 -24 439 -24 409 -24 c 0,23,24
EndSplineSet
Validated: 1
EndChar

StartChar: C
Encoding: 67 67 37
Width: 662
VWidth: -12
Flags: W
HStem: -17.5 53.5<351.818 484.266> 593 64<239.575 358.89>
VStem: 43 101<240.696 451.369> 587.5 38.5<-87.3007 25>
LayerCount: 2
Back
Fore
SplineSet
626 -69 m 1,0,1
 623 -71 623 -71 619 -75.5 c 128,-1,2
 615 -80 615 -80 612 -83 c 128,-1,3
 609 -86 609 -86 605 -88.5 c 128,-1,4
 601 -91 601 -91 597 -91 c 2,5,-1
 595 -91 l 2,6,7
 593 -90 593 -90 591.5 -88.5 c 128,-1,8
 590 -87 590 -87 589 -85 c 128,-1,9
 588 -83 588 -83 588 -79 c 128,-1,10
 588 -75 588 -75 587.5 -70 c 128,-1,11
 587 -65 587 -65 587 -56 c 128,-1,12
 587 -47 587 -47 586.5 -37 c 128,-1,13
 586 -27 586 -27 585 -10 c 128,-1,14
 584 7 584 7 582 25 c 1,15,16
 528 -9 528 -9 478 -17.5 c 128,-1,17
 428 -26 428 -26 338 -26 c 0,18,19
 238 -26 238 -26 170 24.5 c 128,-1,20
 102 75 102 75 72.5 153 c 128,-1,21
 43 231 43 231 43 329 c 0,22,23
 43 404 43 404 76 479 c 128,-1,24
 109 554 109 554 168.5 605.5 c 128,-1,25
 228 657 228 657 296 657 c 0,26,27
 371 657 371 657 413 645.5 c 128,-1,28
 455 634 455 634 496 590 c 1,29,30
 509 600 509 600 524.5 614.5 c 128,-1,31
 540 629 540 629 548 636.5 c 128,-1,32
 556 644 556 644 566.5 649.5 c 128,-1,33
 577 655 577 655 587 655 c 0,34,35
 604 655 604 655 604 626 c 0,36,37
 604 586 604 586 477 484 c 1,38,-1
 473 489 l 2,39,40
 461 501 461 501 441 518 c 128,-1,41
 421 535 421 535 371 564 c 128,-1,42
 321 593 321 593 285 593 c 0,43,44
 253 593 253 593 219 548.5 c 128,-1,45
 185 504 185 504 164.5 446.5 c 128,-1,46
 144 389 144 389 144 346 c 0,47,48
 144 281 144 281 175.5 221 c 128,-1,49
 207 161 207 161 253 122 c 128,-1,50
 299 83 299 83 348.5 59.5 c 128,-1,51
 398 36 398 36 436 36 c 0,52,53
 450 36 450 36 472 50 c 128,-1,54
 494 64 494 64 540 98 c 128,-1,55
 586 132 586 132 615 152 c 2,56,-1
 627 159 l 1,57,-1
 627 146 l 2,58,59
 627 115 627 115 626.5 44.5 c 128,-1,60
 626 -26 626 -26 626 -65 c 2,61,-1
 626 -69 l 1,0,1
EndSplineSet
Validated: 1
EndChar

StartChar: D
Encoding: 68 68 38
Width: 633
VWidth: -12
Flags: W
HStem: -21 55<263.748 458.514> 570 44<25.0977 111.727> 583 72<276.906 398.92>
VStem: 130 105<60.1628 550.619> 513 83<139.555 411.747>
LayerCount: 2
Back
Fore
SplineSet
513 236 m 0,0,1
 513 397 513 397 457.5 490 c 128,-1,2
 402 583 402 583 340 583 c 0,3,4
 306 583 306 583 270.5 561.5 c 128,-1,5
 235 540 235 540 235 520 c 2,6,-1
 235 61 l 1,7,8
 345 34 345 34 417 34 c 0,9,10
 429 34 429 34 444 44 c 128,-1,11
 459 54 459 54 475 75.5 c 128,-1,12
 491 97 491 97 502 139 c 128,-1,13
 513 181 513 181 513 236 c 0,0,1
190 12 m 3,14,15
 142 12 142 12 121.5 -9 c 128,-1,16
 101 -30 101 -30 82 -82 c 1,17,-1
 77 -82 l 2,18,19
 64 -82 64 -82 59 -63 c 128,-1,20
 54 -44 54 -44 54 -31 c 0,21,22
 54 2 54 2 80.5 33 c 128,-1,23
 107 64 107 64 130 74 c 1,24,-1
 130 530 l 2,25,26
 128 541 128 541 99 555.5 c 128,-1,27
 70 570 70 570 41 570 c 0,28,29
 25 570 25 570 25 590 c 0,30,31
 25 599 25 599 30.5 606.5 c 128,-1,32
 36 614 36 614 45 614 c 0,33,34
 95 614 95 614 123 596.5 c 128,-1,35
 151 579 151 579 200 579 c 0,36,37
 206 579 206 579 220.5 591 c 128,-1,38
 235 603 235 603 252 617 c 128,-1,39
 269 631 269 631 301 643 c 128,-1,40
 333 655 333 655 369 655 c 0,41,42
 459 655 459 655 527.5 562 c 128,-1,43
 596 469 596 469 596 313 c 0,44,45
 596 224 596 224 578.5 156.5 c 128,-1,46
 561 89 561 89 533 52 c 128,-1,47
 505 15 505 15 474.5 -3 c 128,-1,48
 444 -21 444 -21 413 -21 c 0,49,50
 341 -21 341 -21 284.5 -4.5 c 128,-1,51
 228 12 228 12 190 12 c 3,14,15
EndSplineSet
Validated: 1
EndChar

StartChar: colon
Encoding: 58 58 39
Width: 255
VWidth: -3
Flags: W
HStem: -17 149<83.2714 160.281> 219 150<77.0273 153.305>
VStem: 44 164<25.4978 89.5449 271.146 321.445>
LayerCount: 2
Back
Fore
SplineSet
120 219 m 0,0,1
 103 219 103 219 70 246.5 c 128,-1,2
 37 274 37 274 37 293 c 0,3,4
 37 309 37 309 66.5 339 c 128,-1,5
 96 369 96 369 113 369 c 0,6,7
 124 369 124 369 162.5 340.5 c 128,-1,8
 201 312 201 312 201 300 c 0,9,10
 201 285 201 285 168.5 252 c 128,-1,11
 136 219 136 219 120 219 c 0,0,1
127 -17 m 0,12,13
 110 -17 110 -17 77 10 c 128,-1,14
 44 37 44 37 44 56 c 0,15,16
 44 72 44 72 73.5 102 c 128,-1,17
 103 132 103 132 120 132 c 0,18,19
 131 132 131 132 169.5 103 c 128,-1,20
 208 74 208 74 208 62 c 0,21,22
 208 47 208 47 175.5 15 c 128,-1,23
 143 -17 143 -17 127 -17 c 0,12,13
EndSplineSet
Validated: 1
EndChar

StartChar: semicolon
Encoding: 59 59 40
Width: 243
VWidth: 2
Flags: W
HStem: -112 64.5<96.86 158.824> -11 21G<83.5 97> 224 150<65.0273 141.281>
VStem: 25 164<267.155 331.545> 159 57<-45.53 15.5944>
LayerCount: 2
Back
Fore
SplineSet
131 151 m 0,0,1
 140 151 140 151 157 125.5 c 128,-1,2
 174 100 174 100 186.5 74 c 2,3,-1
 199 48 l 1,4,5
 216 26 216 26 216 -27 c 0,6,7
 216 -61 216 -61 195 -86.5 c 128,-1,8
 174 -112 174 -112 133 -112 c 0,9,10
 115 -112 115 -112 100 -103 c 128,-1,11
 85 -94 85 -94 85 -81 c 0,12,13
 85 -64 85 -64 96.5 -56 c 128,-1,14
 108 -48 108 -48 122 -47.5 c 128,-1,15
 136 -47 136 -47 147.5 -42 c 128,-1,16
 159 -37 159 -37 159 -27 c 0,17,18
 159 -6 159 -6 148 16 c 1,19,20
 135 15 135 15 118 2 c 128,-1,21
 101 -11 101 -11 93 -11 c 0,22,23
 74 -11 74 -11 49 31.5 c 128,-1,24
 24 74 24 74 24 94 c 0,25,26
 24 111 24 111 67.5 131 c 128,-1,27
 111 151 111 151 131 151 c 0,0,1
108 224 m 0,28,29
 91 224 91 224 58 251.5 c 128,-1,30
 25 279 25 279 25 298 c 0,31,32
 25 314 25 314 55 344 c 128,-1,33
 85 374 85 374 102 374 c 0,34,35
 112 374 112 374 150.5 345 c 128,-1,36
 189 316 189 316 189 304 c 0,37,38
 189 289 189 289 156.5 256.5 c 128,-1,39
 124 224 124 224 108 224 c 0,28,29
EndSplineSet
Validated: 1
EndChar

StartChar: less
Encoding: 60 60 41
Width: 472
VWidth: -3
Flags: W
HStem: -14 21G<395 412> 302 79<322.381 439.254>
VStem: 395 55<5.08118 26.875>
DStem2: 170 198 136.5 121.5 0.929694 -0.368332<0 283.406>
LayerCount: 2
Back
Fore
SplineSet
445 359 m 3,0,1
 445 333 445 333 431 302 c 1,2,-1
 425 302 l 2,3,4
 420 302 420 302 400.5 297.5 c 128,-1,5
 381 293 381 293 372 293 c 0,6,7
 347 293 347 293 286.5 264 c 128,-1,8
 226 235 226 235 170 198 c 1,9,10
 191 189 191 189 276.5 159 c 128,-1,11
 362 129 362 129 406 104.5 c 128,-1,12
 450 80 450 80 450 54 c 0,13,14
 450 23 450 23 436.5 4.5 c 128,-1,15
 423 -14 423 -14 401 -14 c 2,16,-1
 395 -14 l 1,17,-1
 395 -5 l 2,18,19
 395 17 395 17 355 37 c 128,-1,20
 315 57 315 57 261 73 c 128,-1,21
 207 89 207 89 136.5 121.5 c 128,-1,22
 66 154 66 154 19 195 c 1,23,24
 81 246 81 246 212 313 c 128,-1,25
 343 380 343 380 414 381 c 0,26,27
 445 381 445 381 445 359 c 3,0,1
EndSplineSet
Validated: 1
EndChar

StartChar: greater
Encoding: 62 62 42
Width: 472
VWidth: -3
Flags: W
HStem: -14 21G<56 74> 302 79<29.5703 144.171>
VStem: 19 55<5.08118 26.875>
DStem2: 91.5 118 114 37 0.933401 0.358836<-59.2537 221.454>
LayerCount: 2
Back
Fore
SplineSet
450 195 m 1,0,1
 403 154 403 154 332.5 121 c 128,-1,2
 262 88 262 88 208 72.5 c 128,-1,3
 154 57 154 57 114 37 c 128,-1,4
 74 17 74 17 74 -5 c 2,5,-1
 74 -14 l 1,6,-1
 67 -14 l 2,7,8
 45 -14 45 -14 32 4.5 c 128,-1,9
 19 23 19 23 19 54 c 0,10,11
 19 70 19 70 38.5 86.5 c 128,-1,12
 58 103 58 103 91.5 118 c 128,-1,13
 125 133 125 133 159 146 c 128,-1,14
 193 159 193 159 234.5 173.5 c 128,-1,15
 276 188 276 188 298 198 c 1,16,17
 240 235 240 235 180.5 264 c 128,-1,18
 121 293 121 293 96 293 c 0,19,20
 87 293 87 293 67.5 297.5 c 128,-1,21
 48 302 48 302 43 302 c 2,22,-1
 38 302 l 1,23,24
 23 335 23 335 23 359 c 0,25,26
 23 381 23 381 55 381 c 0,27,28
 126 380 126 380 257 313 c 128,-1,29
 388 246 388 246 450 195 c 1,0,1
EndSplineSet
Validated: 1
EndChar

StartChar: F
Encoding: 70 70 43
Width: 512
VWidth: -14
Flags: W
HStem: -18 56<50.736 142.244> -2 49<273 408.843> 310 74<72 142> 316 76<276 424.906> 566 73<278.404 421.32>
VStem: 142 132<42.2305 310 392 546.916> 432 41<232.595 305.42 392 425.589>
DStem2: 429 392 477 448.5 0.178885 0.98387<0 143.399>
LayerCount: 2
Back
Fore
SplineSet
504 597 m 1,0,1
 503 593 503 593 493 541.5 c 128,-1,2
 483 490 483 490 477 448.5 c 128,-1,3
 471 407 471 407 471 381 c 0,4,5
 473 367 473 367 473 333 c 0,6,7
 473 228 473 228 439 226 c 2,8,-1
 432 226 l 1,9,-1
 432 234 l 2,10,11
 432 244 432 244 432 259.5 c 128,-1,12
 432 275 432 275 431.5 280 c 128,-1,13
 431 285 431 285 429.5 294 c 128,-1,14
 428 303 428 303 425 305.5 c 128,-1,15
 422 308 422 308 416 311.5 c 128,-1,16
 410 315 410 315 401.5 315.5 c 128,-1,17
 393 316 393 316 380 316 c 0,18,19
 368 316 368 316 276 312 c 1,20,-1
 270 40 l 1,21,-1
 273 47 l 1,22,23
 356 47 356 47 375 43.5 c 128,-1,24
 394 40 394 40 395 40 c 0,25,26
 404 40 404 40 409 32.5 c 128,-1,27
 414 25 414 25 414 16 c 128,-1,28
 414 7 414 7 409 0 c 128,-1,29
 404 -7 404 -7 395 -7 c 0,30,31
 381 -7 381 -7 338 -4.5 c 128,-1,32
 295 -2 295 -2 184 -2 c 0,33,34
 131 -2 131 -2 111.5 -10 c 128,-1,35
 92 -18 92 -18 63 -18 c 0,36,37
 54 -18 54 -18 48.5 -11 c 128,-1,38
 43 -4 43 -4 43 5 c 0,39,40
 43 17 43 17 50.5 27.5 c 128,-1,41
 58 38 58 38 72 38 c 0,42,43
 119 38 119 38 143 50 c 1,44,-1
 142 310 l 1,45,-1
 72 310 l 1,46,-1
 40 384 l 1,47,-1
 142 384 l 1,48,-1
 142 455 l 2,49,50
 142 473 142 473 128.5 519.5 c 128,-1,51
 115 566 115 566 107 566 c 0,52,53
 102 566 102 566 84.5 556.5 c 128,-1,54
 67 547 67 547 62 547 c 0,55,56
 45 547 45 547 45 573 c 0,57,58
 45 585 45 585 87.5 612 c 128,-1,59
 130 639 130 639 140 639 c 0,60,61
 148 639 148 639 158.5 628.5 c 128,-1,62
 169 618 169 618 185 599.5 c 128,-1,63
 201 581 201 581 213 570 c 0,64,65
 216 572 216 572 230.5 583 c 128,-1,66
 245 594 245 594 249 597 c 128,-1,67
 253 600 253 600 266 609 c 128,-1,68
 279 618 279 618 285.5 620.5 c 128,-1,69
 292 623 292 623 305.5 629 c 128,-1,70
 319 635 319 635 329.5 637 c 128,-1,71
 340 639 340 639 354.5 641 c 128,-1,72
 369 643 369 643 384 643 c 0,73,74
 391 643 391 643 398 642.5 c 128,-1,75
 405 642 405 642 412.5 640 c 128,-1,76
 420 638 420 638 425 636.5 c 128,-1,77
 430 635 430 635 438.5 631.5 c 128,-1,78
 447 628 447 628 451 626.5 c 128,-1,79
 455 625 455 625 464.5 619.5 c 128,-1,80
 474 614 474 614 477 612.5 c 128,-1,81
 480 611 480 611 490.5 605 c 128,-1,82
 501 599 501 599 504 597 c 1,0,1
329 572 m 0,83,84
 306 572 306 572 290.5 557 c 128,-1,85
 275 542 275 542 269 529 c 1,86,-1
 274 392 l 1,87,-1
 429 392 l 1,88,-1
 449 529 l 1,89,90
 372 572 372 572 329 572 c 0,83,84
EndSplineSet
Validated: 1
EndChar

StartChar: G
Encoding: 71 71 44
Width: 699
VWidth: -15
Flags: W
HStem: -29 93<308.897 485.416> 590 64<237.805 353.024>
VStem: 45 101<230.251 450.131> 607 65<113.552 223.54>
DStem2: 362 274 382 230 0.944757 0.327773<0 133.377> 466.5 598 396 536.5 0.684057 -0.729428<-72.6286 119.066> 545 517 566.5 464.5 0.905263 0.424852<-6.37069 95.5801>
LayerCount: 2
Back
Fore
SplineSet
644 365 m 5,0,1
 637 359 637 359 625 350 c 128,-1,2
 613 341 613 341 603 331 c 1,3,4
 605 329 605 329 622 310 c 128,-1,5
 639 291 639 291 646.5 279 c 128,-1,6
 654 267 654 267 663 237 c 128,-1,7
 672 207 672 207 672 170 c 0,8,9
 672 118 672 118 635.5 77 c 128,-1,10
 599 36 599 36 544.5 14 c 128,-1,11
 490 -8 490 -8 436.5 -18.5 c 128,-1,12
 383 -29 383 -29 339 -29 c 0,13,14
 264 -29 264 -29 206 -0.5 c 128,-1,15
 148 28 148 28 114 78 c 128,-1,16
 80 128 80 128 62.5 190.5 c 128,-1,17
 45 253 45 253 45 326 c 0,18,19
 45 385 45 385 57.5 439.5 c 128,-1,20
 70 494 70 494 97.5 544 c 128,-1,21
 125 594 125 594 176.5 624 c 128,-1,22
 228 654 228 654 298 654 c 0,23,24
 335 654 335 654 367.5 645.5 c 128,-1,25
 400 637 400 637 420 629 c 128,-1,26
 440 621 440 621 466.5 598 c 128,-1,27
 493 575 493 575 501 566.5 c 128,-1,28
 509 558 509 558 535.406441158 527.975170918 c 0,29,30
 542 521 542 521 545 517 c 1,31,32
 560 524 560 524 576 532.5 c 128,-1,33
 592 541 592 541 599 544.5 c 128,-1,34
 606 548 606 548 615 550.5 c 128,-1,35
 624 553 624 553 634 553 c 0,36,37
 650 553 650 553 650 525 c 0,38,39
 650 509 650 509 632.5 497 c 128,-1,40
 615 485 615 485 566.5 464.5 c 128,-1,41
 518 444 518 444 494 432 c 1,42,-1
 489 437 l 2,43,44
 489 438 489 438 476.5 453.5 c 128,-1,45
 464 469 464 469 442.5 491.5 c 128,-1,46
 421 514 421 514 396 536.5 c 128,-1,47
 371 559 371 559 341 574.5 c 128,-1,48
 311 590 311 590 286 590 c 0,49,50
 236 590 236 590 191 501.5 c 128,-1,51
 146 413 146 413 146 343 c 0,52,53
 146 278 146 278 171 223 c 128,-1,54
 196 168 196 168 235 134.5 c 128,-1,55
 274 101 274 101 316.5 82.5 c 128,-1,56
 359 64 359 64 398 64 c 0,57,58
 443 64 443 64 493.5 78 c 128,-1,59
 544 92 544 92 574 107.5 c 128,-1,60
 604 123 604 123 607 131 c 0,61,62
 607 190 607 190 580.5 231 c 128,-1,63
 554 272 554 272 504 272 c 0,64,65
 500 272 500 272 480 264 c 128,-1,66
 460 256 460 256 431 245.5 c 128,-1,67
 402 235 402 235 382 230 c 1,68,69
 372 237 372 237 369 253 c 128,-1,70
 366 269 366 269 362 274 c 1,71,72
 453 300 453 300 512 331 c 128,-1,73
 571 362 571 362 623 414 c 1,74,75
 640 383 640 383 644 365 c 5,0,1
EndSplineSet
Validated: 1
EndChar

StartChar: H
Encoding: 72 72 45
Width: 851
VWidth: -15
Flags: W
HStem: -15 56<50.5946 150.91> -8 61<265 445.447> 301 79<265 390.629> 320 78<577.529 598 707 736> 585 54<706.066 826.255> 586 49<51.626 155.258 570.188 594.812>
VStem: 155.5 109.5<58.2795 301 380 570.326> 598 107<57.6108 320 404 575.878>
LayerCount: 2
Back
Fore
SplineSet
843 -19 m 1,0,1
 724 -2 724 -2 656 -2 c 0,2,3
 641 -2 641 -2 620 -9.5 c 128,-1,4
 599 -17 599 -17 573 -17 c 2,5,-1
 565 -17 l 1,6,-1
 565 -8 l 2,7,8
 565 17 565 17 569.5 30 c 128,-1,9
 574 43 574 43 580 45 c 128,-1,10
 586 47 586 47 590.5 54 c 128,-1,11
 595 61 595 61 595 74 c 0,12,13
 595 110 595 110 598 320 c 1,14,-1
 265 301 l 1,15,-1
 265 72 l 2,16,17
 265 58 265 58 323.5 53 c 128,-1,18
 382 48 382 48 441 36 c 128,-1,19
 500 24 500 24 500 -8 c 2,20,-1
 500 -17 l 1,21,-1
 492 -17 l 1,22,23
 341 -8 341 -8 216 -8 c 0,24,25
 180 -8 180 -8 127 -15 c 128,-1,26
 74 -22 74 -22 39 -22 c 2,27,-1
 31 -22 l 1,28,-1
 31 -14 l 2,29,30
 31 12 31 12 50 25.5 c 128,-1,31
 69 39 69 39 91.5 41 c 128,-1,32
 114 43 114 43 133 49 c 128,-1,33
 152 55 152 55 152 67 c 0,34,35
 152 156 152 156 155.5 309.5 c 128,-1,36
 159 463 159 463 159 552 c 0,37,38
 159 568 159 568 139 574 c 128,-1,39
 119 580 119 580 95 580.5 c 128,-1,40
 71 581 71 581 51 592 c 128,-1,41
 31 603 31 603 31 627 c 2,42,-1
 31 636 l 1,43,-1
 39 636 l 2,44,45
 95 634 95 634 133.5 629.5 c 128,-1,46
 172 625 172 625 198 625 c 0,47,48
 214 625 214 625 250 631 c 128,-1,49
 286 637 286 637 294 637 c 2,50,-1
 301 637 l 1,51,-1
 301 628 l 2,52,53
 301 604 301 604 295 592 c 128,-1,54
 289 580 289 580 282 578 c 128,-1,55
 275 576 275 576 269.5 570.5 c 128,-1,56
 264 565 264 565 264 552 c 2,57,-1
 264 380 l 1,58,-1
 598 398 l 1,59,60
 601 551 601 551 601 558 c 0,61,62
 601 575 601 575 595 581 c 128,-1,63
 589 587 589 587 582.5 586 c 128,-1,64
 576 585 576 585 570 594.5 c 128,-1,65
 564 604 564 604 564 627 c 2,66,-1
 564 635 l 1,67,-1
 573 635 l 2,68,69
 594 635 594 635 615.5 632 c 128,-1,70
 637 629 637 629 638 629 c 0,71,72
 655 629 655 629 740 639 c 128,-1,73
 825 649 825 649 832 649 c 2,74,-1
 841 649 l 1,75,-1
 841 641 l 2,76,77
 841 616 841 616 819.5 602 c 128,-1,78
 798 588 798 588 772.5 585 c 128,-1,79
 747 582 747 582 726 575.5 c 128,-1,80
 705 569 705 569 705 558 c 2,81,-1
 705 404 l 1,82,-1
 781 408 l 1,83,-1
 781 399 l 2,84,85
 780 377 780 377 770 357 c 0,86,87
 767 353 767 353 762.5 348.5 c 128,-1,88
 758 344 758 344 754 340 c 128,-1,89
 750 336 750 336 746 333 c 128,-1,90
 742 330 742 330 739 328 c 2,91,-1
 736 326 l 1,92,-1
 707 324 l 1,93,94
 707 289 707 289 706.5 203.5 c 128,-1,95
 706 118 706 118 706 76 c 0,96,97
 706 64 706 64 727.5 57.5 c 128,-1,98
 749 51 749 51 774.5 47.5 c 128,-1,99
 800 44 800 44 821.5 29.5 c 128,-1,100
 843 15 843 15 843 -9 c 2,101,-1
 843 -19 l 1,0,1
EndSplineSet
Validated: 1
EndChar

StartChar: J
Encoding: 74 74 46
Width: 331
VWidth: -10
Flags: W
HStem: -152 67<100.385 171.47> 577 52<82.1143 178.35>
VStem: 179 117<-42.9441 576.468>
LayerCount: 2
Back
Fore
SplineSet
296 662 m 1,0,-1
 296 56 l 2,1,2
 296 -22 296 -22 246.5 -87 c 128,-1,3
 197 -152 197 -152 138 -152 c 0,4,5
 102 -152 102 -152 71.5 -136 c 128,-1,6
 41 -120 41 -120 41 -90 c 0,7,8
 41 -75 41 -75 50.5 -62 c 128,-1,9
 60 -49 60 -49 68 -44 c 128,-1,10
 76 -39 76 -39 78 -39 c 2,11,-1
 85 -38 l 1,12,-1
 88 -44 l 2,13,14
 111 -85 111 -85 138 -85 c 0,15,16
 163 -85 163 -85 171 -69 c 128,-1,17
 179 -53 179 -53 179 -6 c 2,18,-1
 179 541 l 2,19,20
 179 560 179 560 175 577 c 1,21,22
 108 579 108 579 62.5 593 c 128,-1,23
 17 607 17 607 17 635 c 0,24,25
 17 645 17 645 25 654.5 c 128,-1,26
 33 664 33 664 45 664 c 0,27,28
 58 664 58 664 91 646.5 c 128,-1,29
 124 629 124 629 156 629 c 0,30,31
 199 629 199 629 235 645.5 c 128,-1,32
 271 662 271 662 287 662 c 2,33,-1
 296 662 l 1,0,-1
EndSplineSet
Validated: 1
EndChar

StartChar: K
Encoding: 75 75 47
Width: 646
VWidth: -15
Flags: W
HStem: -20 55.5<28.8912 96> -16 44<211.131 297.656 558.459 622.288> 597 46<35.3445 95.2235 211.632 279.771 554.115 596.426>
VStem: 96 115<39.4375 296.831 369 595.397>
DStem2: 427 259.5 300.5 254 0.543364 -0.839497<-136.737 277.899> 325 460.5 335 386 0.774661 0.632376<-39.3654 296.322>
LayerCount: 2
Back
Fore
SplineSet
599 595 m 1,0,1
 565 587 565 587 513.5 546 c 128,-1,2
 462 505 462 505 405.5 451 c 128,-1,3
 349 397 349 397 335 386 c 1,4,5
 371 352 371 352 427 259.5 c 128,-1,6
 483 167 483 167 527 95.5 c 128,-1,7
 571 24 571 24 589 24 c 0,8,9
 600 24 600 24 612 16.5 c 128,-1,10
 624 9 624 9 624 -1 c 0,11,12
 624 -10 624 -10 582.5 -15.5 c 128,-1,13
 541 -21 541 -21 506 -21 c 0,14,15
 482 -21 482 -21 443 30 c 128,-1,16
 404 81 404 81 370 142 c 128,-1,17
 336 203 336 203 300.5 254 c 128,-1,18
 265 305 265 305 245 305 c 0,19,20
 237 305 237 305 224 283 c 128,-1,21
 211 261 211 261 211 241 c 2,22,-1
 211 51 l 2,23,24
 211 43 211 43 232.5 39.5 c 128,-1,25
 254 36 254 36 276 28 c 128,-1,26
 298 20 298 20 298 2 c 128,-1,27
 298 -16 298 -16 272 -16 c 0,28,29
 262 -16 262 -16 219 -12 c 128,-1,30
 176 -8 176 -8 155 -8 c 128,-1,31
 134 -8 134 -8 95 -14 c 128,-1,32
 56 -20 56 -20 44 -20 c 0,33,34
 16 -20 16 -20 16 0 c 0,35,36
 16 18 16 18 28.5 26.5 c 128,-1,37
 41 35 41 35 56 35.5 c 128,-1,38
 71 36 71 36 83.5 40.5 c 128,-1,39
 96 45 96 45 96 55 c 2,40,-1
 96 577 l 2,41,42
 96 588 96 588 85 592.5 c 128,-1,43
 74 597 74 597 60 597 c 128,-1,44
 46 597 46 597 35 602.5 c 128,-1,45
 24 608 24 608 24 622 c 0,46,47
 24 643 24 643 51 643 c 0,48,49
 63 643 63 643 98.5 636 c 128,-1,50
 134 629 134 629 154 629 c 0,51,52
 175 629 175 629 209.5 635 c 128,-1,53
 244 641 244 641 254 641 c 0,54,55
 280 641 280 641 280 622 c 0,56,57
 280 604 280 604 245.5 598 c 128,-1,58
 211 592 211 592 211 582 c 2,59,-1
 211 369 l 1,60,61
 240 389 240 389 325 460.5 c 128,-1,62
 410 532 410 532 480.5 589 c 128,-1,63
 551 646 551 646 566 646 c 0,64,65
 580 646 580 646 588.5 635 c 128,-1,66
 597 624 597 624 598 613 c 2,67,-1
 599 602 l 1,68,-1
 599 595 l 1,0,1
EndSplineSet
Validated: 1
EndChar

StartChar: L
Encoding: 76 76 48
Width: 645
VWidth: -10
Flags: W
HStem: -10 57<38.7251 146.219> -2 54<263.102 435.355> 591 58<35.4531 148.731 267.237 392.876> 591 47.5<267.237 392.876>
VStem: 153 109<55.9741 580.963> 586 41<-126 -10>
LayerCount: 2
Back
Fore
SplineSet
293 52 m 4,0,1
 330 52 330 52 369.5 55.5 c 128,-1,2
 409 59 409 59 462.5 68.5 c 128,-1,3
 516 78 516 78 554.5 101.5 c 128,-1,4
 593 125 593 125 603 159 c 1,5,-1
 607 159 l 2,6,7
 615 159 615 159 620 141.5 c 128,-1,8
 625 124 625 124 626 107 c 2,9,-1
 627 90 l 1,10,-1
 627 -126 l 1,11,-1
 586 -126 l 1,12,-1
 586 -10 l 1,13,14
 521 -2 521 -2 211 -2 c 0,15,16
 174 -2 174 -2 120.5 -10 c 128,-1,17
 67 -18 67 -18 32 -18 c 2,18,-1
 26 -18 l 1,19,-1
 26 -9 l 2,20,21
 26 17 26 17 45 31 c 128,-1,22
 64 45 64 45 86.5 47 c 128,-1,23
 109 49 109 49 128 55 c 128,-1,24
 147 61 147 61 147 73 c 0,25,26
 147 162 147 162 150 315 c 128,-1,27
 153 468 153 468 153 557 c 0,28,29
 153 573 153 573 133 580.5 c 128,-1,30
 113 588 113 588 89.5 590 c 128,-1,31
 66 592 66 592 46 604.5 c 128,-1,32
 26 617 26 617 26 641 c 2,33,-1
 26 649 l 1,34,-1
 32 649 l 2,35,36
 90 647 90 647 129 638 c 128,-1,37
 168 629 168 629 193 629 c 0,38,39
 214 629 214 629 289.5 638.5 c 128,-1,40
 365 648 365 648 395 649 c 2,41,-1
 404 649 l 1,42,-1
 404 641 l 2,43,44
 404 617 404 617 381.5 605 c 128,-1,45
 359 593 359 593 332.5 591 c 128,-1,46
 306 589 306 589 284 581 c 128,-1,47
 262 573 262 573 262 557 c 0,48,49
 262 468 262 468 262.5 316.5 c 128,-1,50
 263 165 263 165 263 76 c 0,51,52
 263 69 263 69 271.5 60.5 c 128,-1,53
 280 52 280 52 293 52 c 4,0,1
EndSplineSet
Validated: 1
EndChar

StartChar: M
Encoding: 77 77 49
Width: 842
VWidth: -15
Flags: W
HStem: -26 55<577.797 619.234> -19 21G<224.5 238> -12 50<42.8599 103.989 171.003 227.171 742.278 818.531> 569 52<528.313 587.997> 580.5 56.5<702.766 739.234> 583 42<92.0485 185.996> 584 62<271.634 298.592> 590 35<74.9613 132.252>
VStem: 104 67<40.29 190.32> 588 106<484.432 568.936> 611 106.5<98.2905 400.925> 628 113<39.5065 258.599>
DStem2: 271 584 242 436 0.403631 -0.914922<123.703 448.579> 453 174 433 0 0.365652 0.930751<0 261.06>
LayerCount: 2
Back
Fore
SplineSet
518 611 m 1,0,1
 570 621 570 621 631 621 c 0,2,3
 647 621 647 621 689 629 c 128,-1,4
 731 637 731 637 740 637 c 2,5,-1
 748 637 l 1,6,-1
 748 629 l 2,7,8
 748 605 748 605 739.5 593 c 128,-1,9
 731 581 731 581 721 580.5 c 128,-1,10
 711 580 711 580 702.5 575.5 c 128,-1,11
 694 571 694 571 694 559 c 0,12,13
 694 534 694 534 717.5 325.5 c 128,-1,14
 741 117 741 117 741 70 c 0,15,16
 741 52 741 52 755.5 43.5 c 128,-1,17
 770 35 770 35 787 33 c 128,-1,18
 804 31 804 31 819 19 c 128,-1,19
 834 7 834 7 834 -18 c 2,20,-1
 834 -27 l 1,21,22
 808 -24 808 -24 784 -19 c 128,-1,23
 760 -14 760 -14 742 -12 c 128,-1,24
 724 -10 724 -10 691 -10 c 0,25,26
 659 -10 659 -10 628 -18 c 0,27,28
 593 -26 593 -26 575 -26 c 2,29,-1
 568 -26 l 1,30,-1
 568 -18 l 2,31,32
 568 8 568 8 577.5 18.5 c 128,-1,33
 587 29 587 29 599 29 c 128,-1,34
 611 29 611 29 619.5 36.5 c 128,-1,35
 628 44 628 44 628 66 c 0,36,37
 628 103 628 103 611 220 c 128,-1,38
 594 337 594 337 590 403 c 1,39,40
 496 134 496 134 433 0 c 2,41,-1
 425 -17 l 1,42,-1
 420 2 l 1,43,44
 297 323 297 323 242 436 c 1,45,46
 225 349 225 349 198 215 c 128,-1,47
 171 81 171 81 171 59 c 0,48,49
 171 47 171 47 181.5 42 c 128,-1,50
 192 37 192 37 204.5 36.5 c 128,-1,51
 217 36 217 36 227.5 24.5 c 128,-1,52
 238 13 238 13 238 -11 c 2,53,-1
 238 -19 l 1,54,-1
 231 -19 l 2,55,56
 218 -19 218 -19 188 -15 c 0,57,58
 173 -13 173 -13 160 -12 c 128,-1,59
 147 -11 147 -11 116 -11 c 0,60,61
 102 -11 102 -11 80.5 -16.5 c 128,-1,62
 59 -22 59 -22 38 -22 c 2,63,-1
 31 -22 l 1,64,-1
 31 -14 l 2,65,66
 31 12 31 12 42.5 24.5 c 128,-1,67
 54 37 54 37 67.5 38 c 128,-1,68
 81 39 81 39 92.5 44 c 128,-1,69
 104 49 104 49 104 61 c 0,70,71
 104 83 104 83 145 304 c 128,-1,72
 186 525 186 525 186 563 c 0,73,74
 186 577 186 577 171.5 579.5 c 128,-1,75
 157 582 157 582 133 583 c 128,-1,76
 109 584 109 584 91.5 590 c 128,-1,77
 74 596 74 596 74 616 c 2,78,-1
 74 625 l 1,79,-1
 187 625 l 2,80,81
 203 625 203 625 248 635.5 c 128,-1,82
 293 646 293 646 303 646 c 2,83,-1
 312 646 l 1,84,85
 312 627 312 627 302 611.5 c 128,-1,86
 292 596 292 596 283 590 c 128,-1,87
 274 584 274 584 271 584 c 1,88,89
 416 274 416 274 453 174 c 1,90,91
 491 267 491 267 539.5 406 c 128,-1,92
 588 545 588 545 588 559 c 0,93,94
 588 567 588 567 577 569 c 128,-1,95
 566 571 566 571 552 571 c 128,-1,96
 538 571 538 571 528 578.5 c 128,-1,97
 518 586 518 586 518 604 c 2,98,-1
 518 611 l 1,0,1
EndSplineSet
EndChar

StartChar: O
Encoding: 79 79 50
Width: 740
VWidth: -15
Flags: W
HStem: -17 55<336.115 529.596> 591 57<274.247 452.799>
VStem: 46 124<206.801 454.294> 600 113<153.359 415>
LayerCount: 2
Back
Fore
SplineSet
600 264 m 0,0,1
 600 418 600 418 531.5 504.5 c 128,-1,2
 463 591 463 591 351 591 c 0,3,4
 276 591 276 591 223 520.5 c 128,-1,5
 170 450 170 450 170 341 c 0,6,7
 170 194 170 194 250 116 c 128,-1,8
 330 38 330 38 460 38 c 0,9,10
 500 38 500 38 529 59 c 128,-1,11
 558 80 558 80 572.5 115 c 128,-1,12
 587 150 587 150 593.5 186.5 c 128,-1,13
 600 223 600 223 600 264 c 0,0,1
436 -17 m 0,14,15
 246 -17 246 -17 146 70.5 c 128,-1,16
 46 158 46 158 46 312 c 0,17,18
 46 479 46 479 141 563.5 c 128,-1,19
 236 648 236 648 403 648 c 0,20,21
 531 648 531 648 622 550 c 128,-1,22
 713 452 713 452 713 322 c 0,23,24
 713 151 713 151 649 67 c 128,-1,25
 585 -17 585 -17 436 -17 c 0,14,15
EndSplineSet
Validated: 1
EndChar

StartChar: N
Encoding: 78 78 51
Width: 721
VWidth: -14
Flags: W
HStem: -15 62<72.4381 146.089 216.834 362.343> -7 54<216 359.956> 576 39<39.1423 118.544> 584 54<58.1458 173.178 528.86 591 658 684.234>
VStem: 147 69<49.4644 438 562.999 580.905> 591 67<2.99756 43 190 587.42>
LayerCount: 2
Back
Fore
SplineSet
161 638 m 3,0,1
 204 638 204 638 216 615 c 1,2,-1
 216 595 l 1,3,4
 223 572 223 572 374 412 c 128,-1,5
 525 252 525 252 591 190 c 1,6,-1
 591 578 l 2,7,8
 591 585 591 585 579.5 586.5 c 128,-1,9
 568 588 568 588 554 587.5 c 128,-1,10
 540 587 540 587 528.5 599 c 128,-1,11
 517 611 517 611 517 637 c 2,12,-1
 517 645 l 1,13,-1
 525 645 l 2,14,15
 553 644 553 644 576.5 641 c 128,-1,16
 600 638 600 638 603 638 c 2,17,-1
 685 643 l 1,18,-1
 693 645 l 1,19,-1
 693 635 l 2,20,21
 693 604 693 604 684.5 595 c 128,-1,22
 676 586 676 586 667 587 c 128,-1,23
 658 588 658 588 658 580 c 2,24,-1
 658 -38 l 1,25,-1
 643 -27 l 2,26,27
 628 -19 628 -19 607.5 11 c 128,-1,28
 587 41 587 41 586 42 c 2,29,-1
 586 43 l 1,30,-1
 216 438 l 1,31,-1
 216 64 l 2,32,33
 216 50 216 50 257 47 c 128,-1,34
 298 44 298 44 339 34 c 128,-1,35
 380 24 380 24 380 -7 c 2,36,-1
 380 -15 l 1,37,-1
 373 -15 l 1,38,39
 231 -7 231 -7 211 -7 c 0,40,41
 173 -7 173 -7 138.5 -11 c 128,-1,42
 104 -15 104 -15 67 -15 c 2,43,-1
 58 -15 l 1,44,-1
 58 -7 l 2,45,46
 58 19 58 19 72 31.5 c 128,-1,47
 86 44 86 44 102.5 45.5 c 128,-1,48
 119 47 119 47 133 52 c 128,-1,49
 147 57 147 57 147 69 c 2,50,-1
 147 568 l 2,51,52
 147 578 147 578 142.5 581 c 128,-1,53
 138 584 138 584 122 584 c 0,54,55
 114 584 114 584 101 580 c 128,-1,56
 88 576 88 576 76 576 c 0,57,58
 37 576 37 576 37 608 c 2,59,-1
 37 615 l 1,60,61
 55 618 55 618 90 628 c 128,-1,62
 125 638 125 638 161 638 c 3,0,1
EndSplineSet
Validated: 1
EndChar

StartChar: Q
Encoding: 81 81 52
Width: 763
VWidth: -7
Flags: W
HStem: -176 61<692.021 753.732> -6 54<336.767 528.341> 602 56<275.283 452.533>
VStem: 48 123<215.104 464.378> 582 109.5<-114.932 -10.3804> 599 116<159.983 426.051>
LayerCount: 2
Back
Fore
SplineSet
599 274 m 0,0,1
 599 428 599 428 531.5 515 c 128,-1,2
 464 602 464 602 352 602 c 0,3,4
 278 602 278 602 224.5 531 c 128,-1,5
 171 460 171 460 171 351 c 0,6,7
 171 204 171 204 250.5 126 c 128,-1,8
 330 48 330 48 459 48 c 0,9,10
 499 48 499 48 528 69 c 128,-1,11
 557 90 557 90 571.5 125 c 128,-1,12
 586 160 586 160 592.5 196.5 c 128,-1,13
 599 233 599 233 599 274 c 0,0,1
436 -6 m 0,14,15
 247 -6 247 -6 147.5 81 c 128,-1,16
 48 168 48 168 48 322 c 0,17,18
 48 489 48 489 142.5 573.5 c 128,-1,19
 237 658 237 658 402 658 c 0,20,21
 529 658 529 658 622 559.5 c 128,-1,22
 715 461 715 461 715 332 c 0,23,24
 715 134 715 134 634 57 c 1,25,26
 666 47 666 47 679 17.5 c 128,-1,27
 692 -12 692 -12 689.5 -41 c 128,-1,28
 687 -70 687 -70 691.5 -92.5 c 128,-1,29
 696 -115 696 -115 715 -115 c 0,30,31
 738 -115 738 -115 757 -89 c 128,-1,32
 776 -63 776 -63 789 -63 c 0,33,34
 805 -63 805 -63 805 -83 c 0,35,36
 805 -109 805 -109 771.5 -142.5 c 128,-1,37
 738 -176 738 -176 701 -176 c 0,38,39
 666 -176 666 -176 640.5 -162 c 128,-1,40
 615 -148 615 -148 603.5 -127.5 c 128,-1,41
 592 -107 592 -107 587 -89 c 128,-1,42
 582 -71 582 -71 582 -56 c 0,43,44
 582 -22 582 -22 571.5 -10 c 128,-1,45
 561 2 561 2 529 2 c 0,46,47
 508 2 508 2 475.5 -2 c 128,-1,48
 443 -6 443 -6 436 -6 c 0,14,15
EndSplineSet
Validated: 1
EndChar

StartChar: R
Encoding: 82 82 53
Width: 704
VWidth: -14
Flags: W
HStem: -18 56<36.1882 152.516> -13 72<624.035 677.935> -6 49<265.743 395.843> 3 53<264 340.198> 274 34<265 383> 557 44<27.0374 119.133>
VStem: 146 118<340.971 532.693> 159 106<56 274 339.654 523.883> 485 105<341.846 525.037>
DStem2: 244 588.5 302 555.5 0.75517 0.655529<-25.2117 67.2988> 490 263 437.5 146.5 0.560478 -0.828169<1.0647 270.926>
LayerCount: 2
Back
Fore
SplineSet
381 43 m 0,0,1
 391 43 391 43 396 35.5 c 128,-1,2
 401 28 401 28 401 19 c 128,-1,3
 401 10 401 10 396 2 c 128,-1,4
 391 -6 391 -6 381 -6 c 0,5,6
 366 -6 366 -6 341 -1.5 c 128,-1,7
 316 3 316 3 208 3 c 0,8,9
 154 3 154 3 116.5 -7.5 c 128,-1,10
 79 -18 79 -18 51 -18 c 0,11,12
 42 -18 42 -18 36 -12 c 128,-1,13
 30 -6 30 -6 30 3 c 0,14,15
 30 15 30 15 38 26.5 c 128,-1,16
 46 38 46 38 60 38 c 0,17,18
 138 38 138 38 153 55 c 1,19,20
 159 74 159 74 159 289 c 0,21,22
 159 317 159 317 154.5 373.5 c 128,-1,23
 150 430 150 430 146 472.5 c 2,24,-1
 142 515 l 2,25,26
 141 526 141 526 106.5 541.5 c 128,-1,27
 72 557 72 557 43 557 c 0,28,29
 27 557 27 557 27 577 c 0,30,31
 27 601 27 601 44 601 c 0,32,33
 94 601 94 601 127 589 c 128,-1,34
 160 577 160 577 210 577 c 0,35,36
 227 577 227 577 244 588.5 c 128,-1,37
 261 600 261 600 274 614.5 c 128,-1,38
 287 629 287 629 314.5 640.5 c 128,-1,39
 342 652 342 652 378 652 c 0,40,41
 476 652 476 652 533 593.5 c 128,-1,42
 590 535 590 535 590 434 c 0,43,44
 590 379 590 379 563 333 c 128,-1,45
 536 287 536 287 490 263 c 1,46,47
 503 242 503 242 525 210 c 128,-1,48
 547 178 547 178 577 134 c 128,-1,49
 607 90 607 90 624 65 c 0,50,51
 625 63 625 63 640 59 c 128,-1,52
 655 55 655 55 668.5 46.5 c 128,-1,53
 682 38 682 38 682 25 c 0,54,55
 682 -13 682 -13 608 -13 c 0,56,57
 541 -13 541 -13 526 10 c 0,58,59
 510 33 510 33 481.5 78.5 c 128,-1,60
 453 124 453 124 437.5 146.5 c 128,-1,61
 422 169 422 169 391 199.5 c 128,-1,62
 360 230 360 230 322 253 c 0,63,64
 293 271 293 271 265 274 c 1,65,-1
 264 56 l 1,66,67
 320 55 320 55 346.5 49 c 128,-1,68
 373 43 373 43 381 43 c 0,0,1
349 571 m 0,69,70
 327 571 327 571 302 555.5 c 128,-1,71
 277 540 277 540 264 527 c 1,72,-1
 265 362 l 1,73,74
 308 308 308 308 383 308 c 0,75,76
 442 308 442 308 463.5 339 c 128,-1,77
 485 370 485 370 485 438 c 0,78,79
 485 507 485 507 452 539 c 128,-1,80
 419 571 419 571 349 571 c 0,69,70
EndSplineSet
Validated: 1
EndChar

StartChar: S
Encoding: 83 83 54
Width: 636
VWidth: -12
Flags: W
HStem: -28 83<287.761 432.611> 246 126<197.27 318.063> 587 69<226.983 334.5> 605 20G<544 555.5>
VStem: 34 51<-93.3002 -68> 81 101<348 501.671> 507 103<154.207 295.795>
DStem2: 34 -70 83.5 -75.5 0.348488 0.937313<-12.6386 105.916> 499 550 527 512 0.5547 0.83205<0 86.6212>
LayerCount: 2
Back
Fore
SplineSet
134 163 m 1,0,1
 296 55 296 55 379 55 c 0,2,3
 420 55 420 55 463.5 109 c 128,-1,4
 507 163 507 163 507 222 c 0,5,6
 507 257 507 257 491.5 285 c 128,-1,7
 476 313 476 313 458 313 c 0,8,9
 432 313 432 313 348 279.5 c 128,-1,10
 264 246 264 246 210 246 c 0,11,12
 146 246 146 246 113.5 283 c 128,-1,13
 81 320 81 320 81 376 c 0,14,15
 81 504 81 504 153 580 c 128,-1,16
 225 656 225 656 318 656 c 0,17,18
 351 656 351 656 403 623.5 c 128,-1,19
 455 591 455 591 499 550 c 1,20,-1
 528 602 l 2,21,22
 537 625 537 625 551 625 c 0,23,24
 560 625 560 625 569 618.5 c 128,-1,25
 578 612 578 612 578 602 c 0,26,27
 578 584 578 584 571 577 c 2,28,-1
 527 512 l 2,29,30
 509 485 509 485 471 427 c 1,31,32
 489 430 489 430 503 430 c 0,33,34
 534 430 534 430 556 414 c 128,-1,35
 578 398 578 398 589 372 c 128,-1,36
 600 346 600 346 605 320.5 c 128,-1,37
 610 295 610 295 610 269 c 0,38,39
 610 205 610 205 585 147.5 c 128,-1,40
 560 90 560 90 522.5 52.5 c 128,-1,41
 485 15 485 15 442 -6.5 c 128,-1,42
 399 -28 399 -28 362 -28 c 0,43,44
 299 -28 299 -28 226 -16 c 128,-1,45
 153 -4 153 -4 112 14 c 1,46,-1
 85 -68 l 2,47,48
 85 -70 85 -70 83.5 -75.5 c 128,-1,49
 82 -81 82 -81 76.5 -87.5 c 128,-1,50
 71 -94 71 -94 62 -94 c 128,-1,51
 53 -94 53 -94 43.5 -87 c 128,-1,52
 34 -80 34 -80 34 -70 c 2,53,-1
 41 -47 l 2,54,55
 46 -36 46 -36 77.5 47 c 128,-1,56
 109 130 109 130 134 163 c 1,0,1
241 372 m 128,-1,58
 265 372 265 372 292.5 379 c 128,-1,59
 320 386 320 386 358 399 c 128,-1,60
 396 412 396 412 415 417 c 1,61,62
 299 587 299 587 259 587 c 0,63,64
 236 587 236 587 209 538 c 128,-1,65
 182 489 182 489 182 428 c 0,66,67
 182 403 182 403 199.5 387.5 c 128,-1,57
 217 372 217 372 241 372 c 128,-1,58
EndSplineSet
Validated: 1
EndChar

StartChar: U
Encoding: 85 85 55
Width: 720
VWidth: -15
Flags: W
HStem: -31 74<277.65 425.322>
VStem: 99 113<111.234 602.889> 523 112<112.477 601.194>
LayerCount: 2
Back
Fore
SplineSet
227 652 m 1,0,1
 218 602 218 602 215.5 533.5 c 128,-1,2
 213 465 213 465 212 211 c 0,3,4
 212 128 212 128 253 85.5 c 128,-1,5
 294 43 294 43 352 43 c 0,6,7
 369 43 369 43 388.5 46 c 128,-1,8
 408 49 408 49 433 59 c 128,-1,9
 458 69 458 69 477 84.5 c 128,-1,10
 496 100 496 100 509.5 129 c 128,-1,11
 523 158 523 158 523 195 c 0,12,13
 523 230 523 230 522 366 c 128,-1,14
 521 502 521 502 521 556 c 0,15,16
 521 579 521 579 510 592 c 128,-1,17
 499 605 499 605 488 611.5 c 128,-1,18
 477 618 477 618 477 626 c 0,19,20
 477 642 477 642 526 648 c 128,-1,21
 575 654 575 654 622 654 c 0,22,23
 639 654 639 654 639 577 c 2,24,-1
 635 123 l 2,25,26
 635 94 635 94 645.5 75 c 128,-1,27
 656 56 656 56 669 50 c 128,-1,28
 682 44 682 44 692.5 36 c 128,-1,29
 703 28 703 28 703 19 c 0,30,31
 703 4 703 4 683.5 -11.5 c 128,-1,32
 664 -27 664 -27 635 -27 c 0,33,34
 609 -27 609 -27 579 -3 c 128,-1,35
 549 21 549 21 535 54 c 1,36,37
 505 17 505 17 430.5 -7 c 128,-1,38
 356 -31 356 -31 299 -31 c 0,39,40
 222 -31 222 -31 160.5 42 c 128,-1,41
 99 115 99 115 99 216 c 0,42,43
 99 254 99 254 101 413 c 128,-1,44
 103 572 103 572 103 580 c 0,45,46
 103 594 103 594 74 605.5 c 128,-1,47
 45 617 45 617 45 629 c 0,48,49
 45 636 45 636 70 641 c 128,-1,50
 95 646 95 646 130.5 648.5 c 128,-1,51
 166 651 166 651 187.5 651.5 c 128,-1,52
 209 652 209 652 217 652 c 2,53,-1
 227 652 l 1,0,1
EndSplineSet
Validated: 1
EndChar

StartChar: T
Encoding: 84 84 56
Width: 683
VWidth: -17
Flags: W
HStem: -14 58.5<149.657 288.992 408.255 559.475> -2.5 47<408.255 559.031> 531.5 70.5<403.402 614.967> 542 80<74.5458 286.612>
VStem: 18 52<480.076 527.042> 293 110<55.7238 525.875> 624 59<618.479 664.06>
LayerCount: 2
Back
Fore
SplineSet
18 523 m 0,0,1
 18 569 18 569 42 595.5 c 128,-1,2
 66 622 66 622 109 622 c 0,3,4
 194 622 194 622 331.5 612 c 128,-1,5
 469 602 469 602 496 602 c 0,6,7
 542 602 542 602 583 612.5 c 128,-1,8
 624 623 624 623 624 636 c 0,9,10
 624 642 624 642 598 668 c 1,11,-1
 589 674 l 1,12,-1
 649 713 l 1,13,-1
 651.5 710.5 l 2,14,15
 654 708 654 708 657 705.5 c 128,-1,16
 660 703 660 703 663.5 698.5 c 128,-1,17
 667 694 667 694 670.5 689.5 c 128,-1,18
 674 685 674 685 677 679.5 c 128,-1,19
 680 674 680 674 681.5 667.5 c 128,-1,20
 683 661 683 661 683 654 c 0,21,22
 683 651 683 651 681.5 641 c 128,-1,23
 680 631 680 631 671.5 611.5 c 128,-1,24
 663 592 663 592 649 575.5 c 128,-1,25
 635 559 635 559 607.5 546 c 128,-1,26
 580 533 580 533 543 533 c 0,27,28
 490 533 490 533 475 531.5 c 128,-1,29
 460 530 460 530 430 530 c 0,30,31
 420 530 420 530 413.5 527 c 128,-1,32
 407 524 407 524 405 521 c 128,-1,33
 403 518 403 518 403 515 c 2,34,-1
 403 78 l 2,35,36
 403 62 403 62 429.5 54.5 c 128,-1,37
 456 47 456 47 487.5 44.5 c 128,-1,38
 519 42 519 42 545.5 30.5 c 128,-1,39
 572 19 572 19 572 -4 c 2,40,-1
 572 -13 l 1,41,-1
 565 -13 l 2,42,43
 536 -12 536 -12 446.5 -2.5 c 128,-1,44
 357 7 357 7 335 7 c 0,45,46
 310 7 310 7 257.5 -2.5 c 128,-1,47
 205 -12 205 -12 146 -14 c 2,48,-1
 137 -14 l 1,49,-1
 137 -6 l 2,50,51
 137 18 137 18 161.5 30 c 128,-1,52
 186 42 186 42 215 44.5 c 128,-1,53
 244 47 244 47 268.5 54.5 c 128,-1,54
 293 62 293 62 293 78 c 2,55,-1
 293 515 l 1,56,57
 285 527 285 527 221 534.5 c 128,-1,58
 157 542 157 542 97 542 c 0,59,60
 80 542 80 542 75 527.5 c 128,-1,61
 70 513 70 513 70 479 c 2,62,-1
 70 470 l 1,63,64
 52 475 52 475 43.5 478.5 c 128,-1,65
 35 482 35 482 26.5 493 c 128,-1,66
 18 504 18 504 18 523 c 0,0,1
EndSplineSet
Validated: 1
EndChar

StartChar: V
Encoding: 86 86 57
Width: 614
VWidth: -15
Flags: W
VStem: 537 78<519.555 640.004>
DStem2: 191 564 105 511 0.407557 -0.91318<-93.4983 319.742 434.317 471.635>
LayerCount: 2
Back
Fore
SplineSet
26 622 m 0,0,1
 26 638 26 638 55.5 646.5 c 128,-1,2
 85 655 85 655 124 655 c 0,3,4
 145 655 145 655 191 564 c 128,-1,5
 237 473 237 473 298.5 330.5 c 128,-1,6
 360 188 360 188 387 135 c 1,7,8
 396 159 396 159 415.5 206 c 128,-1,9
 435 253 435 253 446 281 c 128,-1,10
 457 309 457 309 473.5 349.5 c 128,-1,11
 490 390 490 390 499.5 415.5 c 128,-1,12
 509 441 509 441 518.5 468 c 128,-1,13
 528 495 528 495 532.5 511 c 128,-1,14
 537 527 537 527 537 534 c 0,15,16
 537 536 537 536 526 568 c 128,-1,17
 515 600 515 600 515 630 c 0,18,19
 515 652 515 652 581 652 c 0,20,21
 615 652 615 652 615 622 c 0,22,23
 615 565 615 565 507.5 264 c 128,-1,24
 400 -37 400 -37 368 -37 c 0,25,26
 356 -37 356 -37 331.5 3.5 c 128,-1,27
 307 44 307 44 274.5 115 c 128,-1,28
 242 186 242 186 214 251 c 128,-1,29
 186 316 186 316 152 398.5 c 128,-1,30
 118 481 118 481 105 511 c 0,31,32
 94 538 94 538 79 559 c 128,-1,33
 64 580 64 580 53 589 c 128,-1,34
 42 598 42 598 34 606.5 c 128,-1,35
 26 615 26 615 26 622 c 0,0,1
EndSplineSet
Validated: 1
EndChar

StartChar: W
Encoding: 87 87 58
Width: 974
VWidth: -14
Flags: W
VStem: 902 72<511.213 636.677>
DStem2: 185.5 565.5 107 512 0.358365 -0.933582<-81.566 461.282> 359 138 423 122 0.342494 0.93952<1.61655 350.845> 605 511.5 533 448 0.377297 -0.926092<31.6415 411.854>
LayerCount: 2
Back
Fore
SplineSet
902 530 m 0,0,1
 902 532 902 532 892 564 c 128,-1,2
 882 596 882 596 882 626 c 0,3,4
 882 649 882 649 943 649 c 0,5,6
 974 649 974 649 974 620 c 0,7,8
 974 563 974 563 877.5 262 c 128,-1,9
 781 -39 781 -39 752 -39 c 0,10,11
 744 -39 744 -39 732 -22 c 128,-1,12
 720 -5 720 -5 703.5 29.5 c 128,-1,13
 687 64 687 64 671.5 99 c 128,-1,14
 656 134 656 134 634.5 187.5 c 128,-1,15
 613 241 613 241 599 277.5 c 128,-1,16
 585 314 585 314 563.5 369.5 c 128,-1,17
 542 425 542 425 533 448 c 1,18,19
 483 281 483 281 423 122 c 128,-1,20
 363 -37 363 -37 341 -37 c 0,21,22
 323 -37 323 -37 283 53.5 c 128,-1,23
 243 144 243 144 177.5 321 c 128,-1,24
 112 498 112 498 107 512 c 0,25,26
 94 547 94 547 75.5 570.5 c 128,-1,27
 57 594 57 594 46 604 c 128,-1,28
 35 614 35 614 35 622 c 0,29,30
 35 638 35 638 62 646.5 c 128,-1,31
 89 655 89 655 125 655 c 0,32,33
 145 655 145 655 185.5 565.5 c 128,-1,34
 226 476 226 476 280.5 333 c 128,-1,35
 335 190 335 190 359 138 c 1,36,37
 428 331 428 331 482 474 c 0,38,39
 487 487 487 487 505 544 c 128,-1,40
 523 601 523 601 536 627 c 2,41,-1
 542 640 l 1,42,-1
 550 627 l 2,43,44
 567 598 567 598 605 511.5 c 128,-1,45
 643 425 643 425 692.5 310 c 128,-1,46
 742 195 742 195 770 134 c 1,47,48
 902 499 902 499 902 530 c 0,0,1
EndSplineSet
Validated: 1
EndChar

StartChar: X
Encoding: 88 88 59
Width: 614
VWidth: -15
Flags: W
HStem: -18 78<49.2402 105.871> 546 100<72.2852 129.73>
DStem2: 184 147 214.5 60 0.456115 0.889921<-87.8997 37.384 103.844 138.048 305.548 477.506>
LayerCount: 2
Back
Fore
SplineSet
570 91 m 1,0,1
 573 89 573 89 581 86 c 128,-1,2
 589 83 589 83 593 78.5 c 128,-1,3
 597 74 597 74 597 65 c 0,4,5
 597 48 597 48 569.5 15.5 c 128,-1,6
 542 -17 542 -17 514 -17 c 0,7,8
 476 -17 476 -17 456 -8.5 c 128,-1,9
 436 0 436 0 416 25 c 0,10,11
 388 61 388 61 306 240 c 1,12,13
 269 138 269 138 214.5 60 c 128,-1,14
 160 -18 160 -18 115 -18 c 0,15,16
 82 -18 82 -18 58 -2.5 c 128,-1,17
 34 13 34 13 34 34 c 0,18,19
 34 46 34 46 49.5 52 c 128,-1,20
 65 58 65 58 83.5 60 c 128,-1,21
 102 62 102 62 106 65 c 0,22,23
 145 91 145 91 184 147 c 128,-1,24
 223 203 223 203 239 235.5 c 128,-1,25
 255 268 255 268 266 294 c 1,26,27
 249 329 249 329 196 421 c 128,-1,28
 143 513 143 513 115 546 c 1,29,30
 34 546 34 546 34 575 c 0,31,32
 34 596 34 596 67.5 621 c 128,-1,33
 101 646 101 646 120 646 c 0,34,35
 196 646 196 646 331 415 c 1,36,37
 436 643 436 643 512 643 c 0,38,39
 526 643 526 643 540 629 c 128,-1,40
 554 615 554 615 554 603 c 0,41,42
 554 576 554 576 508 552 c 0,43,44
 472 533 472 533 426 460.5 c 128,-1,45
 380 388 380 388 361 347 c 0,46,47
 363 343 363 343 373 322 c 128,-1,48
 383 301 383 301 394.5 278.5 c 128,-1,49
 406 256 406 256 421 226.5 c 128,-1,50
 436 197 436 197 449.5 170.5 c 128,-1,51
 463 144 463 144 476.5 120.5 c 128,-1,52
 490 97 490 97 500 82 c 128,-1,53
 510 67 510 67 515 64 c 0,54,55
 536 68 536 68 570 91 c 1,0,1
EndSplineSet
Validated: 1
EndChar

StartChar: Y
Encoding: 89 89 60
Width: 458
VWidth: -15
Flags: W
HStem: -8 53<103.168 205.457 320.067 400.545> -8 45.5<320.067 400.545>
VStem: 209 106<48 325.943> 385 73<520.979 634.071>
DStem2: 160.5 576 71 551 0.478713 -0.877971<-82.1899 251.717> 281 355 320 301 0.470932 0.882169<0 263.823> 383.5 37.5 340 -1.5 0.982043 -0.188656<-71.1935 2.9013>
LayerCount: 2
Back
Fore
SplineSet
108 646 m 1,0,1
 133 624 133 624 160.5 576 c 128,-1,2
 188 528 188 528 222.5 460.5 c 128,-1,3
 257 393 257 393 281 355 c 1,4,5
 317 415 317 415 331.5 440 c 128,-1,6
 346 465 346 465 365.5 509 c 128,-1,7
 385 553 385 553 385 577 c 0,8,9
 385 621 385 621 393.5 634.5 c 128,-1,10
 402 648 402 648 430 648 c 128,-1,11
 458 648 458 648 458 615 c 0,12,13
 458 592 458 592 451 564.5 c 128,-1,14
 444 537 444 537 426.5 500.5 c 128,-1,15
 409 464 409 464 396.5 440 c 128,-1,16
 384 416 384 416 357.5 368.5 c 128,-1,17
 331 321 331 321 320 301 c 1,18,19
 320 276 320 276 317.5 220.5 c 128,-1,20
 315 165 315 165 315 147 c 0,21,22
 315 98 315 98 320 48 c 0,23,24
 322 47 322 47 344 45 c 128,-1,25
 366 43 366 43 383.5 37.5 c 128,-1,26
 401 32 401 32 401 22 c 0,27,28
 401 -8 401 -8 378 -8 c 0,29,30
 369 -8 369 -8 340 -1.5 c 128,-1,31
 311 5 311 5 295 5 c 0,32,33
 243 5 243 5 180.5 -1 c 128,-1,34
 118 -7 118 -7 117 -7 c 0,35,36
 115 -8 115 -8 111 -8 c 0,37,38
 98 -8 98 -8 98 10 c 0,39,40
 98 42 98 42 206 48 c 1,41,42
 206 54 206 54 207.5 87 c 128,-1,43
 209 120 209 120 209 143 c 0,44,45
 209 209 209 209 203 299 c 1,46,47
 165 364 165 364 128 442 c 128,-1,48
 91 520 91 520 71 551 c 128,-1,49
 51 582 51 582 22 595 c 1,50,-1
 22 601 l 2,51,52
 22 617 22 617 51.5 631 c 128,-1,53
 81 645 81 645 104 646 c 2,54,-1
 108 646 l 1,0,1
EndSplineSet
Validated: 1
EndChar

StartChar: Z
Encoding: 90 90 61
Width: 630
VWidth: -10
Flags: W
HStem: -14 21G<34 83.5> -7 119.5<223.142 552.108> 0 114<219 424.642> 553 105<76.3613 355.803> 561 82<357.948 462> 569 81.5<105.131 459.667>
VStem: 43 14<506 514.589> 548 63.5<-125.365 -7> 548 49.5<-144.417 -8.87256>
DStem2: 249.5 287 219 114 0.606555 0.795041<-156.042 236.326> 402 484 475.5 477.5 0.606555 0.795041<-376.551 -249.123 0 95.6083>
LayerCount: 2
Back
Fore
SplineSet
533 651 m 7,0,1
 561 651 561 651 561 621 c 0,2,3
 561 604 561 604 475.5 477.5 c 128,-1,4
 390 351 390 351 304.5 232.5 c 2,5,-1
 219 114 l 1,6,7
 352 114 352 114 427 112.5 c 128,-1,8
 502 111 502 111 545.5 106 c 128,-1,9
 589 101 589 101 601.5 94 c 128,-1,10
 614 87 614 87 614 74 c 0,11,12
 614 59 614 59 613.5 43 c 128,-1,13
 613 27 613 27 611.5 -1.5 c 128,-1,14
 610 -30 610 -30 606.5 -53.5 c 128,-1,15
 603 -77 603 -77 597.5 -100 c 128,-1,16
 592 -123 592 -123 583 -136 c 128,-1,17
 574 -149 574 -149 562 -149 c 0,18,19
 548 -149 548 -149 548 -117 c 0,20,21
 548 -67 548 -67 553 -7 c 1,22,23
 266 0 266 0 262 0 c 0,24,25
 221 0 221 0 168.5 -3.5 c 128,-1,26
 116 -7 116 -7 83.5 -10.5 c 2,27,-1
 51 -14 l 1,28,-1
 34 -14 l 1,29,-1
 34 0 l 1,30,31
 150 157 150 157 249.5 287 c 128,-1,32
 349 417 349 417 402 484 c 128,-1,33
 455 551 455 551 462 561 c 1,34,35
 387 569 387 569 357 569 c 0,36,37
 319 569 319 569 243 561 c 128,-1,38
 167 553 167 553 112 553 c 0,39,40
 100 553 100 553 86.5 541 c 128,-1,41
 73 529 73 529 65 518 c 128,-1,42
 57 507 57 507 57 506 c 2,43,-1
 43 481 l 1,44,-1
 43 510 l 2,45,46
 46 658 46 658 83 658 c 0,47,48
 150 658 150 658 308 650.5 c 128,-1,49
 466 643 466 643 476 643 c 0,50,51
 501 643 501 643 510 647 c 128,-1,52
 519 651 519 651 533 651 c 7,0,1
EndSplineSet
Validated: 1
EndChar

StartChar: dieresis
Encoding: 168 168 62
Width: 262
VWidth: -31
Flags: W
HStem: 421 111<20.585 91.7227 163.054 233.322>
VStem: -1 119<446.506 506.538> 141 118<446.487 507.159>
LayerCount: 2
Back
Fore
SplineSet
200 421 m 128,-1,1
 188 421 188 421 164.5 440.5 c 128,-1,2
 141 460 141 460 141 475 c 0,3,4
 141 487 141 487 162.5 509.5 c 128,-1,5
 184 532 184 532 196 532 c 0,6,7
 205 532 205 532 232 511 c 128,-1,8
 259 490 259 490 259 480 c 0,9,10
 259 469 259 469 235.5 445 c 128,-1,0
 212 421 212 421 200 421 c 128,-1,1
58 421 m 0,11,12
 45 421 45 421 22 441 c 128,-1,13
 -1 461 -1 461 -1 475 c 0,14,15
 -1 487 -1 487 20 509.5 c 128,-1,16
 41 532 41 532 53 532 c 0,17,18
 62 532 62 532 90 511 c 128,-1,19
 118 490 118 490 118 480 c 0,20,21
 118 469 118 469 94 445 c 128,-1,22
 70 421 70 421 58 421 c 0,11,12
EndSplineSet
Validated: 1
EndChar

StartChar: degree
Encoding: 176 176 71
Width: 426
VWidth: -29
Flags: W
HStem: 363 51<128.936 191.391> 506 50<104.747 170.281>
VStem: 32 70<440.802 504.215> 192 72<414.338 484.603>
LayerCount: 2
Back
Fore
SplineSet
192 433 m 7,0,1
 192 458 192 458 172 482 c 128,-1,2
 152 506 152 506 132 506 c 0,3,4
 111 506 111 506 106.5 503 c 128,-1,5
 102 500 102 500 102 489 c 0,6,7
 102 462 102 462 127 438 c 128,-1,8
 152 414 152 414 168 414 c 0,9,10
 192 414 192 414 192 433 c 7,0,1
161 363 m 0,11,12
 111 363 111 363 71.5 393.5 c 128,-1,13
 32 424 32 424 32 463 c 0,14,15
 32 509 32 509 64 532.5 c 128,-1,16
 96 556 96 556 150 556 c 0,17,18
 190 556 190 556 227 527.5 c 128,-1,19
 264 499 264 499 264 474 c 0,20,21
 264 426 264 426 237 394.5 c 128,-1,22
 210 363 210 363 161 363 c 0,11,12
EndSplineSet
Validated: 1
EndChar

StartChar: asciicircum
Encoding: 94 94 75
Width: 442
VWidth: -28
Flags: W
HStem: 364 32<364.641 411.926>
VStem: 40 71<373 414.092>
DStem2: 102.5 461.5 148.5 427.5 0.872779 0.488115<-30.3493 108.538> 286.5 488.5 213 468 0.741351 -0.671118<-48.2391 133.824>
LayerCount: 2
Back
Fore
SplineSet
216 532 m 5,0,1
 255 514 255 514 286.5 488.5 c 128,-1,2
 318 463 318 463 333 443.5 c 128,-1,3
 348 424 348 424 367 410 c 128,-1,4
 386 396 386 396 407 396 c 2,5,-1
 414 396 l 1,6,-1
 414 388 l 2,7,8
 414 364 414 364 355 364 c 0,9,10
 333 364 333 364 308 382 c 128,-1,11
 283 400 283 400 254 429.5 c 128,-1,12
 225 459 225 459 213 468 c 1,13,14
 176 449 176 449 148.5 427.5 c 128,-1,15
 121 406 121 406 120 398 c 0,16,17
 120 397 120 397 111 379 c 1,18,-1
 111 373 l 1,19,20
 62 366 62 366 59 366 c 0,21,22
 40 366 40 366 40 384 c 0,23,24
 41 415 41 415 102.5 461.5 c 128,-1,25
 164 508 164 508 216 532 c 5,0,1
EndSplineSet
Validated: 1
EndChar

StartChar: acute
Encoding: 180 180 87
Width: 208
VWidth: -34
Flags: W
HStem: 401 208
VStem: 15 178
LayerCount: 2
Back
Fore
SplineSet
153 609 m 4,0,1
 193 609 193 609 193 577 c 0,2,3
 193 548 193 548 126.5 474.5 c 128,-1,4
 60 401 60 401 25 401 c 2,5,-1
 15 401 l 1,6,-1
 18 412 l 2,7,8
 38 487 38 487 81.5 548 c 128,-1,9
 125 609 125 609 153 609 c 4,0,1
EndSplineSet
Validated: 1
EndChar

StartChar: grave
Encoding: 96 96 88
Width: 208
VWidth: -34
Flags: W
HStem: 401 208
VStem: 15 178
LayerCount: 2
Back
Fore
SplineSet
15 577 m 0,0,1
 15 609 15 609 55 609 c 0,2,3
 84 609 84 609 130.5 543 c 128,-1,4
 177 477 177 477 193 401 c 1,5,-1
 184 401 l 2,6,7
 149 401 149 401 82 474.5 c 128,-1,8
 15 548 15 548 15 577 c 0,0,1
EndSplineSet
Validated: 1
EndChar

StartChar: dotlessi
Encoding: 305 305 105
Width: 226
VWidth: -4
Flags: W
HStem: -18 21G<54.9353 77.5>
VStem: 55 93<66 321.15>
LayerCount: 2
Back
Fore
SplineSet
219 75 m 0,0,1
 219 58 219 58 155.5 20 c 128,-1,2
 92 -18 92 -18 63 -18 c 2,3,-1
 55 -18 l 1,4,-1
 54 291 l 2,5,6
 54 305 54 305 46.5 312.5 c 128,-1,7
 39 320 39 320 29.5 322 c 128,-1,8
 20 324 20 324 12.5 328.5 c 128,-1,9
 5 333 5 333 5 343 c 0,10,11
 7 358 7 358 60.5 374 c 128,-1,12
 114 390 114 390 148 393 c 1,13,-1
 148 66 l 1,14,15
 155 68 155 68 167.5 76 c 128,-1,16
 180 84 180 84 188.5 91.5 c 2,17,-1
 197 99 l 1,18,-1
 201 103 l 1,19,-1
 206 97 l 2,20,21
 219 86 219 86 219 75 c 0,0,1
EndSplineSet
Validated: 1
EndChar

StartChar: asciitilde
Encoding: 126 126 113
Width: 471
VWidth: -14
Flags: W
HStem: 236 78<273.902 401.658> 302 77<78.1404 215.559>
VStem: 444 15<366 369>
DStem2: 227.5 362.5 199.5 291.5 0.878165 -0.478358<-34.8371 116.888> 442.5 366 448 323 0.242536 0.970143<-23.3855 6.18466>
LayerCount: 2
Back
Fore
SplineSet
154 379 m 0,0,1
 196 379 196 379 227.5 362.5 c 128,-1,2
 259 346 259 346 284 330 c 128,-1,3
 309 314 309 314 335 314 c 0,4,5
 363 314 363 314 384.5 320 c 128,-1,6
 406 326 406 326 416.5 334.5 c 128,-1,7
 427 343 427 343 434 351.5 c 128,-1,8
 441 360 441 360 442.5 366 c 2,9,-1
 444 372 l 1,10,-1
 459 369 l 1,11,12
 459 364 459 364 457.5 355 c 128,-1,13
 456 346 456 346 448 323 c 128,-1,14
 440 300 440 300 427.5 282.5 c 128,-1,15
 415 265 415 265 388.5 250.5 c 128,-1,16
 362 236 362 236 327 236 c 0,17,18
 284 236 284 236 258.5 246.5 c 128,-1,19
 233 257 233 257 225 269 c 128,-1,20
 217 281 217 281 199.5 291.5 c 128,-1,21
 182 302 182 302 154 302 c 0,22,23
 125 302 125 302 91 286 c 128,-1,24
 57 270 57 270 37 254 c 2,25,-1
 17 238 l 1,26,-1
 4 227 l 1,27,-1
 5 244 l 2,28,29
 5 248 5 248 6.5 258.5 c 128,-1,30
 8 269 8 269 17 291.5 c 128,-1,31
 26 314 26 314 40 332 c 128,-1,32
 54 350 54 350 84 364.5 c 128,-1,33
 114 379 114 379 154 379 c 0,0,1
EndSplineSet
Validated: 1
EndChar

StartChar: Ccedilla
Encoding: 199 199 120
Width: 637
VWidth: -8
Flags: W
HStem: -198 54<313.923 392.7> -20 61<323.583 405.127> 598 64<213.138 334.6>
VStem: 16 100<244.813 456.869> 408 86<-129.03 -19.6768> 559.5 39.5<-81.2788 31>
LayerCount: 2
Back
Fore
SplineSet
599 -63 m 1,0,1
 595 -66 595 -66 589.5 -72 c 128,-1,2
 584 -78 584 -78 579 -81.5 c 128,-1,3
 574 -85 574 -85 569 -85 c 2,4,-1
 567 -85 l 2,5,6
 565 -84 565 -84 563.5 -82.5 c 128,-1,7
 562 -81 562 -81 561 -79 c 128,-1,8
 560 -77 560 -77 560 -73 c 128,-1,9
 560 -69 560 -69 559.5 -64 c 128,-1,10
 559 -59 559 -59 559 -50 c 128,-1,11
 559 -41 559 -41 558.5 -31 c 128,-1,12
 558 -21 558 -21 557 -4 c 128,-1,13
 556 13 556 13 554 31 c 1,14,15
 515 6 515 6 476 -6 c 1,16,17
 494 -35 494 -35 494 -58 c 0,18,19
 494 -115 494 -115 454.5 -156.5 c 128,-1,20
 415 -198 415 -198 359 -198 c 0,21,22
 326 -198 326 -198 294 -171.5 c 128,-1,23
 262 -145 262 -145 262 -111 c 0,24,25
 262 -95 262 -95 278 -95 c 0,26,27
 293 -95 293 -95 312 -119.5 c 128,-1,28
 331 -144 331 -144 335 -144 c 0,29,30
 408 -144 408 -144 408 -71 c 0,31,32
 408 -54 408 -54 401 -19 c 1,33,34
 382 -20 382 -20 311 -20 c 0,35,36
 211 -20 211 -20 143 30.5 c 128,-1,37
 75 81 75 81 45.5 159 c 128,-1,38
 16 237 16 237 16 335 c 0,39,40
 16 410 16 410 49 485 c 128,-1,41
 82 560 82 560 141.5 611 c 128,-1,42
 201 662 201 662 269 662 c 0,43,44
 320 662 320 662 346 659.5 c 128,-1,45
 372 657 372 657 405.5 642 c 128,-1,46
 439 627 439 627 468 596 c 1,47,48
 480 606 480 606 496.5 620.5 c 128,-1,49
 513 635 513 635 521 642 c 128,-1,50
 529 649 529 649 539.5 654.5 c 128,-1,51
 550 660 550 660 560 660 c 0,52,53
 576 660 576 660 576 631 c 0,54,55
 576 591 576 591 450 490 c 1,56,-1
 445 494 l 2,57,58
 441 498 441 498 433 505 c 128,-1,59
 425 512 425 512 402.5 530 c 128,-1,60
 380 548 380 548 358.5 562 c 128,-1,61
 337 576 337 576 309 587 c 128,-1,62
 281 598 281 598 258 598 c 0,63,64
 226 598 226 598 191.5 553.5 c 128,-1,65
 157 509 157 509 136.5 451.5 c 128,-1,66
 116 394 116 394 116 351 c 0,67,68
 116 286 116 286 147.5 226 c 128,-1,69
 179 166 179 166 225 127 c 128,-1,70
 271 88 271 88 320.5 64.5 c 128,-1,71
 370 41 370 41 408 41 c 0,72,73
 422 41 422 41 444 55 c 128,-1,74
 466 69 466 69 512 103 c 128,-1,75
 558 137 558 137 587 157 c 2,76,-1
 600 165 l 1,77,-1
 600 151 l 2,78,79
 600 120 600 120 599.5 49.5 c 128,-1,80
 599 -21 599 -21 599 -60 c 2,81,-1
 599 -63 l 1,0,1
EndSplineSet
Validated: 1
EndChar

StartChar: ccedilla
Encoding: 231 231 121
Width: 378
VWidth: 3
Flags: W
HStem: -153 54<136.565 222.844> -13 68<185.289 239> 318 72<152.284 255.367>
VStem: 20 101<116.419 283.864> 239 85<-81.8973 -11.4939>
DStem2: 293 64.5 327.5 29.5 0.689214 0.724558<-26.5247 71.5661>
LayerCount: 2
Back
Fore
SplineSet
374 104 m 1,0,1
 373 102 373 102 369 93.5 c 128,-1,2
 365 85 365 85 363.5 82.5 c 128,-1,3
 362 80 362 80 358 72.5 c 128,-1,4
 354 65 354 65 351.5 61 c 128,-1,5
 349 57 349 57 344.5 50.5 c 128,-1,6
 340 44 340 44 336.5 39.5 c 128,-1,7
 333 35 333 35 327.5 29.5 c 128,-1,8
 322 24 322 24 317 19 c 1,9,10
 324 2 324 2 324 -14 c 0,11,12
 324 -71 324 -71 285 -112 c 128,-1,13
 246 -153 246 -153 186 -153 c 0,14,15
 150 -153 150 -153 119 -127 c 128,-1,16
 88 -101 88 -101 88 -66 c 0,17,18
 88 -50 88 -50 102 -50 c 0,19,20
 115 -50 115 -50 134.5 -74.5 c 128,-1,21
 154 -99 154 -99 159 -99 c 0,22,23
 239 -99 239 -99 239 -26 c 0,24,25
 239 -15 239 -15 238 -11 c 1,26,27
 218 -13 218 -13 206 -13 c 0,28,29
 121 -13 121 -13 70.5 47.5 c 128,-1,30
 20 108 20 108 20 191 c 0,31,32
 20 289 20 289 73 339.5 c 128,-1,33
 126 390 126 390 221 390 c 0,34,35
 285 390 285 390 324.5 369 c 128,-1,36
 364 348 364 348 364 323 c 0,37,38
 364 309 364 309 354 296 c 128,-1,39
 344 283 344 283 335 277 c 128,-1,40
 326 271 326 271 306 259 c 1,41,42
 292 267 292 267 271 284 c 128,-1,43
 250 301 250 301 232 309.5 c 128,-1,44
 214 318 214 318 188 318 c 0,45,46
 163 318 163 318 142 281.5 c 128,-1,47
 121 245 121 245 121 185 c 0,48,49
 121 133 121 133 163 94 c 128,-1,50
 205 55 205 55 264 55 c 0,51,52
 280 55 280 55 293 64.5 c 128,-1,53
 306 74 306 74 313 85 c 128,-1,54
 320 96 320 96 328 105.5 c 128,-1,55
 336 115 336 115 344 115 c 0,56,57
 351 115 351 115 360 110 c 128,-1,58
 369 105 369 105 374 104 c 1,0,1
EndSplineSet
Validated: 1
EndChar

StartChar: zero
Encoding: 48 48 122
Width: 454
VWidth: -14
Flags: W
HStem: -6 70<195.24 285.426> 560 74<172.428 260.31>
VStem: 40 113<155.962 471.974> 313 113<133.543 466.899>
LayerCount: 2
Back
Fore
SplineSet
153 343 m 7,0,1
 153 303 153 303 153.5 282 c 128,-1,2
 154 261 154 261 155 229 c 128,-1,3
 156 197 156 197 158.5 180 c 128,-1,4
 161 163 161 163 166 140.5 c 128,-1,5
 171 118 171 118 178.5 107 c 128,-1,6
 186 96 186 96 196.5 84.5 c 128,-1,7
 207 73 207 73 221.5 68.5 c 128,-1,8
 236 64 236 64 255 64 c 0,9,10
 284 64 284 64 298.5 117 c 128,-1,11
 313 170 313 170 313 244 c 0,12,13
 313 409 313 409 290 484.5 c 128,-1,14
 267 560 267 560 207 560 c 0,15,16
 173 560 173 560 163 511.5 c 128,-1,17
 153 463 153 463 153 343 c 7,0,1
234 -6 m 7,18,19
 176 -6 176 -6 130.5 40.5 c 128,-1,20
 85 87 85 87 62.5 155.5 c 128,-1,21
 40 224 40 224 40 299 c 0,22,23
 40 365 40 365 50.5 422.5 c 128,-1,24
 61 480 61 480 82.5 528.5 c 128,-1,25
 104 577 104 577 143 605.5 c 128,-1,26
 182 634 182 634 234 634 c 0,27,28
 296 634 296 634 341 584 c 128,-1,29
 386 534 386 534 406 460 c 128,-1,30
 426 386 426 386 426 299 c 0,31,32
 426 158 426 158 378.5 76 c 128,-1,33
 331 -6 331 -6 234 -6 c 7,18,19
EndSplineSet
Validated: 1
EndChar

StartChar: one
Encoding: 49 49 123
Width: 392
VWidth: -14
Flags: W
HStem: -7 52<34.1077 159.741 261.664 366.804>
VStem: 163 97<58 534.998>
LayerCount: 2
Back
Fore
SplineSet
378 17 m 0,0,1
 378 7 378 7 369.5 -1 c 128,-1,2
 361 -9 361 -9 349 -9 c 0,3,4
 329 -9 329 -9 269 -4.5 c 128,-1,5
 209 0 209 0 191 0 c 0,6,7
 168 0 168 0 121.5 -3.5 c 128,-1,8
 75 -7 75 -7 51 -7 c 0,9,10
 34 -7 34 -7 34 18 c 0,11,12
 34 40 34 40 43 45 c 0,13,14
 58 52 58 52 163 58 c 1,15,-1
 162 525 l 2,16,17
 162 535 162 535 152 535 c 0,18,19
 143 535 143 535 101 521.5 c 128,-1,20
 59 508 59 508 48 508 c 0,21,22
 43 508 43 508 41 510 c 128,-1,23
 39 512 39 512 37.5 522 c 128,-1,24
 36 532 36 532 36 553 c 0,25,26
 36 563 36 563 121.5 597 c 128,-1,27
 207 631 207 631 259 646 c 1,28,-1
 260 56 l 1,29,30
 276 56 276 56 318.5 51.5 c 128,-1,31
 361 47 361 47 367 44 c 0,32,33
 378 39 378 39 378 17 c 0,0,1
EndSplineSet
Validated: 1
EndChar

StartChar: two
Encoding: 50 50 124
Width: 539
VWidth: -14
Flags: W
HStem: -17 21G<75 114> -4 104<220.115 441.936> 542 101<191.809 317.34>
VStem: 347 100<398.178 513.39> 457 44<107.469 174.296>
DStem2: 177.5 169 218 100 0.609084 0.793105<-28.4917 293.262>
LayerCount: 2
Back
Fore
SplineSet
457 137 m 0,0,1
 457 181 457 181 477 181 c 0,2,3
 486 181 486 181 493.5 174.5 c 128,-1,4
 501 168 501 168 501 156 c 0,5,6
 501 -15 501 -15 470 -15 c 0,7,8
 468 -15 468 -15 381.5 -9.5 c 128,-1,9
 295 -4 295 -4 258 -4 c 0,10,11
 176 -4 176 -4 52 -17 c 1,12,13
 98 63 98 63 177.5 169 c 128,-1,14
 257 275 257 275 302 345 c 128,-1,15
 347 415 347 415 347 458 c 0,16,17
 347 497 347 497 318 519.5 c 128,-1,18
 289 542 289 542 248 542 c 0,19,20
 210 542 210 542 184.5 513 c 128,-1,21
 159 484 159 484 149 449 c 128,-1,22
 139 414 139 414 126 385 c 128,-1,23
 113 356 113 356 97 356 c 0,24,25
 80 356 80 356 72 368.5 c 128,-1,26
 64 381 64 381 64 394 c 0,27,28
 64 483 64 483 124 563 c 128,-1,29
 184 643 184 643 261 643 c 0,30,31
 334 643 334 643 390.5 595 c 128,-1,32
 447 547 447 547 447 470 c 0,33,34
 447 435 447 435 408.5 367 c 128,-1,35
 370 299 370 299 335.5 253 c 128,-1,36
 301 207 301 207 238.842835409 126.739286743 c 0,37,38
 225 109 225 109 218 100 c 1,39,40
 246 100 246 100 289.5 100 c 128,-1,41
 333 100 333 100 353 100.5 c 128,-1,42
 373 101 373 101 396.5 101.5 c 128,-1,43
 420 102 420 102 430 103.5 c 128,-1,44
 440 105 440 105 442 107 c 0,45,46
 457 122 457 122 457 137 c 0,0,1
EndSplineSet
Validated: 1
EndChar

StartChar: three
Encoding: 51 51 125
Width: 475
VWidth: -13
Flags: W
HStem: -25 71<195.304 309.024> 530 90<112 294>
VStem: 77 35<489.094 530> 334 113<71.8801 234.355>
DStem2: 47 12 81 20 0.325794 0.945441<-29.9907 49.6846> 294 530 269 388 0.577236 0.816577<-130.385 0>
LayerCount: 2
Back
Fore
SplineSet
254 46 m 7,0,1
 295 46 295 46 314.5 75 c 128,-1,2
 334 104 334 104 334 171 c 0,3,4
 334 212 334 212 305.5 242 c 128,-1,5
 277 272 277 272 234 286 c 128,-1,6
 191 300 191 300 169.5 305 c 128,-1,7
 148 310 148 310 132 312 c 1,8,-1
 294 530 l 1,9,-1
 112 530 l 2,10,11
 112 528 112 528 112 520.5 c 128,-1,12
 112 513 112 513 111 508.5 c 128,-1,13
 110 504 110 504 108.5 498 c 128,-1,14
 107 492 107 492 103 489 c 128,-1,15
 99 486 99 486 92 486 c 0,16,17
 82 486 82 486 77 515 c 128,-1,18
 72 544 72 544 72 570 c 2,19,-1
 72 620 l 1,20,-1
 433 620 l 1,21,-1
 269 388 l 1,22,23
 291 382 291 382 316 370.5 c 128,-1,24
 341 359 341 359 373 336 c 128,-1,25
 405 313 405 313 426 273.5 c 128,-1,26
 447 234 447 234 447 185 c 0,27,28
 447 87 447 87 399 31 c 128,-1,29
 351 -25 351 -25 257 -25 c 0,30,31
 233 -25 233 -25 203.5 -14.5 c 128,-1,32
 174 -4 174 -4 155.5 7 c 128,-1,33
 137 18 137 18 114 34 c 128,-1,34
 91 50 91 50 90 50 c 0,35,36
 86 43 86 43 81 20 c 128,-1,37
 76 -3 76 -3 70 -19.5 c 128,-1,38
 64 -36 64 -36 57 -36 c 0,39,40
 41 -36 41 -36 41 -18 c 0,41,42
 41 -7 41 -7 47 12 c 128,-1,43
 53 31 53 31 61.5 52 c 128,-1,44
 70 73 70 73 72 78 c 2,45,-1
 98 160 l 1,46,47
 108 147 108 147 124.5 128 c 128,-1,48
 141 109 141 109 182.5 77.5 c 128,-1,49
 224 46 224 46 254 46 c 7,0,1
EndSplineSet
Validated: 1
EndChar

StartChar: four
Encoding: 52 52 126
Width: 513
VWidth: -14
Flags: W
HStem: -8 54<200 294.083 394.001 486> 198 87<144 294> 209 84<392 426.797> 592 38<392 457.929>
VStem: 294 98<51.3352 204 293 507>
LayerCount: 2
Back
Fore
SplineSet
144 285 m 1,0,-1
 294 289 l 1,1,-1
 294 507 l 1,2,3
 228 390 228 390 144 285 c 1,0,-1
473 346 m 1,4,5
 473 248 473 248 450 230 c 0,6,7
 429 212 429 212 392 209 c 1,8,-1
 393 59 l 1,9,10
 414 46 414 46 480 46 c 2,11,-1
 486 46 l 1,12,-1
 488 40 l 2,13,14
 494 26 494 26 494 14 c 0,15,16
 494 6 494 6 489.5 -1 c 128,-1,17
 485 -8 485 -8 476 -8 c 0,18,19
 453 -8 453 -8 407.5 -2 c 128,-1,20
 362 4 362 4 346 4 c 128,-1,21
 330 4 330 4 279 -2 c 128,-1,22
 228 -8 228 -8 202 -8 c 0,23,24
 186 -8 186 -8 186 7 c 0,25,26
 186 13 186 13 189 20.5 c 128,-1,27
 192 28 192 28 194.5 32.5 c 2,28,-1
 197 37 l 1,29,-1
 200 41 l 1,30,-1
 203 41 l 2,31,32
 226 41 226 41 259 45 c 128,-1,33
 292 49 292 49 295 54 c 2,34,-1
 294 204 l 1,35,-1
 42 198 l 1,36,-1
 42 273 l 1,37,38
 107 326 107 326 163.5 414 c 128,-1,39
 220 502 220 502 244 563.5 c 2,40,-1
 268 625 l 1,41,-1
 270 630 l 1,42,-1
 385 630 l 2,43,44
 458 630 458 630 458 610 c 0,45,46
 458 600 458 600 433.5 596 c 128,-1,47
 409 592 409 592 392 592 c 1,48,-1
 392 293 l 1,49,50
 416 295 416 295 430.5 320.5 c 128,-1,51
 445 346 445 346 473 346 c 1,4,5
EndSplineSet
Validated: 1
EndChar

StartChar: five
Encoding: 53 53 127
Width: 439
VWidth: -14
Flags: W
HStem: -8 63<133.868 262.836> 324 97<146.264 296> 557 67<142.83 315.504>
VStem: 40 102.5<397 548.793> 310 91<123.014 276.324>
LayerCount: 2
Back
Fore
SplineSet
42 599 m 1,0,1
 101 624 101 624 296 624 c 0,2,3
 314 624 314 624 327 621.5 c 128,-1,4
 340 619 340 619 354 611.5 c 128,-1,5
 368 604 368 604 376 586.5 c 128,-1,6
 384 569 384 569 384 543 c 0,7,8
 384 493 384 493 359 493 c 0,9,10
 349 493 349 493 337.5 503 c 128,-1,11
 326 513 326 513 315.5 525 c 128,-1,12
 305 537 305 537 282 547 c 128,-1,13
 259 557 259 557 228 557 c 0,14,15
 192 557 192 557 141 543 c 1,16,17
 142 523 142 523 142 476 c 0,18,19
 142 457 142 457 142.5 431 c 128,-1,20
 143 405 143 405 143 397 c 1,21,22
 192 421 192 421 270 421 c 0,23,24
 322 421 322 421 361.5 366.5 c 128,-1,25
 401 312 401 312 401 243 c 0,26,27
 401 136 401 136 343.5 64 c 128,-1,28
 286 -8 286 -8 206 -8 c 0,29,30
 154 -8 154 -8 97 11.5 c 128,-1,31
 40 31 40 31 40 52 c 0,32,33
 40 72 40 72 52 104 c 128,-1,34
 64 136 64 136 77 155 c 1,35,36
 80 150 80 150 89.5 133.5 c 128,-1,37
 99 117 99 117 101.5 113.5 c 128,-1,38
 104 110 104 110 113 97.5 c 128,-1,39
 122 85 122 85 126.5 82 c 128,-1,40
 131 79 131 79 141 71.5 c 128,-1,41
 151 64 151 64 160.5 62 c 128,-1,42
 170 60 170 60 183.5 57.5 c 128,-1,43
 197 55 197 55 213 55 c 0,44,45
 253 55 253 55 281.5 99.5 c 128,-1,46
 310 144 310 144 310 188 c 0,47,48
 310 324 310 324 181 324 c 0,49,50
 112 324 112 324 42 258 c 1,51,52
 40 332 40 332 40 484 c 0,53,54
 40 508 40 508 41 545.5 c 128,-1,55
 42 583 42 583 42 599 c 1,0,1
EndSplineSet
Validated: 1
EndChar

StartChar: six
Encoding: 54 54 128
Width: 467
VWidth: -13
Flags: W
HStem: -13 69<189.873 307.202> 340 63<189.823 298.766> 569 67<198.633 323.091>
VStem: 50 96<106.538 363.671> 337 102<91.3093 295.353>
LayerCount: 2
Back
Fore
SplineSet
244 636 m 3,0,1
 328 636 328 636 375 609 c 128,-1,2
 422 582 422 582 422 551 c 0,3,4
 422 528 422 528 411.5 513.5 c 128,-1,5
 401 499 401 499 385 499 c 128,-1,6
 369 499 369 499 357 510 c 128,-1,7
 345 521 345 521 336 534 c 128,-1,8
 327 547 327 547 303.5 558 c 128,-1,9
 280 569 280 569 244 569 c 0,10,11
 226 569 226 569 213.5 560.5 c 128,-1,12
 201 552 201 552 193 538.5 c 128,-1,13
 185 525 185 525 179.5 502.5 c 128,-1,14
 174 480 174 480 171 458 c 128,-1,15
 168 436 168 436 164.175398003 403.319870844 c 0,16,17
 161 380 161 380 160 368 c 1,18,19
 198 403 198 403 278 403 c 0,20,21
 334 403 334 403 372 369 c 128,-1,22
 410 335 410 335 424.5 286 c 128,-1,23
 439 237 439 237 439 177 c 0,24,25
 439 111 439 111 389 49 c 128,-1,26
 339 -13 339 -13 255 -13 c 0,27,28
 201 -13 201 -13 160 7.5 c 128,-1,29
 119 28 119 28 96 62.5 c 128,-1,30
 73 97 73 97 61.5 137 c 128,-1,31
 50 177 50 177 50 221 c 0,32,33
 50 416 50 416 98.5 526 c 128,-1,34
 147 636 147 636 244 636 c 3,0,1
146 193 m 3,35,36
 146 130 146 130 175 93 c 128,-1,37
 204 56 204 56 259 56 c 0,38,39
 299 56 299 56 318 94 c 128,-1,40
 337 132 337 132 337 190 c 0,41,42
 337 254 337 254 314 297 c 128,-1,43
 291 340 291 340 244 340 c 0,44,45
 204 340 204 340 175 301.5 c 128,-1,46
 146 263 146 263 146 193 c 3,35,36
EndSplineSet
Validated: 1
EndChar

StartChar: seven
Encoding: 55 55 129
Width: 495
VWidth: -14
Flags: W
HStem: -15 59<58.0167 155.771> 540.5 87.5<144.073 275.112 276.391 340.998> 547 72<229.375 340.451>
DStem2: 166 81 260 66 0.369033 0.929416<15.7844 474.398>
LayerCount: 2
Back
Fore
SplineSet
260 66 m 1,0,1
 260 58 260 58 279.5 53 c 128,-1,2
 299 48 299 48 322.5 44.5 c 128,-1,3
 346 41 346 41 365.5 26 c 128,-1,4
 385 11 385 11 385 -15 c 1,5,6
 331 -13 331 -13 289 -3.5 c 128,-1,7
 247 6 247 6 226 6 c 0,8,9
 204 6 204 6 135.5 -4 c 128,-1,10
 67 -14 67 -14 41 -15 c 1,11,12
 41 12 41 12 57.5 26.5 c 128,-1,13
 74 41 74 41 95 44 c 128,-1,14
 116 47 116 47 137.5 55.5 c 128,-1,15
 159 64 159 64 166 81 c 0,16,17
 176 104 176 104 219.5 213 c 128,-1,18
 263 322 263 322 302 421.5 c 128,-1,19
 341 521 341 521 341 522 c 0,20,21
 341 530 341 530 334.5 538.5 c 128,-1,22
 328 547 328 547 316 547 c 0,23,24
 272 546 272 546 228 540.5 c 128,-1,25
 184 535 184 535 133 514 c 128,-1,26
 82 493 82 493 70 459 c 1,27,-1
 67 459 l 2,28,29
 62 459 62 459 56 477 c 128,-1,30
 50 495 50 495 46.5 513 c 2,31,-1
 43 531 l 2,32,33
 43 547 43 547 44.5 565.5 c 128,-1,34
 46 584 46 584 53.5 606 c 128,-1,35
 61 628 61 628 74 628 c 0,36,37
 85 628 85 628 166.5 623.5 c 128,-1,38
 248 619 248 619 276 619 c 0,39,40
 288 619 288 619 365 626.5 c 128,-1,41
 442 634 442 634 467 634 c 1,42,43
 467 581 467 581 449 542 c 0,44,45
 442 526 442 526 354.5 305 c 128,-1,46
 267 84 267 84 260 66 c 1,0,1
EndSplineSet
Validated: 1
EndChar

StartChar: eight
Encoding: 56 56 130
Width: 492
VWidth: -14
Flags: W
HStem: -22 61<194.553 338.442> 570 63<192.864 305.132>
VStem: 41 111<81.2296 222.919> 79 91<423.647 546.826> 323 86<399.369 551.68> 375 89<76.8781 210.223>
LayerCount: 2
Back
Fore
SplineSet
170 485 m 4,0,1
 170 416 170 416 263 372 c 1,2,3
 274 374 274 374 285 381 c 128,-1,4
 296 388 296 388 309.5 416 c 128,-1,5
 323 444 323 444 323 487 c 0,6,7
 323 570 323 570 247 570 c 0,8,9
 214 570 214 570 192 547.5 c 128,-1,10
 170 525 170 525 170 485 c 4,0,1
375 160 m 7,11,12
 375 188 375 188 346.5 218 c 128,-1,13
 318 248 318 248 293.5 263 c 128,-1,14
 269 278 269 278 250 287 c 1,15,16
 223 278 223 278 187.5 240 c 128,-1,17
 152 202 152 202 152 147 c 0,18,19
 152 105 152 105 182 72 c 128,-1,20
 212 39 212 39 269 39 c 0,21,22
 322 39 322 39 348.5 71.5 c 128,-1,23
 375 104 375 104 375 160 c 7,11,12
79 489 m 7,24,25
 79 561 79 561 132 597 c 128,-1,26
 185 633 185 633 262 633 c 0,27,28
 326 633 326 633 367.5 590 c 128,-1,29
 409 547 409 547 409 483 c 0,30,31
 409 434 409 434 396 399.5 c 128,-1,32
 383 365 383 365 340 342 c 1,33,34
 400 304 400 304 432 263 c 128,-1,35
 464 222 464 222 464 159 c 0,36,37
 464 83 464 83 403 30.5 c 128,-1,38
 342 -22 342 -22 257 -22 c 0,39,40
 155 -22 155 -22 98 24 c 128,-1,41
 41 70 41 70 41 160 c 0,42,43
 41 211 41 211 77.5 253.5 c 128,-1,44
 114 296 114 296 177 323 c 1,45,46
 121 354 121 354 100 394 c 128,-1,47
 79 434 79 434 79 489 c 7,24,25
EndSplineSet
Validated: 1
EndChar

StartChar: nine
Encoding: 57 57 131
Width: 459
VWidth: -13
Flags: W
HStem: -12 59<182.923 297.676> 237 62<178.805 289.656> 566 64<179.498 294.367>
VStem: 50 101<326.921 522.537> 329 102<134.462 501.372>
LayerCount: 2
Back
Fore
SplineSet
222 -12 m 0,0,1
 159 -12 159 -12 106.5 20.5 c 128,-1,2
 54 53 54 53 54 82 c 0,3,4
 54 104 54 104 72.5 125 c 128,-1,5
 91 146 91 146 107 146 c 0,6,7
 117 146 117 146 130.5 130.5 c 128,-1,8
 144 115 144 115 157 96.5 c 128,-1,9
 170 78 170 78 191 62.5 c 128,-1,10
 212 47 212 47 234 47 c 0,11,12
 293 47 293 47 308 87 c 128,-1,13
 323 127 323 127 330.887713493 265.267771963 c 0,14,15
 332 278 332 278 332 284 c 1,16,17
 274 237 274 237 222 237 c 0,18,19
 137 237 137 237 93.5 286.5 c 128,-1,20
 50 336 50 336 50 423 c 0,21,22
 50 499 50 499 96.5 564.5 c 128,-1,23
 143 630 143 630 225 630 c 0,24,25
 326 630 326 630 378.5 562 c 128,-1,26
 431 494 431 494 431 325 c 0,27,28
 431 148 431 148 380.5 68 c 128,-1,29
 330 -12 330 -12 222 -12 c 0,0,1
329 432 m 3,30,31
 329 566 329 566 232 566 c 0,32,33
 151 566 151 566 151 436 c 0,34,35
 151 406 151 406 153.5 385 c 128,-1,36
 156 364 156 364 164.5 342.5 c 128,-1,37
 173 321 173 321 192 310 c 128,-1,38
 211 299 211 299 240 299 c 0,39,40
 278 299 278 299 303.5 338.5 c 128,-1,41
 329 378 329 378 329 432 c 3,30,31
EndSplineSet
Validated: 1
EndChar

StartChar: underscore
Encoding: 95 95 132
Width: 541
VWidth: 13
Flags: W
HStem: -31 83<24.5156 478.728> -23.5 76.5<277.596 509.085> -7 64<18.9648 208.25>
LayerCount: 2
Back
Fore
SplineSet
8 -7 m 5,0,1
 8 4 8 4 16 27 c 128,-1,2
 24 50 24 50 31 57 c 0,3,4
 32 57 32 57 50 56.5 c 128,-1,5
 68 56 68 56 95.5 55 c 128,-1,6
 123 54 123 54 155.5 53.5 c 128,-1,7
 188 53 188 53 225 52.5 c 128,-1,8
 262 52 262 52 292 52 c 0,9,10
 336 52 336 52 391.5 53 c 128,-1,11
 447 54 447 54 484.5 55.5 c 128,-1,12
 522 57 522 57 524 57 c 1,13,14
 524 10 524 10 519 3 c 0,15,16
 517 -0 517 -0 481 -8 c 128,-1,17
 445 -16 445 -16 386 -23.5 c 128,-1,18
 327 -31 327 -31 276 -31 c 0,19,20
 140 -31 140 -31 8 -7 c 5,0,1
EndSplineSet
Validated: 1
EndChar

StartChar: equal
Encoding: 61 61 133
Width: 569
VWidth: -10
Flags: W
HStem: 140 84<149.549 509.969> 149 77<35.8711 40 44 283.721 289.469 527.585> 284 84<157.033 517.969> 292 78<36.3185 47 49 290.721 296.469 518> 354 20G<47 53 535 542>
LayerCount: 2
Back
Fore
SplineSet
18 149 m 1,0,1
 31 226 31 226 40 226 c 1,2,-1
 41 229 l 1,3,-1
 44 228 l 1,4,5
 201 224 201 224 301 224 c 2,6,-1
 527 228 l 1,7,-1
 535 229 l 1,8,-1
 535 222 l 2,9,10
 535 190 535 190 529 175 c 0,11,12
 526 165 526 165 510 149 c 1,13,-1
 508 149 l 1,14,15
 397 140 397 140 286 140 c 0,16,17
 213 140 213 140 147.5 142 c 128,-1,18
 82 144 82 144 53 146.5 c 2,19,-1
 24 149 l 1,20,-1
 18 149 l 1,0,1
24 292 m 1,21,22
 25 305 25 305 33.5 337.5 c 128,-1,23
 42 370 42 370 47 370 c 1,24,-1
 49 374 l 1,25,-1
 53 373 l 1,26,27
 209 368 209 368 309 368 c 2,28,-1
 535 373 l 1,29,-1
 542 374 l 1,30,-1
 542 365 l 2,31,32
 542 335 542 335 536 320 c 0,33,34
 534 314 534 314 530 307 c 128,-1,35
 526 300 526 300 522.5 296.5 c 2,36,-1
 519 293 l 1,37,-1
 518 292 l 1,38,-1
 516 292 l 1,39,40
 404 284 404 284 293 284 c 0,41,42
 220 284 220 284 155 286 c 128,-1,43
 90 288 90 288 61.5 290 c 2,44,-1
 33 292 l 1,45,-1
 24 292 l 1,21,22
EndSplineSet
Validated: 1
EndChar

StartChar: hyphen
Encoding: 45 45 134
Width: 314
VWidth: -10
Flags: W
HStem: 218 85<85.61 280.937> 226 82<25 156.813 159.844 280.937>
VStem: 10 284<223.665 295.829>
LayerCount: 2
Back
Fore
SplineSet
294 309 m 5,0,1
 288 251 288 251 281 230 c 0,2,3
 279 226 279 226 276 226 c 0,4,5
 217 218 217 218 158 218 c 0,6,7
 120 218 120 218 84.5 220 c 128,-1,8
 49 222 49 222 33 224 c 2,9,-1
 17 226 l 1,10,-1
 10 227 l 1,11,-1
 10 234 l 2,12,13
 10 245 10 245 14.5 274 c 128,-1,14
 19 303 19 303 23 304 c 2,15,-1
 25 308 l 1,16,-1
 30 308 l 1,17,18
 112 303 112 303 164 303 c 2,19,-1
 285 308 l 1,20,-1
 294 309 l 5,0,1
EndSplineSet
Validated: 1
EndChar

StartChar: plus
Encoding: 43 43 135
Width: 448
VWidth: -4
Flags: W
HStem: -8 21G<193 202> 156 63<43 199 268 401 402 414.328>
VStem: 193 70<0.0507812 152 216 372.343>
LayerCount: 2
Back
Fore
SplineSet
263 13 m 1,0,1
 254 3 254 3 233.5 -2 c 128,-1,2
 213 -7 213 -7 202 -7 c 2,3,-1
 193 -8 l 1,4,-1
 193 0 l 1,5,6
 200 89 200 89 200 152 c 1,7,8
 177 152 177 152 155 152 c 128,-1,9
 133 152 133 152 116.5 152.5 c 128,-1,10
 100 153 100 153 85.5 153.5 c 128,-1,11
 71 154 71 154 60.5 154.5 c 128,-1,12
 50 155 50 155 42.5 155.5 c 128,-1,13
 35 156 35 156 31 156 c 2,14,-1
 27 156 l 1,15,-1
 21 156 l 1,16,-1
 21 164 l 2,17,18
 22 174 22 174 29 194.5 c 128,-1,19
 36 215 36 215 40 220 c 1,20,-1
 43 219 l 1,21,22
 127 217 127 217 199 216 c 1,23,-1
 193 357 l 1,24,-1
 193 361 l 2,25,26
 195 366 195 366 218.5 373.5 c 128,-1,27
 242 381 242 381 254 381 c 2,28,-1
 262 381 l 1,29,-1
 263 374 l 1,30,31
 267 314 267 314 268 216 c 1,32,-1
 413 219 l 1,33,-1
 420 220 l 1,34,-1
 420 211 l 2,35,36
 420 201 420 201 414.5 179 c 128,-1,37
 409 157 409 157 402 157 c 1,38,-1
 401 156 l 1,39,-1
 399 156 l 2,40,41
 336 153 336 153 268 152 c 1,42,-1
 263 17 l 1,43,-1
 263 13 l 1,0,1
EndSplineSet
Validated: 1
EndChar

StartChar: exclam
Encoding: 33 33 136
Width: 226
VWidth: -14
Flags: W
HStem: -34 148<72.4575 150.305>
VStem: 34 164<9.40234 72.2397> 43 122<286.97 621.875>
LayerCount: 2
Back
Fore
SplineSet
165 520 m 0,0,1
 165 399 165 399 151.5 279.5 c 128,-1,2
 138 160 138 160 112 160 c 0,3,4
 88 160 88 160 65.5 285.5 c 128,-1,5
 43 411 43 411 43 515 c 0,6,7
 43 643 43 643 105 643 c 0,8,9
 165 643 165 643 165 520 c 0,0,1
116 -34 m 0,10,11
 99 -34 99 -34 66.5 -7 c 128,-1,12
 34 20 34 20 34 39 c 0,13,14
 34 55 34 55 63.5 84.5 c 128,-1,15
 93 114 93 114 110 114 c 0,16,17
 121 114 121 114 159.5 85.5 c 128,-1,18
 198 57 198 57 198 45 c 0,19,20
 198 30 198 30 165 -2 c 128,-1,21
 132 -34 132 -34 116 -34 c 0,10,11
EndSplineSet
Validated: 1
EndChar

StartChar: bar
Encoding: 124 124 137
Width: 144
VWidth: -3
Flags: W
VStem: 40 80<-126 99.1321 519.052 757.469> 47 81<-78.76 561.77>
LayerCount: 2
Back
Fore
SplineSet
39 742 m 5,0,1
 83 774 83 774 111 774 c 2,2,-1
 119 774 l 1,3,-1
 119 766 l 1,4,5
 128 528 128 528 128 311 c 2,6,-1
 120 -124 l 1,7,-1
 120 -126 l 1,8,-1
 119 -129 l 1,9,10
 106 -146 106 -146 93 -152 c 0,11,12
 83 -156 83 -156 72 -157.5 c 128,-1,13
 61 -159 61 -159 52 -159 c 128,-1,14
 43 -159 43 -159 40 -160 c 2,15,-1
 40 -151 l 1,16,17
 47 171 47 171 47 290 c 2,18,-1
 39 738 l 1,19,-1
 39 742 l 5,0,1
EndSplineSet
Validated: 1
EndChar

StartChar: slash
Encoding: 47 47 138
Width: 273
VWidth: -14
Flags: W
VStem: 29 216
LayerCount: 2
Back
Fore
SplineSet
245 637 m 1,0,1
 245 627 245 627 172 277.5 c 128,-1,2
 99 -72 99 -72 91 -93 c 2,3,-1
 89 -98 l 2,4,5
 87 -97 87 -97 73.5 -89 c 128,-1,6
 60 -81 60 -81 49 -70 c 0,7,8
 46 -65 46 -65 29 -32 c 1,9,10
 40 -7 40 -7 107.5 319 c 128,-1,11
 175 645 175 645 185 705 c 1,12,-1
 195 699 l 2,13,14
 204 696 204 696 224 674.5 c 128,-1,15
 244 653 244 653 245 640 c 1,16,-1
 246 638 l 1,17,-1
 245 637 l 1,0,1
EndSplineSet
Validated: 1
EndChar

StartChar: backslash
Encoding: 92 92 139
Width: 273
VWidth: -14
Flags: W
VStem: 26 61<584.582 667.357>
DStem2: 87 698 100 280 0.21501 -0.976612<164.636 411.019 745.707 768.196>
LayerCount: 2
Back
Fore
SplineSet
87 698 m 1,0,1
 97 638 97 638 165 315.5 c 128,-1,2
 233 -7 233 -7 244 -31 c 1,3,4
 227 -64 227 -64 224 -69 c 0,5,6
 213 -80 213 -80 199 -87.5 c 128,-1,7
 185 -95 185 -95 183 -97 c 2,8,-1
 182 -92 l 2,9,10
 174 -61 174 -61 100 280 c 128,-1,11
 26 621 26 621 26 630 c 2,12,-1
 26 633 l 2,13,14
 26 644 26 644 47 666 c 128,-1,15
 68 688 68 688 77 692 c 2,16,-1
 87 698 l 1,0,1
EndSplineSet
Validated: 1
EndChar

StartChar: numbersign
Encoding: 35 35 140
Width: 569
VWidth: -14
Flags: W
HStem: 214 84<194 291> 222.5 81.5<32.929 90 399 508> 359.5 82.5<38.3125 129 230 331 436 518>
VStem: 198 65<547.2 591>
DStem2: 90 221 170 215 0.249946 0.96826<-123.101 0 101.519 144.336 248.978 395.687> 236 28 299 -40 0.253311 0.967385<-24.0227 192.907 303.72 312.254 341.113 343.702 454.346 598.535>
LayerCount: 2
Back
Fore
SplineSet
24 366 m 1,0,1
 25 379 25 379 34 407 c 128,-1,2
 43 435 43 435 49 444 c 1,3,-1
 53 444 l 2,4,5
 98 444 98 444 149 442 c 1,6,7
 198 632 198 632 198 641 c 2,8,-1
 201 651 l 1,9,-1
 210 646 l 2,10,11
 238 630 238 630 249 618 c 0,12,13
 253 613 253 613 256.5 605 c 128,-1,14
 260 597 260 597 261.5 591 c 2,15,-1
 263 585 l 1,16,-1
 263 580 l 1,17,18
 250 520 250 520 230 442 c 1,19,-1
 353 442 l 1,20,21
 404 635 404 635 404 645 c 2,22,-1
 407 657 l 1,23,-1
 417 650 l 2,24,25
 443 633 443 633 453 621 c 0,26,27
 457 615 457 615 460.5 607 c 128,-1,28
 464 599 464 599 465.5 593 c 128,-1,29
 467 587 467 587 468 586 c 2,30,-1
 467 584 l 1,31,32
 455 521 455 521 436 441 c 1,33,34
 461 442 461 442 485.5 443 c 128,-1,35
 510 444 510 444 522.5 444.5 c 2,36,-1
 535 445 l 1,37,-1
 542 445 l 1,38,-1
 542 437 l 2,39,40
 542 406 542 406 536 392 c 0,41,42
 534 386 534 386 530.5 380.5 c 128,-1,43
 527 375 527 375 525 372.5 c 128,-1,44
 523 370 523 370 520.5 368 c 128,-1,45
 518 366 518 366 518 365 c 2,46,-1
 516 365 l 2,47,48
 474 362 474 362 416 360 c 1,49,50
 412 349 412 349 407 328 c 128,-1,51
 402 307 402 307 399 299 c 1,52,53
 418 300 418 300 438 300.5 c 128,-1,54
 458 301 458 301 473.5 301.5 c 128,-1,55
 489 302 489 302 501 302.5 c 128,-1,56
 513 303 513 303 520 303.5 c 2,57,-1
 527 304 l 1,58,-1
 535 304 l 1,59,-1
 535 296 l 2,60,61
 535 265 535 265 529 251 c 0,62,63
 527 245 527 245 524 240 c 128,-1,64
 521 235 521 235 518 232.5 c 128,-1,65
 515 230 515 230 511.5 227 c 2,66,-1
 508 224 l 1,67,68
 447 221 447 221 377 219 c 1,69,70
 316 1 316 1 299 -40 c 1,71,-1
 290 -36 l 2,72,73
 267 -22 267 -22 257 -10 c 0,74,75
 252 -3 252 -3 236 28 c 1,76,-1
 237 32 l 1,77,78
 263 119 263 119 291 214 c 1,79,-1
 286 214 l 2,80,81
 200 214 200 214 170 215 c 1,82,83
 150 145 150 145 131.5 81 c 128,-1,84
 113 17 113 17 105.5 -9.5 c 2,85,-1
 98 -36 l 1,86,-1
 96 -45 l 1,87,-1
 87 -39 l 2,88,89
 65 -28 65 -28 55 -15 c 0,90,91
 39 9 39 9 35 25 c 1,92,-1
 36 27 l 1,93,94
 63 123 63 123 90 221 c 1,95,96
 70 222 70 222 53.5 222.5 c 128,-1,97
 37 223 37 223 30.5 223.5 c 2,98,-1
 24 224 l 1,99,-1
 18 225 l 1,100,101
 19 246 19 246 41 304 c 1,102,-1
 45 304 l 2,103,104
 73 303 73 303 112 302 c 1,105,106
 115 312 115 312 120 331 c 128,-1,107
 125 350 125 350 129 360 c 1,108,-1
 33 365 l 1,109,-1
 24 366 l 1,0,1
301 298 m 2,110,-1
 315 298 l 1,111,112
 319 309 319 309 323 328 c 128,-1,113
 327 347 327 347 330 356 c 2,114,-1
 331 359 l 1,115,-1
 293 359 l 2,116,117
 278 359 278 359 250 359.5 c 128,-1,118
 222 360 222 360 210 360 c 1,119,-1
 194 299 l 1,120,121
 233 298 233 298 301 298 c 2,110,-1
EndSplineSet
Validated: 1
EndChar

StartChar: at
Encoding: 64 64 141
Width: 728
VWidth: -14
Flags: W
HStem: -31 62<312.371 506.564> 152 17<340 419> 369 47<289.002 319.438> 436 70<289.516 418.508> 577 57<251.58 429.799>
VStem: 24 123<200.037 438.81> 189 106<171.203 234.091 405.724 430.305> 432 104<344.438 421.717> 577 113<177.381 405.184>
DStem2: 310.5 302.5 340 250 0.941573 0.336808<-40.4045 106.498>
LayerCount: 2
Back
Fore
SplineSet
413 -31 m 0,0,1
 223 -31 223 -31 123.5 56 c 128,-1,2
 24 143 24 143 24 297 c 0,3,4
 24 464 24 464 119 549 c 128,-1,5
 214 634 214 634 380 634 c 0,6,7
 508 634 508 634 599 535 c 128,-1,8
 690 436 690 436 690 306 c 0,9,10
 690 135 690 135 626 52 c 128,-1,11
 562 -31 562 -31 413 -31 c 0,0,1
283 97 m 0,12,13
 250 97 250 97 231 105 c 1,14,15
 308 31 308 31 437 31 c 0,16,17
 510 31 510 31 547 101 c 1,18,19
 546 101 546 101 545 100.5 c 128,-1,20
 544 100 544 100 543 100 c 0,21,22
 525 100 525 100 496.5 112.5 c 128,-1,23
 468 125 468 125 445 138 c 128,-1,24
 422 151 422 151 419 152 c 0,25,26
 417 152 417 152 407.5 143 c 128,-1,27
 398 134 398 134 385 124 c 128,-1,28
 372 114 372 114 344.5 105.5 c 128,-1,29
 317 97 317 97 283 97 c 0,12,13
147 334 m 0,30,31
 147 230 147 230 189 158 c 1,32,-1
 189 173 l 2,33,34
 189 219 189 219 227 253 c 128,-1,35
 265 287 265 287 310.5 302.5 c 128,-1,36
 356 318 356 318 394 336 c 128,-1,37
 432 354 432 354 432 372 c 0,38,39
 432 436 432 436 354 436 c 0,40,41
 333 436 333 436 313 429.5 c 128,-1,42
 293 423 293 423 289 418 c 0,43,44
 289 417 289 417 297 416 c 128,-1,45
 305 415 305 415 312.5 410.5 c 128,-1,46
 320 406 320 406 320 396 c 0,47,48
 320 369 320 369 256 369 c 0,49,50
 232 369 232 369 210.5 382.5 c 128,-1,51
 189 396 189 396 189 418 c 0,52,53
 189 447 189 447 222 468 c 128,-1,54
 255 489 255 489 293.5 497.5 c 128,-1,55
 332 506 332 506 366 506 c 0,56,57
 397 506 397 506 433.5 498.5 c 128,-1,58
 470 491 470 491 503 469.5 c 128,-1,59
 536 448 536 448 536 418 c 2,60,-1
 537 204 l 2,61,62
 537 189 537 189 572 177 c 1,63,64
 577 204 577 204 577 257 c 0,65,66
 577 407 577 407 508.5 492 c 128,-1,67
 440 577 440 577 328 577 c 0,68,69
 253 577 253 577 200 508 c 128,-1,70
 147 439 147 439 147 334 c 0,30,31
340 169 m 0,71,72
 401 169 401 169 429 289 c 1,73,74
 385 276 385 276 340 250 c 128,-1,75
 295 224 295 224 295 194 c 0,76,77
 295 169 295 169 340 169 c 0,71,72
EndSplineSet
Validated: 1
EndChar

StartChar: oe
Encoding: 339 339 142
Width: 666
VWidth: 13
Flags: W
HStem: 0 62<211.839 299.876> 7 64<439.526 559.33> 304 63<138.095 236.107> 321 48<426.342 480.576>
VStem: 44 86<159.153 287.787>
DStem2: 503 262 496 212 0.892661 0.450728<-110.892 0 89.5596 129.334> 571 97 592 61 0.499722 0.866186<-36.8152 35.3872>
LayerCount: 2
Back
Fore
SplineSet
622 113 m 1,0,1
 620 110 620 110 613 96.5 c 128,-1,2
 606 83 606 83 603 78 c 128,-1,3
 600 73 600 73 592 61 c 128,-1,4
 584 49 584 49 577.5 43.5 c 128,-1,5
 571 38 571 38 559.5 29.5 c 128,-1,6
 548 21 548 21 536 17.5 c 128,-1,7
 524 14 524 14 507.5 10.5 c 128,-1,8
 491 7 491 7 471 7 c 0,9,10
 398 7 398 7 352 58 c 1,11,12
 311 0 311 0 241 0 c 0,13,14
 163 0 163 0 103.5 57.5 c 128,-1,15
 44 115 44 115 44 188 c 0,16,17
 44 276 44 276 92 321.5 c 128,-1,18
 140 367 140 367 223 367 c 0,19,20
 282 367 282 367 335 314 c 1,21,22
 376 369 376 369 470 369 c 0,23,24
 481 369 481 369 492 367 c 128,-1,25
 503 365 503 365 511 362.5 c 128,-1,26
 519 360 519 360 528.5 355 c 128,-1,27
 538 350 538 350 543.5 347 c 128,-1,28
 549 344 549 344 556.5 337.5 c 128,-1,29
 564 331 564 331 567 328 c 128,-1,30
 570 325 570 325 577 318.5 c 128,-1,31
 584 312 584 312 585 311 c 0,32,33
 605 322 605 322 618 322 c 0,34,35
 640 322 640 322 640 292 c 0,36,37
 640 286 640 286 633 279.5 c 128,-1,38
 626 273 626 273 610 264.5 c 128,-1,39
 594 256 594 256 579 249.5 c 128,-1,40
 564 243 564 243 538.5 231.5 c 128,-1,41
 513 220 513 220 496 212 c 0,42,43
 453 192 453 192 407 162 c 1,44,45
 415 112 415 112 440 91.5 c 128,-1,46
 465 71 465 71 512 71 c 0,47,48
 535 71 535 71 550.5 79 c 128,-1,49
 566 87 566 87 571 97 c 128,-1,50
 576 107 576 107 582.5 115 c 128,-1,51
 589 123 589 123 597 123 c 0,52,53
 603 123 603 123 610.5 118.5 c 128,-1,54
 618 114 618 114 622 113 c 1,0,1
306 120 m 0,55,56
 306 183 306 183 267 243.5 c 128,-1,57
 228 304 228 304 188 304 c 0,58,59
 152 304 152 304 141 293 c 128,-1,60
 130 282 130 282 130 247 c 0,61,62
 130 181 130 181 177 121.5 c 128,-1,63
 224 62 224 62 255 62 c 0,64,65
 290 62 290 62 298 72 c 128,-1,66
 306 82 306 82 306 120 c 0,55,56
446 321 m 0,67,68
 435 321 435 321 420 285 c 128,-1,69
 405 249 405 249 402 216 c 1,70,71
 464 238 464 238 503 262 c 1,72,73
 474 321 474 321 446 321 c 0,67,68
EndSplineSet
Validated: 1
EndChar

StartChar: question
Encoding: 63 63 143
Width: 294
VWidth: -14
Flags: W
HStem: -34 148<62.2714 139.879> 564 69<58.0012 159.352>
VStem: 23 163<9.15491 73.7539> 70 39<161 255.467> 226 55<391.35 493.613>
LayerCount: 2
Back
Fore
SplineSet
70 168 m 6,0,1
 70 174 70 174 66 231 c 128,-1,2
 62 288 62 288 62 304 c 128,-1,3
 62 320 62 320 87.5 333.5 c 128,-1,4
 113 347 113 347 144 357 c 128,-1,5
 175 367 175 367 200.5 388.5 c 128,-1,6
 226 410 226 410 226 441 c 128,-1,7
 226 472 226 472 183.5 518 c 128,-1,8
 141 564 141 564 119 564 c 0,9,10
 116 564 116 564 98.5 554 c 128,-1,11
 81 544 81 544 66 544 c 0,12,13
 49 544 49 544 40.5 557.5 c 128,-1,14
 32 571 32 571 32 589 c 0,15,16
 32 609 32 609 49 621 c 128,-1,17
 66 633 66 633 90 633 c 0,18,19
 104 633 104 633 125.5 627.5 c 128,-1,20
 147 622 147 622 175 606.5 c 128,-1,21
 203 591 203 591 226 569 c 128,-1,22
 249 547 249 547 265 509.5 c 128,-1,23
 281 472 281 472 281 426 c 0,24,25
 281 375 281 375 254 340.5 c 128,-1,26
 227 306 227 306 194.5 292 c 128,-1,27
 162 278 162 278 135 260.5 c 128,-1,28
 108 243 108 243 108 224 c 2,29,-1
 109 170 l 1,30,-1
 109 161 l 1,31,-1
 70 161 l 1,32,-1
 70 168 l 6,0,1
106 -34 m 4,33,34
 89 -34 89 -34 56 -7 c 128,-1,35
 23 20 23 20 23 39 c 0,36,37
 23 55 23 55 52.5 84.5 c 128,-1,38
 82 114 82 114 99 114 c 0,39,40
 110 114 110 114 148 86 c 128,-1,41
 186 58 186 58 186 46 c 0,42,43
 186 31 186 31 154 -1.5 c 128,-1,44
 122 -34 122 -34 106 -34 c 4,33,34
EndSplineSet
Validated: 1
EndChar

StartChar: percent
Encoding: 37 37 144
Width: 696
VWidth: -14
Flags: W
HStem: -23 56<524.155 599.66> 236 54<466.841 551.05> 317 55<143.315 218.679> 574 56<85.7949 169.404>
VStem: 5 75<447.453 566.485> 223 78<388.165 506.607> 383 78<108.513 226.464> 604 74<45.8599 168.618>
DStem2: 185 41 241 -27 0.382574 0.923925<0 527.809>
LayerCount: 2
Back
Fore
SplineSet
229 -29 m 5,0,1
 223 -27 223 -27 204 2.5 c 128,-1,2
 185 32 185 32 185 39 c 2,3,-1
 185 41 l 1,4,5
 200 70 200 70 307 331 c 128,-1,6
 414 592 414 592 425 631 c 2,7,-1
 429 642 l 1,8,-1
 438 635 l 2,9,10
 462 616 462 616 472 603 c 0,11,12
 476 596 476 596 478.5 587 c 128,-1,13
 481 578 481 578 481.5 572 c 128,-1,14
 482 566 482 566 483 565 c 2,15,-1
 482 564 l 1,16,17
 481 556 481 556 363.5 269.5 c 128,-1,18
 246 -17 246 -17 241 -27 c 2,19,-1
 237 -36 l 1,20,-1
 229 -29 l 5,0,1
552 -23 m 0,21,22
 486 -23 486 -23 434.5 26 c 128,-1,23
 383 75 383 75 383 137 c 0,24,25
 383 212 383 212 425 251 c 128,-1,26
 467 290 467 290 538 290 c 0,27,28
 589 290 589 290 633.5 243 c 128,-1,29
 678 196 678 196 678 158 c 0,30,31
 678 79 678 79 646 28 c 128,-1,32
 614 -23 614 -23 552 -23 c 0,21,22
604 80 m 0,33,34
 604 133 604 133 573 184.5 c 128,-1,35
 542 236 542 236 509 236 c 0,36,37
 478 236 478 236 469.5 227 c 128,-1,38
 461 218 461 218 461 189 c 0,39,40
 461 133 461 133 499.5 83 c 128,-1,41
 538 33 538 33 564 33 c 0,42,43
 591 33 591 33 597.5 40.5 c 128,-1,44
 604 48 604 48 604 80 c 0,33,34
171 317 m 0,45,46
 106 317 106 317 55.5 366 c 128,-1,47
 5 415 5 415 5 477 c 0,48,49
 5 552 5 552 46 591 c 128,-1,50
 87 630 87 630 156 630 c 0,51,52
 209 630 209 630 255 583.5 c 128,-1,53
 301 537 301 537 301 499 c 0,54,55
 301 420 301 420 268 368.5 c 128,-1,56
 235 317 235 317 171 317 c 0,45,46
223 419 m 0,57,58
 223 472 223 472 191.5 523 c 128,-1,59
 160 574 160 574 127 574 c 0,60,61
 98 574 98 574 89 565.5 c 128,-1,62
 80 557 80 557 80 529 c 0,63,64
 80 473 80 473 118.5 422.5 c 128,-1,65
 157 372 157 372 182 372 c 0,66,67
 210 372 210 372 216.5 379.5 c 128,-1,68
 223 387 223 387 223 419 c 0,57,58
EndSplineSet
Validated: 1
EndChar

StartChar: ampersand
Encoding: 38 38 145
Width: 644
VWidth: -14
Flags: W
HStem: -30 52<142.448 269.378 576.001 621.328> 335 49<447.735 481.265 555.672 579.328> 586 51<160.773 248.475>
VStem: 15 87<66.2852 243.075> 79 69<467.182 572.191> 274 57<438.22 557.563> 489 61<277.771 332.904>
DStem2: 216 416 137 362 0.715879 -0.698225<-111.78 -18.8503 286.429 292.074 357.014 498.697>
LayerCount: 2
Back
Fore
SplineSet
79 510 m 0,0,1
 79 558 79 558 112 597.5 c 128,-1,2
 145 637 145 637 199 637 c 0,3,4
 249 637 249 637 290 596.5 c 128,-1,5
 331 556 331 556 331 497 c 0,6,7
 331 456 331 456 318 428 c 128,-1,8
 305 400 305 400 265 378 c 1,9,10
 300 344 300 344 426 213 c 1,11,12
 489 311 489 311 489 319 c 0,13,14
 489 330 489 330 481.5 333 c 128,-1,15
 474 336 474 336 464.5 335 c 128,-1,16
 455 334 455 334 447.5 340 c 128,-1,17
 440 346 440 346 440 361 c 0,18,19
 440 384 440 384 513 384 c 0,20,21
 585 384 585 384 585 364 c 0,22,23
 585 349 585 349 579.5 342.5 c 128,-1,24
 574 336 574 336 567.5 336.5 c 128,-1,25
 561 337 561 337 555.5 333.5 c 128,-1,26
 550 330 550 330 550 320 c 128,-1,27
 550 310 550 310 525.5 264 c 128,-1,28
 501 218 501 218 469 173 c 1,29,30
 505 136 505 136 576 44 c 0,31,32
 582 37 582 37 591.5 32.5 c 128,-1,33
 601 28 601 28 608.5 27 c 128,-1,34
 616 26 616 26 621.5 20.5 c 128,-1,35
 627 15 627 15 627 4 c 0,36,37
 627 -34 627 -34 563 -34 c 0,38,39
 520 -34 520 -34 501 -10 c 0,40,41
 444 59 444 59 406 99 c 1,42,43
 277 -30 277 -30 193 -30 c 0,44,45
 111 -30 111 -30 63 20 c 128,-1,46
 15 70 15 70 15 159 c 0,47,48
 15 211 15 211 50.5 272 c 128,-1,49
 86 333 86 333 137 362 c 1,50,51
 103 389 103 389 91 424 c 128,-1,52
 79 459 79 459 79 510 c 0,0,1
102 159 m 0,53,54
 102 97 102 97 128.5 59.5 c 128,-1,55
 155 22 155 22 202 22 c 0,56,57
 281 22 281 22 368 134 c 1,58,59
 355 148 355 148 187 316 c 1,60,61
 102 247 102 247 102 159 c 0,53,54
148 522 m 0,62,63
 148 479 148 479 216 416 c 1,64,65
 274 441 274 441 274 485 c 0,66,67
 274 528 274 528 254 557 c 128,-1,68
 234 586 234 586 200 586 c 0,69,70
 177 586 177 586 162.5 569 c 128,-1,71
 148 552 148 552 148 522 c 0,62,63
EndSplineSet
Validated: 1
EndChar

StartChar: dollar
Encoding: 36 36 146
Width: 487
VWidth: -15
Flags: W
HStem: -18 60<217 254.969> 592 52<217 254>
VStem: 10 87<436.648 529.441> 164 51<-66.7871 -28 69 280 407 568 642 689.676> 254 56<-59.7324 -18 86 240 375.786 571 647 693.507> 362 98<118.937 272>
LayerCount: 2
Back
Fore
SplineSet
97 482 m 0,0,1
 97 438 97 438 168 407 c 1,2,3
 165 560 165 560 165 568 c 1,4,5
 144 553 144 553 133.5 544.5 c 128,-1,6
 123 536 123 536 110 518 c 128,-1,7
 97 500 97 500 97 482 c 0,0,1
253 672 m 2,8,9
 253 679 253 679 271.5 690.5 c 128,-1,10
 290 702 290 702 299 702 c 2,11,-1
 308 702 l 1,12,-1
 308 694 l 2,13,14
 309 675 309 675 310 647 c 1,15,16
 354 642 354 642 404 605.5 c 128,-1,17
 454 569 454 569 454 533 c 0,18,19
 454 500 454 500 444.5 486 c 128,-1,20
 435 472 435 472 413 472 c 0,21,22
 401 472 401 472 386.5 489.5 c 128,-1,23
 372 507 372 507 352 532.5 c 128,-1,24
 332 558 332 558 313 571 c 1,25,26
 317 457 317 457 317 367 c 1,27,28
 460 327 460 327 460 217 c 0,29,30
 460 74 460 74 310 6 c 1,31,-1
 310 -38 l 2,32,33
 310 -51 310 -51 289.5 -59 c 128,-1,34
 269 -67 269 -67 254 -67 c 1,35,-1
 254 -58 l 2,36,37
 254 -42 254 -42 255 -18 c 1,38,-1
 215 -22 l 1,39,-1
 215 -43 l 2,40,41
 215 -55 215 -55 196 -65 c 128,-1,42
 177 -75 177 -75 164 -75 c 1,43,-1
 164 -65 l 2,44,45
 164 -51 164 -51 165 -28 c 1,46,47
 9 -23 9 -23 9 75 c 0,48,49
 9 112 9 112 19.5 125.5 c 128,-1,50
 30 139 30 139 65 154 c 1,51,52
 100 104 100 104 166 69 c 1,53,54
 168 149 168 149 168 292 c 1,55,56
 99 309 99 309 54.5 347 c 128,-1,57
 10 385 10 385 10 462 c 0,58,59
 10 580 10 580 164 626 c 1,60,61
 163 649 163 649 163 663 c 2,62,-1
 163 667 l 2,63,64
 163 673 163 673 179.5 685 c 128,-1,65
 196 697 196 697 205 697 c 2,66,-1
 214 697 l 1,67,-1
 214 689 l 2,68,69
 215 670 215 670 216 642 c 1,70,71
 222 642 222 642 235 644 c 128,-1,72
 248 646 248 646 254 646 c 1,73,74
 254 651 254 651 254 655 c 128,-1,75
 254 659 254 659 254 661.5 c 128,-1,76
 254 664 254 664 253.5 665.5 c 128,-1,77
 253 667 253 667 253 668 c 2,78,-1
 253 669 l 1,79,-1
 253 672 l 2,8,9
250 42 m 3,80,81
 251 42 251 42 253 42.5 c 2,82,-1
 255 43 l 1,83,84
 255 68 255 68 257 152.5 c 128,-1,85
 259 237 259 237 259 272 c 1,86,87
 233 278 233 278 222 280 c 1,88,89
 220 158 220 158 217 44 c 1,90,91
 237 42 237 42 250 42 c 3,80,81
235 592 m 1,92,-1
 217 589 l 1,93,94
 219 532 219 532 221 382 c 1,95,96
 233 380 233 380 258 375 c 1,97,98
 258 400 258 400 257 446 c 128,-1,99
 256 492 256 492 255.5 528.5 c 128,-1,100
 255 565 255 565 255 592 c 1,101,-1
 235 592 l 1,92,-1
362 156 m 0,102,103
 362 196 362 196 315 240 c 1,104,105
 315 214 315 214 314.5 162 c 128,-1,106
 314 110 314 110 313 86 c 1,107,108
 317 90 317 90 325.5 99 c 128,-1,109
 334 108 334 108 339 113.5 c 128,-1,110
 344 119 344 119 350 127 c 128,-1,111
 356 135 356 135 359 142 c 128,-1,112
 362 149 362 149 362 156 c 0,102,103
EndSplineSet
Validated: 1
EndChar

StartChar: parenleft
Encoding: 40 40 147
Width: 232
VWidth: -14
Flags: W
VStem: 13 95<150.399 456.608>
LayerCount: 2
Back
Fore
SplineSet
206 -30 m 3,0,1
 206 -50 206 -50 179 -50 c 0,2,3
 164 -50 164 -50 137 -22.5 c 128,-1,4
 110 5 110 5 82 48.5 c 128,-1,5
 54 92 54 92 33.5 156.5 c 128,-1,6
 13 221 13 221 13 286 c 0,7,8
 13 371 13 371 32.5 446.5 c 128,-1,9
 52 522 52 522 80 567 c 128,-1,10
 108 612 108 612 135 638 c 128,-1,11
 162 664 162 664 179 664 c 0,12,13
 206 664 206 664 206 645 c 0,14,15
 206 631 206 631 190.5 607 c 128,-1,16
 175 583 175 583 157 553.5 c 128,-1,17
 139 524 139 524 123.5 453 c 128,-1,18
 108 382 108 382 108 286 c 0,19,20
 108 207 108 207 123.5 146.5 c 128,-1,21
 139 86 139 86 157 59 c 128,-1,22
 175 32 175 32 190.5 8 c 128,-1,23
 206 -16 206 -16 206 -30 c 3,0,1
EndSplineSet
Validated: 1
EndChar

StartChar: parenright
Encoding: 41 41 148
Width: 225
VWidth: -14
Flags: W
VStem: 117 96<152.804 454.36>
DStem2: 145 567 34.5 607 0.41306 -0.910704<-92.1233 156.054> 34.5 8 178.5 120 0.486011 0.873953<-34.1142 195.136>
LayerCount: 2
Back
Fore
SplineSet
46 -50 m 7,0,1
 19 -50 19 -50 19 -30 c 0,2,3
 19 -16 19 -16 34.5 8 c 128,-1,4
 50 32 50 32 68 59 c 128,-1,5
 86 86 86 86 101.5 146.5 c 128,-1,6
 117 207 117 207 117 286 c 0,7,8
 117 382 117 382 101.5 453 c 128,-1,9
 86 524 86 524 68 553.5 c 128,-1,10
 50 583 50 583 34.5 607 c 128,-1,11
 19 631 19 631 19 645 c 0,12,13
 19 664 19 664 46 664 c 0,14,15
 64 664 64 664 90.5 638 c 128,-1,16
 117 612 117 612 145 567 c 128,-1,17
 173 522 173 522 193 446.5 c 128,-1,18
 213 371 213 371 213 286 c 0,19,20
 213 202 213 202 178.5 120 c 128,-1,21
 144 38 144 38 105.5 -6 c 128,-1,22
 67 -50 67 -50 46 -50 c 7,0,1
EndSplineSet
Validated: 1
EndChar

StartChar: asterisk
Encoding: 42 42 149
Width: 338
VWidth: -32
Flags: W
HStem: 462 67<66.656 101 233.036 270.524> 463 74<233.939 297.631> 474.5 62.5<26.0913 100.935 233.939 307.094>
VStem: 127 84<529.159 605.845>
LayerCount: 2
Back
Fore
SplineSet
276 384 m 0,0,1
 276 357 276 357 251 357 c 0,2,3
 238 357 238 357 223 369 c 128,-1,4
 208 381 208 381 189 404 c 128,-1,5
 170 427 170 427 169 429 c 1,6,7
 165 424 165 424 155 409 c 128,-1,8
 145 394 145 394 138 384.5 c 128,-1,9
 131 375 131 375 119 366 c 128,-1,10
 107 357 107 357 96 357 c 0,11,12
 83 357 83 357 75 365.5 c 128,-1,13
 67 374 67 374 67 384 c 0,14,15
 67 397 67 397 73 410.5 c 128,-1,16
 79 424 79 424 88.5 440.5 c 128,-1,17
 98 457 98 457 101 462 c 1,18,19
 99 462 99 462 86.5 465 c 128,-1,20
 74 468 74 468 68.5 469.5 c 128,-1,21
 63 471 63 471 52 475 c 128,-1,22
 41 479 41 479 36 483.5 c 128,-1,23
 31 488 31 488 26.5 496 c 128,-1,24
 22 504 22 504 22 514 c 0,25,26
 22 537 22 537 60 537 c 1,27,-1
 124 529 l 1,28,29
 125 534 125 534 127 551 c 128,-1,30
 129 568 129 568 131.5 579.5 c 128,-1,31
 134 591 134 591 143.5 601.5 c 128,-1,32
 153 612 153 612 169 612 c 0,33,34
 179 612 179 612 187 607 c 128,-1,35
 195 602 195 602 199 595.5 c 128,-1,36
 203 589 203 589 205.5 578 c 128,-1,37
 208 567 208 567 209 560 c 128,-1,38
 210 553 210 553 210.5 542 c 128,-1,39
 211 531 211 531 211 529 c 1,40,41
 256 537 256 537 271 537 c 0,42,43
 311 537 311 537 311 514 c 0,44,45
 311 499 311 499 301 488.5 c 128,-1,46
 291 478 291 478 282 474.5 c 128,-1,47
 273 471 273 471 253.5 467 c 128,-1,48
 234 463 234 463 233 463 c 1,49,50
 235 460 235 460 249 442 c 128,-1,51
 263 424 263 424 269.5 411 c 128,-1,52
 276 398 276 398 276 384 c 0,0,1
EndSplineSet
Validated: 1
EndChar

StartChar: germandbls
Encoding: 223 223 150
Width: 496
VWidth: -14
Flags: W
HStem: -27 52<214.875 318.764> 570 64<214.142 327.955>
VStem: 78 105<49.9678 530.541> 361 93<405.042 535.611> 376 92<73.9384 218.578>
LayerCount: 2
Back
Fore
SplineSet
212 8 m 135,-1,1
 212 19 212 19 216 25 c 1,2,-1
 221 25 l 2,3,4
 283 25 283 25 329.5 53 c 128,-1,5
 376 81 376 81 376 147 c 0,6,7
 376 176 376 176 364 201 c 128,-1,8
 352 226 352 226 328.5 247 c 128,-1,9
 305 268 305 268 285.5 281.5 c 128,-1,10
 266 295 266 295 236.638236769 312.024649025 c 0,11,12
 229 317 229 317 225 319 c 2,13,-1
 214 324 l 1,14,-1
 226 331 l 1,15,16
 361 398 361 398 361 449 c 0,17,18
 361 570 361 570 262 570 c 0,19,20
 225 570 225 570 205 536 c 128,-1,21
 185 502 185 502 185 444 c 2,22,-1
 183 -34 l 1,23,-1
 170 -26 l 2,24,25
 151 -15 151 -15 109.5 -10 c 128,-1,26
 68 -5 68 -5 38.5 -0.5 c 128,-1,27
 9 4 9 4 9 15 c 0,28,29
 9 23 9 23 23 32.5 c 128,-1,30
 37 42 37 42 57 50.5 c 128,-1,31
 77 59 77 59 78 60 c 2,32,-1
 78 418 l 2,33,34
 78 524 78 524 135.5 579 c 128,-1,35
 193 634 193 634 290 634 c 0,36,37
 361 634 361 634 407.5 580 c 128,-1,38
 454 526 454 526 454 456 c 0,39,40
 454 413 454 413 430 383 c 128,-1,41
 406 353 406 353 355 324 c 1,42,43
 393 295 393 295 412.5 276 c 128,-1,44
 432 257 432 257 450 222 c 128,-1,45
 468 187 468 187 468 145 c 0,46,47
 468 89 468 89 427 48 c 128,-1,48
 386 7 386 7 333.5 -10 c 128,-1,49
 281 -27 281 -27 230 -27 c 2,50,-1
 226 -27 l 1,51,0
 212 -3 212 -3 212 8 c 135,-1,1
EndSplineSet
Validated: 1
EndChar

StartChar: braceleft
Encoding: 123 123 151
Width: 351
VWidth: -14
Flags: W
VStem: 140 89<97.6714 243.219 390.239 532.441>
DStem2: 158 523.5 244 518 0.568755 0.822507<-12.5338 177.37>
LayerCount: 2
Back
Fore
SplineSet
298 -50 m 7,0,1
 286 -50 286 -50 261 -29.5 c 128,-1,2
 236 -9 236 -9 208.5 23 c 128,-1,3
 181 55 181 55 160.5 102 c 128,-1,4
 140 149 140 149 140 194 c 0,5,6
 140 222 140 222 119 242 c 128,-1,7
 98 262 98 262 73.5 271.5 c 128,-1,8
 49 281 49 281 28 290.5 c 128,-1,9
 7 300 7 300 7 309 c 0,10,11
 7 320 7 320 27.5 331.5 c 128,-1,12
 48 343 48 343 72.5 354 c 128,-1,13
 97 365 97 365 117.5 388.5 c 128,-1,14
 138 412 138 412 138 443 c 0,15,16
 138 482 138 482 158 523.5 c 128,-1,17
 178 565 178 565 205 595 c 128,-1,18
 232 625 232 625 258.5 644.5 c 128,-1,19
 285 664 285 664 298 664 c 0,20,21
 324 664 324 664 324 645 c 0,22,23
 324 632 324 632 309 612 c 128,-1,24
 294 592 294 592 276.5 572.5 c 128,-1,25
 259 553 259 553 244 518 c 128,-1,26
 229 483 229 483 229 443 c 0,27,28
 229 366 229 366 142 309 c 1,29,-1
 153 302.5 l 2,30,31
 164 296 164 296 169 292.5 c 128,-1,32
 174 289 174 289 185 281 c 128,-1,33
 196 273 196 273 202 265 c 128,-1,34
 208 257 208 257 215 246 c 128,-1,35
 222 235 222 235 225.5 222 c 128,-1,36
 229 209 229 209 229 194 c 0,37,38
 229 145 229 145 244 105 c 128,-1,39
 259 65 259 65 276.5 44.5 c 128,-1,40
 294 24 294 24 309 4 c 128,-1,41
 324 -16 324 -16 324 -30 c 0,42,43
 324 -38 324 -38 315.5 -44 c 128,-1,44
 307 -50 307 -50 298 -50 c 7,0,1
EndSplineSet
Validated: 1
EndChar

StartChar: braceright
Encoding: 125 125 152
Width: 350
VWidth: -14
Flags: W
VStem: 116 88<96.4833 243.24 391.523 533.555>
DStem2: 140 595 36 612 0.595823 -0.803116<-96.0199 86.1622> 36 4 137 23 0.532032 0.846724<-18.6975 183.972>
LayerCount: 2
Back
Fore
SplineSet
48 -50 m 3,0,1
 21 -50 21 -50 21 -30 c 0,2,3
 21 -16 21 -16 36 4 c 128,-1,4
 51 24 51 24 68.5 44.5 c 128,-1,5
 86 65 86 65 101 105 c 128,-1,6
 116 145 116 145 116 194 c 0,7,8
 116 207 116 207 119 219 c 128,-1,9
 122 231 122 231 126.5 240 c 128,-1,10
 131 249 131 249 138.5 258.5 c 128,-1,11
 146 268 146 268 151.5 273.5 c 128,-1,12
 157 279 157 279 167 286 c 128,-1,13
 177 293 177 293 181 295.5 c 128,-1,14
 185 298 185 298 194 303.5 c 2,15,-1
 203 309 l 1,16,17
 116 364 116 364 116 443 c 0,18,19
 116 483 116 483 101 518 c 128,-1,20
 86 553 86 553 68.5 572.5 c 128,-1,21
 51 592 51 592 36 612 c 128,-1,22
 21 632 21 632 21 645 c 0,23,24
 21 664 21 664 48 664 c 0,25,26
 61 664 61 664 87 644.5 c 128,-1,27
 113 625 113 625 140 595 c 128,-1,28
 167 565 167 565 187 523.5 c 128,-1,29
 207 482 207 482 207 443 c 0,30,31
 207 412 207 412 227.5 388.5 c 128,-1,32
 248 365 248 365 272.5 354 c 128,-1,33
 297 343 297 343 317.5 331.5 c 128,-1,34
 338 320 338 320 338 309 c 0,35,36
 338 300 338 300 317 290.5 c 128,-1,37
 296 281 296 281 271 271.5 c 128,-1,38
 246 262 246 262 225 242 c 128,-1,39
 204 222 204 222 204 194 c 0,40,41
 204 149 204 149 184 102 c 128,-1,42
 164 55 164 55 137 23 c 128,-1,43
 110 -9 110 -9 85 -29.5 c 128,-1,44
 60 -50 60 -50 48 -50 c 3,0,1
EndSplineSet
Validated: 1
EndChar

StartChar: bracketleft
Encoding: 91 91 153
Width: 211
VWidth: -14
Flags: W
HStem: -68 65<118 181.291> -59 59<129.709 180.109> 600 59<117.36 188.087> 602 65<114 188.64>
VStem: 25 82<41.9844 540.88> 36 79<-3 202.438 411.927 602>
LayerCount: 2
Back
Fore
SplineSet
198 659 m 1,0,1
 197 657 197 657 195 648 c 128,-1,2
 193 639 193 639 191 632 c 128,-1,3
 189 625 189 625 186.5 617.5 c 128,-1,4
 184 610 184 610 181 605 c 128,-1,5
 178 600 178 600 175 600 c 2,6,-1
 114 602 l 1,7,8
 107 364 107 364 107 297 c 0,9,10
 107 268 107 268 109.5 202 c 128,-1,11
 112 136 112 136 115 72 c 128,-1,12
 118 8 118 8 118 -3 c 1,13,-1
 175 0 l 1,14,15
 189 -15 189 -15 199 -59 c 1,16,-1
 112 -68 l 1,17,-1
 111 -68 l 2,18,19
 101 -68 101 -68 73 -62 c 128,-1,20
 45 -56 45 -56 40 -52 c 2,21,-1
 36 -50 l 1,22,-1
 36 -46 l 1,23,24
 25 204 25 204 25 290 c 2,25,-1
 35 640 l 1,26,-1
 35 644 l 1,27,-1
 40 646 l 2,28,29
 45 650 45 650 72 658.5 c 128,-1,30
 99 667 99 667 107 667 c 2,31,-1
 108 667 l 1,32,-1
 198 659 l 1,0,1
EndSplineSet
Validated: 1
EndChar

StartChar: bracketright
Encoding: 93 93 154
Width: 214
VWidth: -14
Flags: W
HStem: -65 65<34.1164 99> -56 59<25.2958 86.8836> 600 59<26.6523 97.536> 602 65<25.835 101>
VStem: 16 163<-47 -0.0249023 608.75 655.285> 99 80<0 213.743 393.594 602> 105 82<0 536.094>
LayerCount: 2
Back
Fore
SplineSet
107 667 m 1,0,1
 119 667 119 667 148.5 658 c 128,-1,2
 178 649 178 649 178 644 c 2,3,-1
 178 640 l 1,4,5
 187 385 187 385 187 290 c 2,6,-1
 179 -43 l 1,7,-1
 179 -47 l 1,8,-1
 176 -49 l 2,9,10
 172 -53 172 -53 143.5 -59 c 128,-1,11
 115 -65 115 -65 105 -65 c 2,12,-1
 16 -56 l 1,13,14
 16 -44 16 -44 24.5 -21 c 128,-1,15
 33 2 33 2 41 3 c 2,16,-1
 99 0 l 1,17,18
 105 234 105 234 105 297 c 0,19,20
 105 474 105 474 101 602 c 1,21,-1
 39 600 l 2,22,23
 34 603 34 603 25 626 c 128,-1,24
 16 649 16 649 16 659 c 1,25,-1
 107 667 l 1,0,1
EndSplineSet
Validated: 1
EndChar

StartChar: uni00AD
Encoding: 173 173 155
Width: 314
VWidth: -10
Flags: W
HStem: 218 85<85.61 280.937> 226 82<25 156.813 159.844 280.937>
VStem: 10 284<223.665 295.829>
LayerCount: 2
Back
Fore
SplineSet
294 309 m 5,0,1
 288 251 288 251 281 230 c 0,2,3
 279 226 279 226 276 226 c 0,4,5
 217 218 217 218 158 218 c 0,6,7
 120 218 120 218 84.5 220 c 128,-1,8
 49 222 49 222 33 224 c 2,9,-1
 17 226 l 1,10,-1
 10 227 l 1,11,-1
 10 234 l 2,12,13
 10 245 10 245 14.5 274 c 128,-1,14
 19 303 19 303 23 304 c 2,15,-1
 25 308 l 1,16,-1
 30 308 l 1,17,18
 112 303 112 303 164 303 c 2,19,-1
 285 308 l 1,20,-1
 294 309 l 5,0,1
EndSplineSet
Validated: 1
EndChar

StartChar: quotedblright
Encoding: 8221 8221 156
Width: 339
VWidth: 41
Flags: W
HStem: 377 316<61.8491 88.8624 225.849 253.18>
VStem: 47 99<477.512 682.668> 211 100<477.512 682.668>
LayerCount: 2
Back
Fore
SplineSet
201 391 m 6,0,1
 201 533 201 533 211 613 c 128,-1,2
 221 693 221 693 253 693 c 0,3,4
 311 693 311 693 311 643 c 0,5,6
 311 621 311 621 306.5 583 c 128,-1,7
 302 545 302 545 292.5 495.5 c 128,-1,8
 283 446 283 446 262 411.5 c 128,-1,9
 241 377 241 377 213 377 c 2,10,-1
 201 377 l 1,11,-1
 201 391 l 6,0,1
37 391 m 6,12,13
 37 533 37 533 47 613 c 128,-1,14
 57 693 57 693 89 693 c 0,15,16
 146 693 146 693 146 643 c 0,17,18
 146 621 146 621 141.5 583 c 128,-1,19
 137 545 137 545 127.5 495.5 c 128,-1,20
 118 446 118 446 97.5 411.5 c 128,-1,21
 77 377 77 377 49 377 c 2,22,-1
 37 377 l 1,23,-1
 37 391 l 6,12,13
EndSplineSet
Validated: 1
EndChar

StartChar: quotedblleft
Encoding: 8220 8220 157
Width: 339
VWidth: 41
Flags: W
HStem: 377 316<94.8201 122.151 259.138 286.151>
VStem: 37 100<387.332 592.488> 202 99<387.332 592.488>
LayerCount: 2
Back
Fore
SplineSet
147 679 m 6,0,1
 147 537 147 537 137 457 c 128,-1,2
 127 377 127 377 95 377 c 0,3,4
 37 377 37 377 37 427 c 0,5,6
 37 449 37 449 41.5 487 c 128,-1,7
 46 525 46 525 55.5 574.5 c 128,-1,8
 65 624 65 624 86 658.5 c 128,-1,9
 107 693 107 693 135 693 c 2,10,-1
 147 693 l 1,11,-1
 147 679 l 6,0,1
311 679 m 6,12,13
 311 537 311 537 301 457 c 128,-1,14
 291 377 291 377 259 377 c 0,15,16
 202 377 202 377 202 427 c 0,17,18
 202 449 202 449 206.5 487 c 128,-1,19
 211 525 211 525 220.5 574.5 c 128,-1,20
 230 624 230 624 250.5 658.5 c 128,-1,21
 271 693 271 693 299 693 c 2,22,-1
 311 693 l 1,23,-1
 311 679 l 6,12,13
EndSplineSet
Validated: 1
EndChar

StartChar: quoteright
Encoding: 8217 8217 158
Width: 172
VWidth: 41
Flags: W
HStem: 380 314<61.5833 85.4974>
VStem: 33 111<480.465 655.255>
LayerCount: 2
Back
Fore
SplineSet
33 394 m 6,0,1
 33 694 33 694 86 694 c 0,2,3
 144 694 144 694 144 645 c 0,4,5
 144 623 144 623 139.5 585.5 c 128,-1,6
 135 548 135 548 125.5 498.5 c 128,-1,7
 116 449 116 449 94.5 414.5 c 128,-1,8
 73 380 73 380 45 380 c 2,9,-1
 33 380 l 1,10,-1
 33 394 l 6,0,1
EndSplineSet
Validated: 1
EndChar

StartChar: quoteleft
Encoding: 8216 8216 159
Width: 172
VWidth: 41
Flags: W
HStem: 380 314<91.5026 115.417>
VStem: 33 111<418.745 593.535>
LayerCount: 2
Back
Fore
SplineSet
144 680 m 6,0,1
 144 380 144 380 91 380 c 0,2,3
 33 380 33 380 33 429 c 0,4,5
 33 451 33 451 37.5 488.5 c 128,-1,6
 42 526 42 526 51.5 575.5 c 128,-1,7
 61 625 61 625 82.5 659.5 c 128,-1,8
 104 694 104 694 132 694 c 2,9,-1
 144 694 l 1,10,-1
 144 680 l 6,0,1
EndSplineSet
Validated: 1
EndChar

StartChar: endash
Encoding: 8211 8211 160
Width: 409
VWidth: -10
Flags: W
HStem: 218 82<120.47 388.462> 226 79<39 216.376 220.469 391.333>
LayerCount: 2
Back
Fore
SplineSet
400 306 m 5,0,1
 400 302 400 302 399 292 c 128,-1,2
 398 282 398 282 397.5 275 c 128,-1,3
 397 268 397 268 393.5 255.5 c 128,-1,4
 390 243 390 243 384 230 c 0,5,6
 382 226 382 226 377 226 c 0,7,8
 297 218 297 218 218 218 c 0,9,10
 166 218 166 218 119 220 c 128,-1,11
 72 222 72 222 50.5 224 c 2,12,-1
 29 226 l 1,13,-1
 20 227 l 1,14,-1
 20 234 l 2,15,16
 20 245 20 245 25.5 272.5 c 128,-1,17
 31 300 31 300 36 301 c 2,18,-1
 39 305 l 1,19,-1
 47 305 l 1,20,21
 156 300 156 300 226 300 c 2,22,-1
 389 305 l 1,23,-1
 400 306 l 5,0,1
EndSplineSet
Validated: 1
EndChar

StartChar: uni2011
Encoding: 8209 8209 161
Width: 314
VWidth: -10
Flags: W
HStem: 218 85<85.61 280.937> 226 82<25 156.813 159.844 280.937>
VStem: 10 284<223.665 295.829>
LayerCount: 2
Back
Fore
SplineSet
294 309 m 5,0,1
 288 251 288 251 281 230 c 0,2,3
 279 226 279 226 276 226 c 0,4,5
 217 218 217 218 158 218 c 0,6,7
 120 218 120 218 84.5 220 c 128,-1,8
 49 222 49 222 33 224 c 2,9,-1
 17 226 l 1,10,-1
 10 227 l 1,11,-1
 10 234 l 2,12,13
 10 245 10 245 14.5 274 c 128,-1,14
 19 303 19 303 23 304 c 2,15,-1
 25 308 l 1,16,-1
 30 308 l 1,17,18
 112 303 112 303 164 303 c 2,19,-1
 285 308 l 1,20,-1
 294 309 l 5,0,1
EndSplineSet
Validated: 1
EndChar

StartChar: uni2010
Encoding: 8208 8208 162
Width: 314
VWidth: -10
Flags: W
HStem: 218 85<85.61 280.937> 226 82<25 156.813 159.844 280.937>
VStem: 10 284<223.665 295.829>
LayerCount: 2
Back
Fore
SplineSet
294 309 m 5,0,1
 288 251 288 251 281 230 c 0,2,3
 279 226 279 226 276 226 c 0,4,5
 217 218 217 218 158 218 c 0,6,7
 120 218 120 218 84.5 220 c 128,-1,8
 49 222 49 222 33 224 c 2,9,-1
 17 226 l 1,10,-1
 10 227 l 1,11,-1
 10 234 l 2,12,13
 10 245 10 245 14.5 274 c 128,-1,14
 19 303 19 303 23 304 c 2,15,-1
 25 308 l 1,16,-1
 30 308 l 1,17,18
 112 303 112 303 164 303 c 2,19,-1
 285 308 l 1,20,-1
 294 309 l 5,0,1
EndSplineSet
Validated: 1
EndChar

StartChar: figuredash
Encoding: 8210 8210 163
Width: 409
VWidth: -10
Flags: W
HStem: 218 82<120.47 388.462> 226 79<39 216.376 220.469 391.333>
LayerCount: 2
Back
Fore
SplineSet
400 306 m 5,0,1
 400 302 400 302 399 292 c 128,-1,2
 398 282 398 282 397.5 275 c 128,-1,3
 397 268 397 268 393.5 255.5 c 128,-1,4
 390 243 390 243 384 230 c 0,5,6
 382 226 382 226 377 226 c 0,7,8
 297 218 297 218 218 218 c 0,9,10
 166 218 166 218 119 220 c 128,-1,11
 72 222 72 222 50.5 224 c 2,12,-1
 29 226 l 1,13,-1
 20 227 l 1,14,-1
 20 234 l 2,15,16
 20 245 20 245 25.5 272.5 c 128,-1,17
 31 300 31 300 36 301 c 2,18,-1
 39 305 l 1,19,-1
 47 305 l 1,20,21
 156 300 156 300 226 300 c 2,22,-1
 389 305 l 1,23,-1
 400 306 l 5,0,1
EndSplineSet
Validated: 1
EndChar

StartChar: emdash
Encoding: 8212 8212 164
Width: 625
VWidth: -10
Flags: W
HStem: 218 82<180.798 584.644> 226 79<55 329.502 335.844 590.874>
LayerCount: 2
Back
Fore
SplineSet
616 306 m 5,0,1
 615 302 615 302 613.5 288 c 128,-1,2
 612 274 612 274 607.5 260 c 128,-1,3
 603 246 603 246 591 230 c 0,4,5
 587 226 587 226 580 226 c 0,6,7
 455 218 455 218 332 218 c 0,8,9
 252 218 252 218 178.5 220 c 128,-1,10
 105 222 105 222 72 224 c 2,11,-1
 39 226 l 1,12,-1
 26 227 l 1,13,-1
 26 234 l 2,14,15
 26 245 26 245 34.5 272.5 c 128,-1,16
 43 300 43 300 50 301 c 2,17,-1
 55 305 l 1,18,-1
 66 305 l 1,19,20
 237 300 237 300 346 300 c 2,21,-1
 598 305 l 1,22,-1
 616 306 l 5,0,1
EndSplineSet
Validated: 1
EndChar

StartChar: onedotenleader
Encoding: 8228 8228 165
Width: 256
VWidth: 9
Flags: W
HStem: -20 149<84.0273 159.688>
VStem: 44 164<23.1549 87.2397>
LayerCount: 2
Back
Fore
SplineSet
127 -20 m 4,0,1
 110 -20 110 -20 77 7.5 c 128,-1,2
 44 35 44 35 44 54 c 0,3,4
 44 70 44 70 73 99.5 c 128,-1,5
 102 129 102 129 119 129 c 0,6,7
 130 129 130 129 169 100.5 c 128,-1,8
 208 72 208 72 208 60 c 0,9,10
 208 45 208 45 175.5 12.5 c 128,-1,11
 143 -20 143 -20 127 -20 c 4,0,1
EndSplineSet
Validated: 1
EndChar

StartChar: twodotenleader
Encoding: 8229 8229 166
Width: 470
VWidth: 9
Flags: W
HStem: -20 149<90.0273 165.305 309.424 385.305>
VStem: 50 163<23.1549 87.2397> 270 163<23.1549 87.2397>
LayerCount: 2
Back
Fore
SplineSet
352 -20 m 4,0,1
 335 -20 335 -20 302.5 7.5 c 128,-1,2
 270 35 270 35 270 54 c 0,3,4
 270 70 270 70 299 99.5 c 128,-1,5
 328 129 328 129 345 129 c 0,6,7
 356 129 356 129 394.5 100.5 c 128,-1,8
 433 72 433 72 433 60 c 0,9,10
 433 45 433 45 400.5 12.5 c 128,-1,11
 368 -20 368 -20 352 -20 c 4,0,1
133 -20 m 4,12,13
 116 -20 116 -20 83 7.5 c 128,-1,14
 50 35 50 35 50 54 c 0,15,16
 50 70 50 70 79 99.5 c 128,-1,17
 108 129 108 129 125 129 c 0,18,19
 136 129 136 129 174.5 100.5 c 128,-1,20
 213 72 213 72 213 60 c 0,21,22
 213 45 213 45 181 12.5 c 128,-1,23
 149 -20 149 -20 133 -20 c 4,12,13
EndSplineSet
Validated: 1
EndChar

StartChar: ellipsis
Encoding: 8230 8230 167
Width: 695
VWidth: 9
Flags: W
HStem: -20 149<95.424 171.305 315.027 390.688 533.424 609.305>
VStem: 56 163<23.1549 87.2397> 275 164<23.1549 87.2397> 494 163<23.1549 87.2397>
LayerCount: 2
Back
Fore
SplineSet
576 -20 m 0,0,1
 559 -20 559 -20 526.5 7.5 c 128,-1,2
 494 35 494 35 494 54 c 0,3,4
 494 70 494 70 523 99.5 c 128,-1,5
 552 129 552 129 569 129 c 0,6,7
 580 129 580 129 618.5 100.5 c 128,-1,8
 657 72 657 72 657 60 c 0,9,10
 657 45 657 45 624.5 12.5 c 128,-1,11
 592 -20 592 -20 576 -20 c 0,0,1
358 -20 m 0,12,13
 341 -20 341 -20 308 7.5 c 128,-1,14
 275 35 275 35 275 54 c 0,15,16
 275 70 275 70 304 99.5 c 128,-1,17
 333 129 333 129 350 129 c 0,18,19
 361 129 361 129 400 100.5 c 128,-1,20
 439 72 439 72 439 60 c 0,21,22
 439 45 439 45 406.5 12.5 c 128,-1,23
 374 -20 374 -20 358 -20 c 0,12,13
138 -20 m 0,24,25
 121 -20 121 -20 88.5 7.5 c 128,-1,26
 56 35 56 35 56 54 c 0,27,28
 56 70 56 70 85 99.5 c 128,-1,29
 114 129 114 129 131 129 c 0,30,31
 142 129 142 129 180.5 100.5 c 128,-1,32
 219 72 219 72 219 60 c 0,33,34
 219 45 219 45 186.5 12.5 c 128,-1,35
 154 -20 154 -20 138 -20 c 0,24,25
EndSplineSet
Validated: 1
EndChar

StartChar: zacute
Encoding: 378 378 175
Width: 481
VWidth: -2
Flags: W
HStem: -15 91<207.744 416.852> 4 77<204 377.142> 318 79<81.3049 227.951> 610 20G<324 358>
VStem: 417 48<-44.8364 -15>
DStem2: 305 277 204 81 0.667545 0.744569<-213.358 0 86.4594 144.353>
LayerCount: 2
Back
Fore
SplineSet
338 630 m 0,0,1
 378 630 378 630 378 598 c 0,2,3
 378 569 378 569 311.5 495.5 c 128,-1,4
 245 422 245 422 210 422 c 2,5,-1
 200 422 l 1,6,-1
 202 433 l 1,7,8
 222 508 222 508 266 569 c 128,-1,9
 310 630 310 630 338 630 c 0,0,1
407 382 m 3,10,11
 416 382 416 382 422 376 c 128,-1,12
 428 370 428 370 428 361 c 0,13,14
 428 349 428 349 372 279 c 128,-1,15
 316 209 316 209 260 145 c 2,16,-1
 204 81 l 1,17,18
 320 81 320 81 379 76 c 128,-1,19
 438 71 438 71 451.5 64 c 128,-1,20
 465 57 465 57 465 44 c 0,21,22
 465 -50 465 -50 428 -50 c 0,23,24
 417 -50 417 -50 417 -29 c 0,25,26
 417 -19 417 -19 418 -15 c 1,27,28
 261 4 261 4 206 4 c 0,29,30
 177 4 177 4 139.5 -2 c 128,-1,31
 102 -8 102 -8 79 -14 c 2,32,-1
 56 -20 l 1,33,-1
 30 -27 l 1,34,-1
 48 -7 l 2,35,36
 161 119 161 119 305 277 c 1,37,38
 265 285 265 285 227 296.5 c 128,-1,39
 189 308 189 308 163.5 313 c 128,-1,40
 138 318 138 318 98 318 c 0,41,42
 90 318 90 318 80 311 c 128,-1,43
 70 304 70 304 64.5 297.5 c 2,44,-1
 59 291 l 1,45,-1
 46 271 l 1,46,-1
 46 296 l 2,47,48
 46 322 46 322 70 359.5 c 128,-1,49
 94 397 94 397 119 397 c 0,50,51
 170 397 170 397 260.5 372 c 128,-1,52
 351 347 351 347 356 347 c 0,53,54
 370 347 370 347 381 364.5 c 128,-1,55
 392 382 392 382 407 382 c 3,10,11
EndSplineSet
Validated: 1
EndChar

StartChar: aogonek
Encoding: 261 261 176
Width: 458
VWidth: -3
Flags: W
HStem: -151 40.5<350.535 436.837> -9 74<383.391 446.977> 41 10<181 262> 244 46<128.002 158.622> 311 69<128.711 261.797>
VStem: 30 104<54.0059 115.151 279.724 305> 263 63<-95.7998 -4.26172> 275 107<222.219 296.219>
DStem2: 152.5 181.5 181 132 0.946128 0.323792<-41.3762 110.619>
LayerCount: 2
Back
Fore
SplineSet
440 -125 m 0,0,1
 440 -138 440 -138 423 -144.5 c 128,-1,2
 406 -151 406 -151 389 -151 c 0,3,4
 338 -151 338 -151 299 -114 c 0,5,6
 280 -95 280 -95 271.5 -78.5 c 128,-1,7
 263 -62 263 -62 263 -33 c 0,8,9
 263 -1 263 -1 287 29 c 1,10,11
 265 40 265 40 262 41 c 0,12,13
 261 41 261 41 246.5 27 c 128,-1,14
 232 13 232 13 200 0 c 128,-1,15
 168 -13 168 -13 123 -13 c 0,16,17
 30 -13 30 -13 30 59 c 0,18,19
 30 103 30 103 68.5 135 c 128,-1,20
 107 167 107 167 152.5 181.5 c 128,-1,21
 198 196 198 196 236.5 213.5 c 128,-1,22
 275 231 275 231 275 248 c 0,23,24
 275 311 275 311 195 311 c 0,25,26
 173 311 173 311 152.5 304 c 128,-1,27
 132 297 132 297 128 292 c 0,28,29
 128 291 128 291 136 290 c 128,-1,30
 144 289 144 289 151.5 284.5 c 128,-1,31
 159 280 159 280 159 270 c 0,32,33
 159 244 159 244 97 244 c 0,34,35
 74 244 74 244 52 257 c 128,-1,36
 30 270 30 270 30 291 c 0,37,38
 30 320 30 320 62.5 341 c 128,-1,39
 95 362 95 362 133.5 371 c 128,-1,40
 172 380 172 380 207 380 c 0,41,42
 230 380 230 380 257.5 375.5 c 128,-1,43
 285 371 285 371 314 362 c 128,-1,44
 343 353 343 353 362.5 336 c 128,-1,45
 382 319 382 319 382 297 c 2,46,-1
 383 90 l 2,47,48
 383 75 383 75 421 65 c 128,-1,49
 459 55 459 55 459 38 c 0,50,51
 459 20 459 20 437.5 5.5 c 128,-1,52
 416 -9 416 -9 387 -9 c 0,53,54
 373 -9 373 -9 352 -1 c 1,55,56
 326 -21 326 -21 326 -39 c 0,57,58
 326 -81 326 -81 350 -97 c 0,59,60
 367 -109 367 -109 399.5 -110.5 c 128,-1,61
 432 -112 432 -112 437 -116 c 0,62,63
 440 -118 440 -118 440 -125 c 0,0,1
181 51 m 0,64,65
 246 51 246 51 274 171 c 1,66,67
 228 158 228 158 181 132 c 128,-1,68
 134 106 134 106 134 76 c 0,69,70
 134 51 134 51 181 51 c 0,64,65
EndSplineSet
Validated: 1
EndChar

StartChar: Aogonek
Encoding: 260 260 177
Width: 670
VWidth: -15
Flags: W
HStem: -155 40.5<560.535 645.837> -9 61<569.948 647.954> -9 41<398.562 470.191> 287 76<318.88 404> 562 69<260 365> 574 70<76.3228 194 464 530.814>
VStem: 82 76<59 184.49> 472 63<-98.9261 -8.20312>
DStem2: 99.5 162 191 248 0.223049 0.974807<-84.9273 114.449 205.878 422.798>
LayerCount: 2
Back
Fore
SplineSet
649 -129 m 0,0,1
 649 -142 649 -142 632.5 -148.5 c 128,-1,2
 616 -155 616 -155 599 -155 c 0,3,4
 547 -155 547 -155 508 -118 c 0,5,6
 489 -99 489 -99 480.5 -82.5 c 128,-1,7
 472 -66 472 -66 472 -37 c 0,8,9
 472 -19 472 -19 478 -4 c 1,10,11
 433 -9 433 -9 420 -9 c 0,12,13
 411 -9 411 -9 404.5 -0.5 c 128,-1,14
 398 8 398 8 398 16 c 0,15,16
 398 32 398 32 414 32 c 0,17,18
 421 32 421 32 477 55 c 1,19,-1
 424 287 l 1,20,21
 343 282 343 282 191 248 c 1,22,23
 160 138 160 138 158 59 c 1,24,25
 161 59 161 59 183.5 57.5 c 128,-1,26
 206 56 206 56 223 56 c 0,27,28
 243 56 243 56 243 26 c 0,29,30
 243 0 243 0 224 0 c 0,31,32
 208 0 208 0 196.5 -1 c 128,-1,33
 185 -2 185 -2 168 -2 c 0,34,35
 153 -2 153 -2 115.5 -4.5 c 128,-1,36
 78 -7 78 -7 62 -7 c 0,37,38
 40 -7 40 -7 40 29 c 0,39,40
 40 55 40 55 55 55 c 0,41,42
 72 55 72 55 82 60 c 1,43,44
 83 82 83 82 99.5 162 c 128,-1,45
 116 242 116 242 134.5 321.5 c 128,-1,46
 153 401 153 401 172.5 484.5 c 128,-1,47
 192 568 192 568 194 575 c 1,48,49
 190 576 190 576 138 578.5 c 128,-1,50
 86 581 86 581 76 589 c 0,51,52
 65 598 65 598 58.5 616 c 128,-1,53
 52 634 52 634 52 644 c 1,54,-1
 61 644 l 2,55,56
 114 644 114 644 189.5 637.5 c 128,-1,57
 265 631 265 631 320 631 c 0,58,59
 358 631 358 631 397 637.5 c 128,-1,60
 436 644 436 644 476 644 c 0,61,62
 534 644 534 644 534 611 c 0,63,64
 534 600 534 600 529 592.5 c 128,-1,65
 524 585 524 585 515 581.5 c 128,-1,66
 506 578 506 578 498.5 576.5 c 128,-1,67
 491 575 491 575 479 574 c 128,-1,68
 467 573 467 573 464 573 c 1,69,70
 464 539 464 539 517 329.5 c 128,-1,71
 570 120 570 120 570 70 c 0,72,73
 570 52 570 52 625 52 c 0,74,75
 638 52 638 52 644 40 c 128,-1,76
 650 28 650 28 650 16 c 0,77,78
 650 -9 650 -9 631 -9 c 0,79,80
 616 -9 616 -9 600 -6 c 128,-1,81
 584 -3 584 -3 565 -2 c 1,82,83
 535 -24 535 -24 535 -43 c 0,84,85
 535 -84 535 -84 560 -101 c 0,86,87
 577 -113 577 -113 609 -114.5 c 128,-1,88
 641 -116 641 -116 646 -120 c 0,89,90
 649 -122 649 -122 649 -129 c 0,0,1
214 347 m 1,91,-1
 404 363 l 1,92,-1
 365 562 l 1,93,-1
 260 559 l 1,94,-1
 214 347 l 1,91,-1
EndSplineSet
Validated: 1
EndChar

StartChar: Eogonek
Encoding: 280 280 178
Width: 642
VWidth: -12
Flags: W
HStem: -132 41.5<611.533 680.839> -26 108<294.609 463.739> 261 104<172 280.946> 285 102<407.054 525> 566 90<215.684 358.344>
VStem: 45 118<365 450.875> 524 62<-74.9261 15.0189> 574 58<107.875 260.541>
LayerCount: 2
Back
Fore
SplineSet
276 566 m 0,0,1
 243 566 243 566 220.5 548.5 c 128,-1,2
 198 531 198 531 186.5 499.5 c 128,-1,3
 175 468 175 468 170 437 c 128,-1,4
 165 406 165 406 163 365 c 1,5,-1
 525 387 l 1,6,7
 504 416 504 416 479.5 443 c 128,-1,8
 455 470 455 470 422 500 c 128,-1,9
 389 530 389 530 350.5 548 c 128,-1,10
 312 566 312 566 276 566 c 0,0,1
431 82 m 0,11,12
 475 82 475 82 516 95 c 128,-1,13
 557 108 557 108 574 119 c 1,14,-1
 573 285 l 1,15,16
 190 262 190 262 172 261 c 1,17,18
 176 228 176 228 190.5 199 c 128,-1,19
 205 170 205 170 233.5 142 c 128,-1,20
 262 114 262 114 312.5 98 c 128,-1,21
 363 82 363 82 431 82 c 0,11,12
684 -105 m 0,22,23
 684 -118 684 -118 667.5 -125 c 128,-1,24
 651 -132 651 -132 635 -132 c 0,25,26
 600 -132 600 -132 560 -94 c 0,27,28
 541 -75 541 -75 532.5 -58.5 c 128,-1,29
 524 -42 524 -42 524 -13 c 0,30,31
 524 14 524 14 536 33 c 1,32,33
 487 3 487 3 443 -11.5 c 128,-1,34
 399 -26 399 -26 340 -26 c 0,35,36
 240 -26 240 -26 172 24.5 c 128,-1,37
 104 75 104 75 74.5 153 c 128,-1,38
 45 231 45 231 45 329 c 0,39,40
 45 404 45 404 78 479 c 128,-1,41
 111 554 111 554 170.5 605 c 128,-1,42
 230 656 230 656 298 656 c 0,43,44
 361 656 361 656 427.5 628 c 128,-1,45
 494 600 494 600 540 552 c 1,46,47
 545 566 545 566 552.5 598 c 128,-1,48
 560 630 560 630 567.5 642.5 c 128,-1,49
 575 655 575 655 589 655 c 0,50,51
 606 655 606 655 606 626 c 0,52,53
 606 603 606 603 586 520.5 c 128,-1,54
 566 438 566 438 560 398 c 1,55,-1
 640 405 l 1,56,57
 632 361 632 361 632 37 c 2,58,-1
 632 33 l 1,59,60
 628 30 628 30 618 22.5 c 128,-1,61
 608 15 608 15 602.5 10.5 c 128,-1,62
 597 6 597 6 591.5 -2.5 c 128,-1,63
 586 -11 586 -11 586 -19 c 0,64,65
 586 -60 586 -60 611 -77 c 0,66,67
 628 -89 628 -89 652 -90.5 c 128,-1,68
 676 -92 676 -92 681 -96 c 0,69,70
 684 -98 684 -98 684 -105 c 0,22,23
EndSplineSet
Validated: 1
EndChar

StartChar: eogonek
Encoding: 281 281 179
Width: 444
VWidth: -3
Flags: W
HStem: -140 40.5<278.535 364.837> -15 68<189.006 191 254 327.351> 327 53<176.104 235.8>
VStem: 38 107<212 288.305> 191 63<-84.625 -16.126>
DStem2: 145 212 150 152 0.899357 0.437214<0 129.321 235.672 274.614> 340.5 81.5 363 38 0.503871 0.863779<-41.28 38.3464>
LayerCount: 2
Back
Fore
SplineSet
196 327 m 0,0,1
 183 327 183 327 165.5 287.5 c 128,-1,2
 148 248 148 248 145 212 c 1,3,4
 195 233 195 233 217 241 c 0,5,6
 223 244 223 244 233 248 c 128,-1,7
 243 252 243 252 250.5 255.5 c 128,-1,8
 258 259 258 259 264 263 c 1,9,10
 231 327 231 327 196 327 c 0,0,1
368 -114 m 0,11,12
 368 -127 368 -127 351 -133.5 c 128,-1,13
 334 -140 334 -140 317 -140 c 0,14,15
 266 -140 266 -140 227 -103 c 0,16,17
 208 -84 208 -84 199.5 -67.5 c 128,-1,18
 191 -51 191 -51 191 -22 c 2,19,-1
 191 -15 l 1,20,21
 121 -2 121 -2 79.5 55.5 c 128,-1,22
 38 113 38 113 38 186 c 0,23,24
 38 380 38 380 225 380 c 0,25,26
 237 380 237 380 247.5 378.5 c 128,-1,27
 258 377 258 377 268 374 c 128,-1,28
 278 371 278 371 286 368.5 c 128,-1,29
 294 366 294 366 302.5 360.5 c 128,-1,30
 311 355 311 355 316 352 c 128,-1,31
 321 349 321 349 328.5 342 c 128,-1,32
 336 335 336 335 339 333 c 128,-1,33
 342 331 342 331 348.5 324.5 c 128,-1,34
 355 318 355 318 356 317 c 0,35,36
 377 329 377 329 394 329 c 0,37,38
 418 329 418 329 418 296 c 0,39,40
 418 289 418 289 410 282 c 128,-1,41
 402 275 402 275 384.5 266 c 128,-1,42
 367 257 367 257 350 249.5 c 128,-1,43
 333 242 333 242 304 229.5 c 128,-1,44
 275 217 275 217 255 208 c 0,45,46
 212 189 212 189 150 152 c 1,47,48
 159 97 159 97 189 75 c 128,-1,49
 219 53 219 53 274 53 c 0,50,51
 301 53 301 53 318 62 c 128,-1,52
 335 71 335 71 340.5 81.5 c 128,-1,53
 346 92 346 92 353 101 c 128,-1,54
 360 110 360 110 368 110 c 0,55,56
 375 110 375 110 384.5 104.5 c 128,-1,57
 394 99 394 99 398 98 c 1,58,59
 396 94 396 94 388 78.5 c 128,-1,60
 380 63 380 63 376 57 c 128,-1,61
 372 51 372 51 363 38 c 128,-1,62
 354 25 354 25 345 19 c 128,-1,63
 336 13 336 13 323 4.5 c 128,-1,64
 310 -4 310 -4 293 -9 c 128,-1,65
 276 -14 276 -14 256 -16 c 0,66,67
 254 -20 254 -20 254 -28 c 0,68,69
 254 -70 254 -70 278 -86 c 0,70,71
 295 -98 295 -98 327.5 -99.5 c 128,-1,72
 360 -101 360 -101 365 -105 c 0,73,74
 368 -107 368 -107 368 -114 c 0,11,12
EndSplineSet
Validated: 1
EndChar

StartChar: zdotaccent
Encoding: 380 380 180
Width: 481
VWidth: -2
Flags: W
HStem: -15 91<207.744 416.852> 4 77<204 377.142> 318 79<81.3049 227.951> 447 149<206.027 281.688>
VStem: 166 164<490.155 554.24> 417 48<-44.8364 -15>
DStem2: 305 277 204 81 0.667545 0.744569<-213.358 0 86.4594 144.353>
LayerCount: 2
Back
Fore
SplineSet
249 447 m 4,0,1
 232 447 232 447 199 474.5 c 128,-1,2
 166 502 166 502 166 521 c 0,3,4
 166 537 166 537 195 566.5 c 128,-1,5
 224 596 224 596 241 596 c 0,6,7
 252 596 252 596 291 567.5 c 128,-1,8
 330 539 330 539 330 527 c 0,9,10
 330 512 330 512 297.5 479.5 c 128,-1,11
 265 447 265 447 249 447 c 4,0,1
407 382 m 3,12,13
 416 382 416 382 422 376 c 128,-1,14
 428 370 428 370 428 361 c 0,15,16
 428 349 428 349 372 279 c 128,-1,17
 316 209 316 209 260 145 c 2,18,-1
 204 81 l 1,19,20
 320 81 320 81 379 76 c 128,-1,21
 438 71 438 71 451.5 64 c 128,-1,22
 465 57 465 57 465 44 c 0,23,24
 465 -50 465 -50 428 -50 c 0,25,26
 417 -50 417 -50 417 -29 c 0,27,28
 417 -19 417 -19 418 -15 c 1,29,30
 261 4 261 4 206 4 c 0,31,32
 177 4 177 4 139.5 -2 c 128,-1,33
 102 -8 102 -8 79 -14 c 2,34,-1
 56 -20 l 1,35,-1
 30 -27 l 1,36,-1
 48 -7 l 2,37,38
 161 119 161 119 305 277 c 1,39,40
 265 285 265 285 227 296.5 c 128,-1,41
 189 308 189 308 163.5 313 c 128,-1,42
 138 318 138 318 98 318 c 0,43,44
 90 318 90 318 80 311 c 128,-1,45
 70 304 70 304 64.5 297.5 c 2,46,-1
 59 291 l 1,47,-1
 46 271 l 1,48,-1
 46 296 l 2,49,50
 46 322 46 322 70 359.5 c 128,-1,51
 94 397 94 397 119 397 c 0,52,53
 170 397 170 397 260.5 372 c 128,-1,54
 351 347 351 347 356 347 c 0,55,56
 370 347 370 347 381 364.5 c 128,-1,57
 392 382 392 382 407 382 c 3,12,13
EndSplineSet
Validated: 1
EndChar

StartChar: Zdotaccent
Encoding: 379 379 181
Width: 630
VWidth: -10
Flags: W
HStem: -14 21G<34 83.5> -7 119.5<223.142 552.108> 0 114<219 424.642> 553 105<76.3613 355.803> 561 82<357.948 462> 569 81.5<105.131 459.667> 700 149<257.424 333.305>
VStem: 43 14<506 514.589> 218 163<743.155 807.24> 548 63.5<-125.365 -7> 548 49.5<-144.417 -8.87256>
DStem2: 249.5 287 219 114 0.606555 0.795041<-156.042 236.326> 402 484 475.5 477.5 0.606555 0.795041<-376.551 -249.123 0 95.6083>
LayerCount: 2
Back
Fore
SplineSet
300 700 m 4,0,1
 283 700 283 700 250.5 727.5 c 128,-1,2
 218 755 218 755 218 774 c 0,3,4
 218 790 218 790 247 819.5 c 128,-1,5
 276 849 276 849 293 849 c 0,6,7
 304 849 304 849 342.5 820.5 c 128,-1,8
 381 792 381 792 381 780 c 0,9,10
 381 765 381 765 348.5 732.5 c 128,-1,11
 316 700 316 700 300 700 c 4,0,1
533 651 m 3,12,13
 561 651 561 651 561 621 c 0,14,15
 561 604 561 604 475.5 477.5 c 128,-1,16
 390 351 390 351 304.5 232.5 c 2,17,-1
 219 114 l 1,18,19
 352 114 352 114 427 112.5 c 128,-1,20
 502 111 502 111 545.5 106 c 128,-1,21
 589 101 589 101 601.5 94 c 128,-1,22
 614 87 614 87 614 74 c 0,23,24
 614 59 614 59 613.5 43 c 128,-1,25
 613 27 613 27 611.5 -1.5 c 128,-1,26
 610 -30 610 -30 606.5 -53.5 c 128,-1,27
 603 -77 603 -77 597.5 -100 c 128,-1,28
 592 -123 592 -123 583 -136 c 128,-1,29
 574 -149 574 -149 562 -149 c 0,30,31
 548 -149 548 -149 548 -117 c 0,32,33
 548 -67 548 -67 553 -7 c 1,34,35
 266 0 266 0 262 0 c 0,36,37
 221 0 221 0 168.5 -3.5 c 128,-1,38
 116 -7 116 -7 83.5 -10.5 c 2,39,-1
 51 -14 l 1,40,-1
 34 -14 l 1,41,-1
 34 0 l 1,42,43
 150 157 150 157 249.5 287 c 128,-1,44
 349 417 349 417 402 484 c 128,-1,45
 455 551 455 551 462 561 c 1,46,47
 387 569 387 569 357 569 c 0,48,49
 319 569 319 569 243 561 c 128,-1,50
 167 553 167 553 112 553 c 0,51,52
 100 553 100 553 86.5 541 c 128,-1,53
 73 529 73 529 65 518 c 128,-1,54
 57 507 57 507 57 506 c 2,55,-1
 43 481 l 1,56,-1
 43 510 l 2,57,58
 46 658 46 658 83 658 c 0,59,60
 150 658 150 658 308 650.5 c 128,-1,61
 466 643 466 643 476 643 c 0,62,63
 501 643 501 643 510 647 c 128,-1,64
 519 651 519 651 533 651 c 3,12,13
EndSplineSet
Validated: 1
EndChar

StartChar: lslash
Encoding: 322 322 182
Width: 248
VWidth: -14
Flags: W
VStem: 66 93<56 268 396 561.896>
LayerCount: 2
Back
Fore
SplineSet
159 56 m 1,0,1
 180 61 180 61 213 94 c 1,2,-1
 218 88 l 2,3,4
 231 76 231 76 231 64 c 0,5,6
 231 47 231 47 166.5 9 c 128,-1,7
 102 -29 102 -29 73 -29 c 2,8,-1
 66 -29 l 1,9,-1
 66 268 l 1,10,-1
 12 251 l 1,11,12
 10 307 10 307 9 329 c 2,13,-1
 9 334 l 1,14,15
 21 338 21 338 66 356 c 1,16,-1
 66 521 l 2,17,18
 66 538 66 538 45 560.5 c 128,-1,19
 24 583 24 583 24 595 c 0,20,21
 25 611 25 611 74.5 626 c 128,-1,22
 124 641 124 641 159 644 c 1,23,-1
 159 396 l 1,24,-1
 223 425 l 1,25,26
 224 379 224 379 226 344 c 0,27,28
 226 339 226 339 224 338 c 0,29,30
 220 331 220 331 166 306 c 0,31,32
 165 306 165 306 162.5 305 c 128,-1,33
 160 304 160 304 159 304 c 2,34,-1
 159 56 l 1,0,1
EndSplineSet
Validated: 1
EndChar

StartChar: Lslash
Encoding: 321 321 183
Width: 645
VWidth: -10
Flags: W
HStem: -10 57<38.7251 146.219> -2 54<263.102 435.355> 591 58<35.4531 148.731 267.237 392.876> 591 47.5<267.237 392.876>
VStem: 147 116<54.0869 258 394 581.416> 586 41<-126 -10>
LayerCount: 2
Back
Fore
SplineSet
293 52 m 0,0,1
 330 52 330 52 369.5 55.5 c 128,-1,2
 409 59 409 59 462.5 68.5 c 128,-1,3
 516 78 516 78 554.5 101.5 c 128,-1,4
 593 125 593 125 603 159 c 1,5,-1
 607 159 l 2,6,7
 615 159 615 159 620 141.5 c 128,-1,8
 625 124 625 124 626 107 c 2,9,-1
 627 90 l 1,10,-1
 627 -126 l 1,11,-1
 586 -126 l 1,12,-1
 586 -10 l 1,13,14
 521 -2 521 -2 211 -2 c 0,15,16
 174 -2 174 -2 120.5 -10 c 128,-1,17
 67 -18 67 -18 32 -18 c 2,18,-1
 26 -18 l 1,19,-1
 26 -9 l 2,20,21
 26 17 26 17 45 31 c 128,-1,22
 64 45 64 45 86.5 47 c 128,-1,23
 109 49 109 49 128 55 c 128,-1,24
 147 61 147 61 147 73 c 0,25,26
 147 142 147 142 149 258 c 1,27,-1
 109 246 l 1,28,29
 108 302 108 302 107 324 c 2,30,-1
 107 329 l 1,31,32
 118 332 118 332 151 346 c 1,33,34
 153 478 153 478 153 557 c 0,35,36
 153 573 153 573 133 580.5 c 128,-1,37
 113 588 113 588 89.5 590 c 128,-1,38
 66 592 66 592 46 604.5 c 128,-1,39
 26 617 26 617 26 641 c 2,40,-1
 26 649 l 1,41,-1
 32 649 l 2,42,43
 90 647 90 647 129 638 c 128,-1,44
 168 629 168 629 193 629 c 0,45,46
 214 629 214 629 289.5 638.5 c 128,-1,47
 365 648 365 648 395 649 c 2,48,-1
 404 649 l 1,49,-1
 404 641 l 2,50,51
 404 617 404 617 381.5 605 c 128,-1,52
 359 593 359 593 332.5 591 c 128,-1,53
 306 589 306 589 284 581 c 128,-1,54
 262 573 262 573 262 557 c 2,55,-1
 262 394 l 1,56,-1
 320 420 l 1,57,58
 322 374 322 374 324 339 c 0,59,60
 324 334 324 334 321 333 c 0,61,62
 317 326 317 326 263 301 c 1,63,-1
 263 76 l 2,64,65
 263 69 263 69 271.5 60.5 c 128,-1,66
 280 52 280 52 293 52 c 0,0,1
EndSplineSet
Validated: 1
EndChar

StartChar: uni0412
Encoding: 1042 1042 184
Width: 636
VWidth: -15
Flags: W
HStem: -24 49<73.2822 145.935 283.515 444.599> 558 45<43.1099 132.699> 579 72<282.017 402.493>
VStem: 148 106<54.0055 539.062> 441 110<406.996 539.02> 488 113<65.3979 228.328>
LayerCount: 2
Back
Fore
SplineSet
335 579 m 4,0,1
 302 579 302 579 278 552.5 c 128,-1,2
 254 526 254 526 254 481 c 2,3,-1
 254 126 l 2,4,5
 255 72 255 72 282 48.5 c 128,-1,6
 309 25 309 25 388 25 c 0,7,8
 416 25 416 25 452 52.5 c 128,-1,9
 488 80 488 80 488 122 c 0,10,11
 488 170 488 170 477 203 c 128,-1,12
 466 236 466 236 445 254 c 128,-1,13
 424 272 424 272 404 282.5 c 128,-1,14
 384 293 384 293 355.5 305 c 128,-1,15
 327 317 327 317 311 328 c 2,16,-1
 295 338 l 1,17,-1
 312 343 l 2,18,19
 441 384 441 384 441 469 c 0,20,21
 441 513 441 513 414 546 c 128,-1,22
 387 579 387 579 335 579 c 4,0,1
409 -24 m 4,23,24
 337 -24 337 -24 290.5 -11.5 c 128,-1,25
 244 1 244 1 207 1 c 0,26,27
 204 1 204 1 186 -4.5 c 128,-1,28
 168 -10 168 -10 140 -15 c 128,-1,29
 112 -20 112 -20 84 -20 c 0,30,31
 64 -20 64 -20 64 1 c 0,32,33
 64 14 64 14 73 22 c 128,-1,34
 82 30 82 30 95 30 c 0,35,36
 120 30 120 30 132 33.5 c 128,-1,37
 144 37 144 37 146 40 c 128,-1,38
 148 43 148 43 148 50 c 2,39,-1
 148 519 l 2,40,41
 146 530 146 530 117.5 544 c 128,-1,42
 89 558 89 558 60 558 c 0,43,44
 52 558 52 558 47.5 564.5 c 128,-1,45
 43 571 43 571 43 578 c 0,46,47
 43 587 43 587 48.5 595 c 128,-1,48
 54 603 54 603 63 603 c 0,49,50
 104 603 104 603 131 589.5 c 128,-1,51
 158 576 158 576 197 576 c 0,52,53
 214 576 214 576 231 587.5 c 128,-1,54
 248 599 248 599 261 613.5 c 128,-1,55
 274 628 274 628 301.5 639.5 c 128,-1,56
 329 651 329 651 366 651 c 0,57,58
 446 651 446 651 498.5 602 c 128,-1,59
 551 553 551 553 551 483 c 0,60,61
 551 431 551 431 524.5 389.5 c 128,-1,62
 498 348 498 348 449 331 c 1,63,64
 455 328 455 328 480.5 316.5 c 128,-1,65
 506 305 506 305 516.5 299 c 128,-1,66
 527 293 527 293 547 278.5 c 128,-1,67
 567 264 567 264 576 249 c 128,-1,68
 585 234 585 234 593 209.5 c 128,-1,69
 601 185 601 185 601 155 c 0,70,71
 601 106 601 106 581.5 69 c 128,-1,72
 562 32 562 32 531.5 13 c 128,-1,73
 501 -6 501 -6 470 -15 c 128,-1,74
 439 -24 439 -24 409 -24 c 4,23,24
EndSplineSet
Validated: 1
EndChar

StartChar: uni0410
Encoding: 1040 1040 185
Width: 670
VWidth: -15
Flags: W
HStem: -9 41<398.562 470.191> -2 59.5<40.4351 81.6858 158 242.409 569.677 630.56> 287 76<318.88 404> 562 69<260 365> 573 71<76.3228 194 464 530.375>
VStem: 82 76<59 184.49>
DStem2: 99.5 162 191 248 0.223049 0.974807<-84.9273 114.449 205.878 422.798>
LayerCount: 2
Back
Fore
SplineSet
214 347 m 5,0,-1
 404 363 l 1,1,-1
 365 562 l 1,2,-1
 260 559 l 1,3,-1
 214 347 l 5,0,-1
61 644 m 6,4,5
 114 644 114 644 189.5 637.5 c 128,-1,6
 265 631 265 631 320 631 c 0,7,8
 358 631 358 631 397 637.5 c 128,-1,9
 436 644 436 644 476 644 c 0,10,11
 534 644 534 644 534 611 c 0,12,13
 534 600 534 600 529 592.5 c 128,-1,14
 524 585 524 585 515 581.5 c 128,-1,15
 506 578 506 578 498.5 576.5 c 128,-1,16
 491 575 491 575 479 574 c 128,-1,17
 467 573 467 573 464 573 c 1,18,19
 464 539 464 539 517 329.5 c 128,-1,20
 570 120 570 120 570 70 c 0,21,22
 570 52 570 52 625 52 c 0,23,24
 638 52 638 52 644 40 c 128,-1,25
 650 28 650 28 650 16 c 0,26,27
 650 -9 650 -9 631 -9 c 0,28,29
 617 -9 617 -9 593.5 -5 c 128,-1,30
 570 -1 570 -1 519 -1 c 0,31,32
 502 -1 502 -1 471 -5 c 128,-1,33
 440 -9 440 -9 420 -9 c 0,34,35
 411 -9 411 -9 404.5 -0.5 c 128,-1,36
 398 8 398 8 398 16 c 0,37,38
 398 32 398 32 414 32 c 0,39,40
 421 32 421 32 477 55 c 1,41,-1
 424 287 l 1,42,43
 343 282 343 282 191 248 c 1,44,45
 160 138 160 138 158 59 c 1,46,47
 161 59 161 59 183.5 57.5 c 128,-1,48
 206 56 206 56 223 56 c 0,49,50
 243 56 243 56 243 26 c 0,51,52
 243 0 243 0 224 0 c 0,53,54
 208 0 208 0 196.5 -1 c 128,-1,55
 185 -2 185 -2 168 -2 c 0,56,57
 153 -2 153 -2 115.5 -4.5 c 128,-1,58
 78 -7 78 -7 62 -7 c 0,59,60
 40 -7 40 -7 40 29 c 0,61,62
 40 55 40 55 55 55 c 0,63,64
 72 55 72 55 82 60 c 1,65,66
 83 82 83 82 99.5 162 c 128,-1,67
 116 242 116 242 134.5 321.5 c 128,-1,68
 153 401 153 401 172.5 484.5 c 128,-1,69
 192 568 192 568 194 575 c 1,70,71
 190 576 190 576 138 578.5 c 128,-1,72
 86 581 86 581 76 589 c 0,73,74
 65 598 65 598 58.5 616 c 128,-1,75
 52 634 52 634 52 644 c 1,76,-1
 61 644 l 6,4,5
EndSplineSet
Validated: 1
EndChar

StartChar: uni0415
Encoding: 1045 1045 186
Width: 641
VWidth: -12
Flags: W
HStem: -26 108<293.609 461.239> 261 104<171 278.946> 285 102<405.054 523> 566 90<213.397 358.606>
VStem: 44 117<365 435.514> 572 67<167.908 285> 590 37<-86.8055 58.6333>
LayerCount: 2
Back
Fore
SplineSet
430 82 m 4,0,1
 474 82 474 82 515 95 c 128,-1,2
 556 108 556 108 573 119 c 1,3,-1
 572 285 l 1,4,5
 189 262 189 262 171 261 c 1,6,7
 175 228 175 228 189.5 199 c 128,-1,8
 204 170 204 170 232.5 142 c 128,-1,9
 261 114 261 114 311.5 98 c 128,-1,10
 362 82 362 82 430 82 c 4,0,1
275 566 m 4,11,12
 242 566 242 566 219 548.5 c 128,-1,13
 196 531 196 531 184.5 499.5 c 128,-1,14
 173 468 173 468 168 436.5 c 128,-1,15
 163 405 163 405 161 365 c 1,16,-1
 523 387 l 1,17,18
 474 455 474 455 408 510.5 c 128,-1,19
 342 566 342 566 275 566 c 4,11,12
583 64 m 5,20,21
 531 30 531 30 504 15 c 128,-1,22
 477 0 477 0 433 -13 c 128,-1,23
 389 -26 389 -26 339 -26 c 0,24,25
 239 -26 239 -26 171 24.5 c 128,-1,26
 103 75 103 75 73.5 153 c 128,-1,27
 44 231 44 231 44 329 c 0,28,29
 44 404 44 404 77 479 c 128,-1,30
 110 554 110 554 169.5 605 c 128,-1,31
 229 656 229 656 297 656 c 0,32,33
 360 656 360 656 426.5 628 c 128,-1,34
 493 600 493 600 539 552 c 1,35,36
 544 566 544 566 551.5 598 c 128,-1,37
 559 630 559 630 566.5 642.5 c 128,-1,38
 574 655 574 655 588 655 c 0,39,40
 605 655 605 655 605 626 c 0,41,42
 605 603 605 603 585 520.5 c 128,-1,43
 565 438 565 438 559 398 c 1,44,-1
 639 405 l 1,45,46
 627 257 627 257 627 -65 c 2,47,-1
 627 -69 l 2,48,49
 624 -71 624 -71 620 -75.5 c 128,-1,50
 616 -80 616 -80 613 -83 c 128,-1,51
 610 -86 610 -86 606 -88.5 c 128,-1,52
 602 -91 602 -91 598 -91 c 2,53,-1
 590 -91 l 1,54,55
 589 -47 589 -47 583 64 c 5,20,21
EndSplineSet
Validated: 1
EndChar

StartChar: uni0418
Encoding: 1048 1048 187
Width: 720
VWidth: -15
Flags: W
HStem: -31 74<277.65 425.322>
VStem: 99 113<111.234 602.889> 523 112<112.477 601.194>
LayerCount: 2
Back
Fore
SplineSet
227 652 m 5,0,1
 218 602 218 602 215.5 533.5 c 128,-1,2
 213 465 213 465 212 211 c 0,3,4
 212 128 212 128 253 85.5 c 128,-1,5
 294 43 294 43 352 43 c 0,6,7
 369 43 369 43 388.5 46 c 128,-1,8
 408 49 408 49 433 59 c 128,-1,9
 458 69 458 69 477 84.5 c 128,-1,10
 496 100 496 100 509.5 129 c 128,-1,11
 523 158 523 158 523 195 c 0,12,13
 523 230 523 230 522 366 c 128,-1,14
 521 502 521 502 521 556 c 0,15,16
 521 579 521 579 510 592 c 128,-1,17
 499 605 499 605 488 611.5 c 128,-1,18
 477 618 477 618 477 626 c 0,19,20
 477 642 477 642 526 648 c 128,-1,21
 575 654 575 654 622 654 c 0,22,23
 639 654 639 654 639 577 c 2,24,-1
 635 123 l 2,25,26
 635 94 635 94 645.5 75 c 128,-1,27
 656 56 656 56 669 50 c 128,-1,28
 682 44 682 44 692.5 36 c 128,-1,29
 703 28 703 28 703 19 c 0,30,31
 703 4 703 4 683.5 -11.5 c 128,-1,32
 664 -27 664 -27 635 -27 c 0,33,34
 609 -27 609 -27 579 -3 c 128,-1,35
 549 21 549 21 535 54 c 1,36,37
 505 17 505 17 430.5 -7 c 128,-1,38
 356 -31 356 -31 299 -31 c 0,39,40
 222 -31 222 -31 160.5 42 c 128,-1,41
 99 115 99 115 99 216 c 0,42,43
 99 254 99 254 101 413 c 128,-1,44
 103 572 103 572 103 580 c 0,45,46
 103 594 103 594 74 605.5 c 128,-1,47
 45 617 45 617 45 629 c 0,48,49
 45 636 45 636 70 641 c 128,-1,50
 95 646 95 646 130.5 648.5 c 128,-1,51
 166 651 166 651 187.5 651.5 c 128,-1,52
 209 652 209 652 217 652 c 2,53,-1
 227 652 l 5,0,1
EndSplineSet
Validated: 1
EndChar

StartChar: uni0419
Encoding: 1049 1049 188
Width: 720
VWidth: -15
Flags: W
HStem: -31 74<277.65 425.322> 738 32<512.641 560.926>
VStem: 99 113<111.234 602.889> 189 71<719.908 761> 523 112<112.477 601.194>
DStem2: 297.5 706.5 251.5 672.5 0.872779 -0.488115<-53.9012 41.5248> 362 666 434.5 645.5 0.741351 0.671118<-6.9749 174.555>
LayerCount: 2
Back
Fore
SplineSet
364 602 m 5,0,1
 313 626 313 626 251.5 672.5 c 128,-1,2
 190 719 190 719 189 750 c 0,3,4
 189 768 189 768 208 768 c 0,5,6
 211 768 211 768 260 761 c 1,7,-1
 260 755 l 1,8,9
 269 737 269 737 269 736 c 0,10,11
 270 728 270 728 297.5 706.5 c 128,-1,12
 325 685 325 685 362 666 c 1,13,14
 374 675 374 675 403 704.5 c 128,-1,15
 432 734 432 734 457 752 c 128,-1,16
 482 770 482 770 504 770 c 0,17,18
 563 770 563 770 563 746 c 2,19,-1
 563 738 l 1,20,-1
 555 738 l 2,21,22
 534 738 534 738 515 724 c 128,-1,23
 496 710 496 710 481 690.5 c 128,-1,24
 466 671 466 671 434.5 645.5 c 128,-1,25
 403 620 403 620 364 602 c 5,0,1
227 652 m 1,26,27
 218 602 218 602 215.5 533.5 c 128,-1,28
 213 465 213 465 212 211 c 0,29,30
 212 128 212 128 253 85.5 c 128,-1,31
 294 43 294 43 352 43 c 0,32,33
 369 43 369 43 388.5 46 c 128,-1,34
 408 49 408 49 433 59 c 128,-1,35
 458 69 458 69 477 84.5 c 128,-1,36
 496 100 496 100 509.5 129 c 128,-1,37
 523 158 523 158 523 195 c 0,38,39
 523 230 523 230 522 366 c 128,-1,40
 521 502 521 502 521 556 c 0,41,42
 521 579 521 579 510 592 c 128,-1,43
 499 605 499 605 488 611.5 c 128,-1,44
 477 618 477 618 477 626 c 0,45,46
 477 642 477 642 526 648 c 128,-1,47
 575 654 575 654 622 654 c 0,48,49
 639 654 639 654 639 577 c 2,50,-1
 635 123 l 2,51,52
 635 94 635 94 645.5 75 c 128,-1,53
 656 56 656 56 669 50 c 128,-1,54
 682 44 682 44 692.5 36 c 128,-1,55
 703 28 703 28 703 19 c 0,56,57
 703 4 703 4 683.5 -11.5 c 128,-1,58
 664 -27 664 -27 635 -27 c 0,59,60
 609 -27 609 -27 579 -3 c 128,-1,61
 549 21 549 21 535 54 c 1,62,63
 505 17 505 17 430.5 -7 c 128,-1,64
 356 -31 356 -31 299 -31 c 0,65,66
 222 -31 222 -31 160.5 42 c 128,-1,67
 99 115 99 115 99 216 c 0,68,69
 99 254 99 254 101 413 c 128,-1,70
 103 572 103 572 103 580 c 0,71,72
 103 594 103 594 74 605.5 c 128,-1,73
 45 617 45 617 45 629 c 0,74,75
 45 636 45 636 70 641 c 128,-1,76
 95 646 95 646 130.5 648.5 c 128,-1,77
 166 651 166 651 187.5 651.5 c 128,-1,78
 209 652 209 652 217 652 c 2,79,-1
 227 652 l 1,26,27
EndSplineSet
Validated: 1
EndChar

StartChar: uni041A
Encoding: 1050 1050 189
Width: 646
VWidth: -15
Flags: W
HStem: -20 55.5<28.8912 96> -16 44<211.131 297.656 558.459 622.288> 597 46<35.3445 95.2235 211.632 279.771 554.115 596.426>
VStem: 96 115<39.4375 296.831 369 595.397>
DStem2: 427 259.5 300.5 254 0.543364 -0.839497<-136.737 277.899> 325 460.5 335 386 0.774661 0.632376<-39.3654 296.322>
LayerCount: 2
Back
Fore
SplineSet
599 595 m 5,0,1
 565 587 565 587 513.5 546 c 128,-1,2
 462 505 462 505 405.5 451 c 128,-1,3
 349 397 349 397 335 386 c 1,4,5
 371 352 371 352 427 259.5 c 128,-1,6
 483 167 483 167 527 95.5 c 128,-1,7
 571 24 571 24 589 24 c 0,8,9
 600 24 600 24 612 16.5 c 128,-1,10
 624 9 624 9 624 -1 c 0,11,12
 624 -10 624 -10 582.5 -15.5 c 128,-1,13
 541 -21 541 -21 506 -21 c 0,14,15
 482 -21 482 -21 443 30 c 128,-1,16
 404 81 404 81 370 142 c 128,-1,17
 336 203 336 203 300.5 254 c 128,-1,18
 265 305 265 305 245 305 c 0,19,20
 237 305 237 305 224 283 c 128,-1,21
 211 261 211 261 211 241 c 2,22,-1
 211 51 l 2,23,24
 211 43 211 43 232.5 39.5 c 128,-1,25
 254 36 254 36 276 28 c 128,-1,26
 298 20 298 20 298 2 c 128,-1,27
 298 -16 298 -16 272 -16 c 0,28,29
 262 -16 262 -16 219 -12 c 128,-1,30
 176 -8 176 -8 155 -8 c 128,-1,31
 134 -8 134 -8 95 -14 c 128,-1,32
 56 -20 56 -20 44 -20 c 0,33,34
 16 -20 16 -20 16 0 c 0,35,36
 16 18 16 18 28.5 26.5 c 128,-1,37
 41 35 41 35 56 35.5 c 128,-1,38
 71 36 71 36 83.5 40.5 c 128,-1,39
 96 45 96 45 96 55 c 2,40,-1
 96 577 l 2,41,42
 96 588 96 588 85 592.5 c 128,-1,43
 74 597 74 597 60 597 c 128,-1,44
 46 597 46 597 35 602.5 c 128,-1,45
 24 608 24 608 24 622 c 0,46,47
 24 643 24 643 51 643 c 0,48,49
 63 643 63 643 98.5 636 c 128,-1,50
 134 629 134 629 154 629 c 0,51,52
 175 629 175 629 209.5 635 c 128,-1,53
 244 641 244 641 254 641 c 0,54,55
 280 641 280 641 280 622 c 0,56,57
 280 604 280 604 245.5 598 c 128,-1,58
 211 592 211 592 211 582 c 2,59,-1
 211 369 l 1,60,61
 240 389 240 389 325 460.5 c 128,-1,62
 410 532 410 532 480.5 589 c 128,-1,63
 551 646 551 646 566 646 c 0,64,65
 580 646 580 646 588.5 635 c 128,-1,66
 597 624 597 624 598 613 c 2,67,-1
 599 602 l 1,68,-1
 599 595 l 5,0,1
EndSplineSet
Validated: 1
EndChar

StartChar: uni041D
Encoding: 1053 1053 190
Width: 851
VWidth: -15
Flags: W
HStem: -15 56<50.5946 150.91> -8 61<265 445.447> 301 79<265 390.629> 320 78<577.529 598 707 736> 585 54<706.066 826.255> 586 49<51.626 155.258 570.188 594.812>
VStem: 155.5 109.5<58.2795 301 380 570.326> 598 107<57.6108 320 404 575.878>
LayerCount: 2
Back
Fore
SplineSet
843 -19 m 5,0,1
 724 -2 724 -2 656 -2 c 0,2,3
 641 -2 641 -2 620 -9.5 c 128,-1,4
 599 -17 599 -17 573 -17 c 2,5,-1
 565 -17 l 1,6,-1
 565 -8 l 2,7,8
 565 17 565 17 569.5 30 c 128,-1,9
 574 43 574 43 580 45 c 128,-1,10
 586 47 586 47 590.5 54 c 128,-1,11
 595 61 595 61 595 74 c 0,12,13
 595 110 595 110 598 320 c 1,14,-1
 265 301 l 1,15,-1
 265 72 l 2,16,17
 265 58 265 58 323.5 53 c 128,-1,18
 382 48 382 48 441 36 c 128,-1,19
 500 24 500 24 500 -8 c 2,20,-1
 500 -17 l 1,21,-1
 492 -17 l 1,22,23
 341 -8 341 -8 216 -8 c 0,24,25
 180 -8 180 -8 127 -15 c 128,-1,26
 74 -22 74 -22 39 -22 c 2,27,-1
 31 -22 l 1,28,-1
 31 -14 l 2,29,30
 31 12 31 12 50 25.5 c 128,-1,31
 69 39 69 39 91.5 41 c 128,-1,32
 114 43 114 43 133 49 c 128,-1,33
 152 55 152 55 152 67 c 0,34,35
 152 156 152 156 155.5 309.5 c 128,-1,36
 159 463 159 463 159 552 c 0,37,38
 159 568 159 568 139 574 c 128,-1,39
 119 580 119 580 95 580.5 c 128,-1,40
 71 581 71 581 51 592 c 128,-1,41
 31 603 31 603 31 627 c 2,42,-1
 31 636 l 1,43,-1
 39 636 l 2,44,45
 95 634 95 634 133.5 629.5 c 128,-1,46
 172 625 172 625 198 625 c 0,47,48
 214 625 214 625 250 631 c 128,-1,49
 286 637 286 637 294 637 c 2,50,-1
 301 637 l 1,51,-1
 301 628 l 2,52,53
 301 604 301 604 295 592 c 128,-1,54
 289 580 289 580 282 578 c 128,-1,55
 275 576 275 576 269.5 570.5 c 128,-1,56
 264 565 264 565 264 552 c 2,57,-1
 264 380 l 1,58,-1
 598 398 l 1,59,60
 601 551 601 551 601 558 c 0,61,62
 601 575 601 575 595 581 c 128,-1,63
 589 587 589 587 582.5 586 c 128,-1,64
 576 585 576 585 570 594.5 c 128,-1,65
 564 604 564 604 564 627 c 2,66,-1
 564 635 l 1,67,-1
 573 635 l 2,68,69
 594 635 594 635 615.5 632 c 128,-1,70
 637 629 637 629 638 629 c 0,71,72
 655 629 655 629 740 639 c 128,-1,73
 825 649 825 649 832 649 c 2,74,-1
 841 649 l 1,75,-1
 841 641 l 2,76,77
 841 616 841 616 819.5 602 c 128,-1,78
 798 588 798 588 772.5 585 c 128,-1,79
 747 582 747 582 726 575.5 c 128,-1,80
 705 569 705 569 705 558 c 2,81,-1
 705 404 l 1,82,-1
 781 408 l 1,83,-1
 781 399 l 2,84,85
 780 377 780 377 770 357 c 0,86,87
 767 353 767 353 762.5 348.5 c 128,-1,88
 758 344 758 344 754 340 c 128,-1,89
 750 336 750 336 746 333 c 128,-1,90
 742 330 742 330 739 328 c 2,91,-1
 736 326 l 1,92,-1
 707 324 l 1,93,94
 707 289 707 289 706.5 203.5 c 128,-1,95
 706 118 706 118 706 76 c 0,96,97
 706 64 706 64 727.5 57.5 c 128,-1,98
 749 51 749 51 774.5 47.5 c 128,-1,99
 800 44 800 44 821.5 29.5 c 128,-1,100
 843 15 843 15 843 -9 c 2,101,-1
 843 -19 l 5,0,1
EndSplineSet
Validated: 1
EndChar

StartChar: uni041C
Encoding: 1052 1052 191
Width: 842
VWidth: -15
Flags: W
HStem: -26 54.5<577.797 618.203> -19 21G<217 238> -12 50<42.8599 103.989 171.003 227.171 742.278 818.531> 570.5 50.5<529.344 587.997> 580.5 56.5<702.766 739.234> 584 62<271.634 298.592> 589 36<75.0938 184.116>
VStem: 104 67<40.29 200.635> 588 106<484.432 568.936> 611 106.5<98.2905 400.925> 628 113<39.4922 258.599>
DStem2: 271 584 234 460 0.395726 -0.918369<99.2358 448.553> 453 174 433 0 0.365652 0.930751<0 261.06>
LayerCount: 2
Back
Fore
SplineSet
518 611 m 5,0,1
 570 621 570 621 631 621 c 0,2,3
 647 621 647 621 689 629 c 128,-1,4
 731 637 731 637 740 637 c 2,5,-1
 748 637 l 1,6,-1
 748 629 l 2,7,8
 748 605 748 605 739.5 593 c 128,-1,9
 731 581 731 581 721 580.5 c 128,-1,10
 711 580 711 580 702.5 575.5 c 128,-1,11
 694 571 694 571 694 559 c 0,12,13
 694 534 694 534 717.5 325.5 c 128,-1,14
 741 117 741 117 741 70 c 0,15,16
 741 52 741 52 755.5 43.5 c 128,-1,17
 770 35 770 35 787 33 c 128,-1,18
 804 31 804 31 819 19 c 128,-1,19
 834 7 834 7 834 -18 c 2,20,-1
 834 -27 l 1,21,22
 808 -24 808 -24 784 -19 c 128,-1,23
 760 -14 760 -14 742 -12 c 128,-1,24
 724 -10 724 -10 691 -10 c 0,25,26
 659 -10 659 -10 628 -17.5 c 128,-1,27
 597 -25 597 -25 575 -26 c 2,28,-1
 568 -26 l 1,29,-1
 568 -18 l 2,30,31
 568 8 568 8 577.5 18.5 c 128,-1,32
 587 29 587 29 598 28.5 c 128,-1,33
 609 28 609 28 618.5 36 c 128,-1,34
 628 44 628 44 628 66 c 0,35,36
 628 103 628 103 611 220 c 128,-1,37
 594 337 594 337 590 403 c 1,38,39
 502 152 502 152 433 0 c 2,40,-1
 425 -17 l 1,41,-1
 420 2 l 1,42,43
 281 361 281 361 234 460 c 1,44,45
 217 373 217 373 194 227 c 128,-1,46
 171 81 171 81 171 59 c 0,47,48
 171 47 171 47 181.5 42 c 128,-1,49
 192 37 192 37 204.5 36.5 c 128,-1,50
 217 36 217 36 227.5 24.5 c 128,-1,51
 238 13 238 13 238 -11 c 2,52,-1
 238 -19 l 1,53,-1
 231 -19 l 2,54,55
 203 -17 203 -17 188 -15 c 128,-1,56
 173 -13 173 -13 160 -12 c 128,-1,57
 147 -11 147 -11 116 -11 c 0,58,59
 102 -11 102 -11 80.5 -16.5 c 128,-1,60
 59 -22 59 -22 38 -22 c 2,61,-1
 31 -22 l 1,62,-1
 31 -14 l 2,63,64
 31 12 31 12 42.5 24.5 c 128,-1,65
 54 37 54 37 67.5 38 c 128,-1,66
 81 39 81 39 92.5 44 c 128,-1,67
 104 49 104 49 104 61 c 0,68,69
 104 83 104 83 145 304 c 128,-1,70
 186 525 186 525 186 563 c 0,71,72
 186 577 186 577 168.5 581 c 128,-1,73
 151 585 151 585 130 583.5 c 128,-1,74
 109 582 109 582 91.5 589 c 128,-1,75
 74 596 74 596 74 616 c 2,76,-1
 74 625 l 1,77,-1
 187 625 l 2,78,79
 203 625 203 625 248 635.5 c 128,-1,80
 293 646 293 646 303 646 c 2,81,-1
 312 646 l 1,82,83
 312 627 312 627 302 611.5 c 128,-1,84
 292 596 292 596 283 590 c 128,-1,85
 274 584 274 584 271 584 c 1,86,87
 416 274 416 274 453 174 c 1,88,89
 491 267 491 267 539.5 406 c 128,-1,90
 588 545 588 545 588 559 c 0,91,92
 588 567 588 567 577 569 c 128,-1,93
 566 571 566 571 553 570.5 c 128,-1,94
 540 570 540 570 529 578 c 128,-1,95
 518 586 518 586 518 604 c 2,96,-1
 518 611 l 5,0,1
EndSplineSet
Validated: 1
EndChar

StartChar: uni041E
Encoding: 1054 1054 192
Width: 740
VWidth: -15
Flags: W
HStem: -17 55<336.115 529.596> 591 57<274.247 452.799>
VStem: 46 124<206.801 454.294> 600 113<153.359 415>
LayerCount: 2
Back
Fore
SplineSet
600 264 m 4,0,1
 600 418 600 418 531.5 504.5 c 128,-1,2
 463 591 463 591 351 591 c 0,3,4
 276 591 276 591 223 520.5 c 128,-1,5
 170 450 170 450 170 341 c 0,6,7
 170 194 170 194 250 116 c 128,-1,8
 330 38 330 38 460 38 c 0,9,10
 500 38 500 38 529 59 c 128,-1,11
 558 80 558 80 572.5 115 c 128,-1,12
 587 150 587 150 593.5 186.5 c 128,-1,13
 600 223 600 223 600 264 c 4,0,1
436 -17 m 4,14,15
 246 -17 246 -17 146 70.5 c 128,-1,16
 46 158 46 158 46 312 c 0,17,18
 46 479 46 479 141 563.5 c 128,-1,19
 236 648 236 648 403 648 c 0,20,21
 531 648 531 648 622 550 c 128,-1,22
 713 452 713 452 713 322 c 0,23,24
 713 151 713 151 649 67 c 128,-1,25
 585 -17 585 -17 436 -17 c 4,14,15
EndSplineSet
Validated: 1
EndChar

StartChar: uni0420
Encoding: 1056 1056 193
Width: 641
VWidth: -14
Flags: W
HStem: -19 56<36.736 150.516 286.122 530.227> -6.5 49.5<280.715 510.544> 3 50<278 427.547> 148 56<348.54 489.594> 560 44<31.1572 116.069> 571 6<223 362>
VStem: 145.5 132.5<294.254 533.606> 158 120<53 180 252.929 525.962> 531 102<310.407 490.39>
DStem2: 309 247 301 169.5 0.920269 -0.391286<-2.09938 129.973>
LayerCount: 2
Back
Fore
SplineSet
362 571 m 4,0,1
 322 571 322 571 278 527 c 1,2,-1
 278 270 l 1,3,4
 290 260 290 260 309 247 c 128,-1,5
 328 234 328 234 366.5 219 c 128,-1,6
 405 204 405 204 439 204 c 0,7,8
 531 204 531 204 531 409 c 0,9,10
 531 477 531 477 481.5 524 c 128,-1,11
 432 571 432 571 362 571 c 4,0,1
29 3 m 4,12,13
 29 15 29 15 36.5 26 c 128,-1,14
 44 37 44 37 58 37 c 0,15,16
 136 37 136 37 151 55 c 1,17,18
 158 78 158 78 158 293 c 0,19,20
 158 333 158 333 154 389 c 128,-1,21
 150 445 150 445 145.5 481.5 c 2,22,-1
 141 518 l 2,23,24
 140 528 140 528 104.5 544 c 128,-1,25
 69 560 69 560 40 560 c 0,26,27
 26 560 26 560 26 580 c 0,28,29
 26 589 26 589 31 596.5 c 128,-1,30
 36 604 36 604 45 604 c 0,31,32
 94 604 94 604 134 590.5 c 128,-1,33
 174 577 174 577 223 577 c 0,34,35
 240 577 240 577 257 588.5 c 128,-1,36
 274 600 274 600 287 614.5 c 128,-1,37
 300 629 300 629 327 640.5 c 128,-1,38
 354 652 354 652 391 652 c 0,39,40
 490 652 490 652 561.5 578.5 c 128,-1,41
 633 505 633 505 633 404 c 0,42,43
 633 352 633 352 602 292.5 c 128,-1,44
 571 233 571 233 520 190.5 c 128,-1,45
 469 148 469 148 418 148 c 0,46,47
 378 148 378 148 349.5 154 c 128,-1,48
 321 160 321 160 301 169.5 c 128,-1,49
 281 179 281 179 278 180 c 2,50,-1
 278 53 l 1,51,52
 365 52 365 52 436.5 43 c 128,-1,53
 508 34 508 34 511 34 c 0,54,55
 520 34 520 34 525.5 26.5 c 128,-1,56
 531 19 531 19 531 10 c 128,-1,57
 531 1 531 1 525.5 -7.5 c 128,-1,58
 520 -16 520 -16 511 -16 c 0,59,60
 497 -16 497 -16 406 -6.5 c 128,-1,61
 315 3 315 3 207 3 c 0,62,63
 153 3 153 3 115.5 -8 c 128,-1,64
 78 -19 78 -19 50 -19 c 0,65,66
 41 -19 41 -19 35 -12.5 c 128,-1,67
 29 -6 29 -6 29 3 c 4,12,13
EndSplineSet
Validated: 1
EndChar

